<svg xmlns="http://www.w3.org/2000/svg" width="451.62214217250556" xmlns:xlink="http://www.w3.org/1999/xlink" viewBox="-0.731781319367409 -0.4978484285626692 1.4806198310116425 0.9835344812075835" height="300.0"><style>svg {
  color-scheme: light dark;
}
{
  .canvas g, .title g, .axisbar g, .ticktext g, .tickglyph g, .ticklines g, .legendContent g text {
    fill: #0d0d0d;
  }
  .ticklines g, .tickglyph g, .legendBorder g {
    stroke: #0d0d0d;
  }
}
@media (prefers-color-scheme:dark) {
  .canvas g, .title g, .axisbar g, .ticktext g, .tickglyph g, .ticklines g, .legendContent g text {
    fill: #f0f0f0;
  }
  .ticklines g, .tickglyph g, .legendBorder g {
    stroke: #f0f0f0;
  }
}</style><g class="chart"><g class="dots"><g fill="rgb(1%, 86%, 94%)" stroke="rgb(50%, 50%, 50%)" stroke-width="3.0e-3" fill-opacity="1.0" stroke-opacity="1.0"><circle cy="0.12335881297088952" cx="-0.2757868918958086" r="4.0e-2"/></g><g fill="rgb(1%, 29%, 47%)" stroke="rgb(50%, 50%, 50%)" stroke-width="3.0e-3" fill-opacity="1.0" stroke-opacity="1.0"><circle cy="0.180617399450911" cx="2.7740312763664732e-2" r="4.0e-2"/></g><g fill="rgb(100%, 71%, 36%)" stroke="rgb(50%, 50%, 50%)" stroke-width="3.0e-3" fill-opacity="1.0" stroke-opacity="1.0"><circle cy="-0.30828147886385804" cx="0.3622735358354975" r="4.0e-2"/></g><g fill="rgb(73%, 34%, 0%)" stroke="rgb(50%, 50%, 50%)" stroke-width="3.0e-3" fill-opacity="1.0" stroke-opacity="1.0"><circle cy="-0.28241382882569177" cx="0.5299315239525357" r="4.0e-2"/></g></g><g class="wheel"><g fill="rgb(74%, 74%, 74%)" stroke="rgb(12%, 47%, 71%)" stroke-width="0.0" fill-opacity="1.0" stroke-opacity="1.0"><rect x="0.1785617838647583" width="1.0000000000000009e-2" y="-2.5522575204071304e-2" height="1.0000000000000002e-2"/></g><g fill="rgb(74%, 74%, 74%)" stroke="rgb(12%, 47%, 71%)" stroke-width="0.0" fill-opacity="1.0" stroke-opacity="1.0"><rect x="0.1785617838647583" width="1.0000000000000009e-2" y="-2.5522575204071304e-2" height="1.0000000000000002e-2"/></g><g fill="rgb(74%, 74%, 74%)" stroke="rgb(12%, 47%, 71%)" stroke-width="0.0" fill-opacity="1.0" stroke-opacity="1.0"><rect x="0.1785617838647583" width="1.0000000000000009e-2" y="-2.5522575204071304e-2" height="1.0000000000000002e-2"/></g><g fill="rgb(74%, 74%, 74%)" stroke="rgb(12%, 47%, 71%)" stroke-width="0.0" fill-opacity="1.0" stroke-opacity="1.0"><rect x="0.1785617838647583" width="1.0000000000000009e-2" y="-2.5522575204071304e-2" height="1.0000000000000002e-2"/></g><g fill="rgb(74%, 74%, 74%)" stroke="rgb(12%, 47%, 71%)" stroke-width="0.0" fill-opacity="1.0" stroke-opacity="1.0"><rect x="0.1785617838647583" width="1.0000000000000009e-2" y="-2.5522575204071304e-2" height="1.0000000000000002e-2"/></g><g fill="rgb(74%, 74%, 74%)" stroke="rgb(12%, 47%, 71%)" stroke-width="0.0" fill-opacity="1.0" stroke-opacity="1.0"><rect x="0.1785617838647583" width="1.0000000000000009e-2" y="-2.5522575204071304e-2" height="1.0000000000000002e-2"/></g><g fill="rgb(74%, 74%, 74%)" stroke="rgb(12%, 47%, 71%)" stroke-width="0.0" fill-opacity="1.0" stroke-opacity="1.0"><rect x="0.1785617838647583" width="1.0000000000000009e-2" y="-2.5522575204071304e-2" height="1.0000000000000002e-2"/></g><g fill="rgb(74%, 74%, 74%)" stroke="rgb(12%, 47%, 71%)" stroke-width="0.0" fill-opacity="1.0" stroke-opacity="1.0"><rect x="0.1785617838647583" width="1.0000000000000009e-2" y="-2.5522575204071304e-2" height="1.0000000000000002e-2"/></g><g fill="rgb(74%, 74%, 74%)" stroke="rgb(12%, 47%, 71%)" stroke-width="0.0" fill-opacity="1.0" stroke-opacity="1.0"><rect x="0.1785617838647583" width="1.0000000000000009e-2" y="-2.5522575204071304e-2" height="1.0000000000000002e-2"/></g><g fill="rgb(74%, 74%, 74%)" stroke="rgb(12%, 47%, 71%)" stroke-width="0.0" fill-opacity="1.0" stroke-opacity="1.0"><rect x="0.1785617838647583" width="1.0000000000000009e-2" y="-2.5522575204071304e-2" height="1.0000000000000002e-2"/></g><g fill="rgb(74%, 74%, 74%)" stroke="rgb(12%, 47%, 71%)" stroke-width="0.0" fill-opacity="1.0" stroke-opacity="1.0"><rect x="0.1785617838647583" width="1.0000000000000009e-2" y="-2.5522575204071304e-2" height="1.0000000000000002e-2"/></g><g fill="rgb(74%, 74%, 74%)" stroke="rgb(12%, 47%, 71%)" stroke-width="0.0" fill-opacity="1.0" stroke-opacity="1.0"><rect x="0.1785617838647583" width="1.0000000000000009e-2" y="-2.5522575204071304e-2" height="1.0000000000000002e-2"/></g><g fill="rgb(74%, 74%, 74%)" stroke="rgb(12%, 47%, 71%)" stroke-width="0.0" fill-opacity="1.0" stroke-opacity="1.0"><rect x="0.1785617838647583" width="1.0000000000000009e-2" y="-2.5522575204071304e-2" height="1.0000000000000002e-2"/></g><g fill="rgb(74%, 74%, 74%)" stroke="rgb(12%, 47%, 71%)" stroke-width="0.0" fill-opacity="1.0" stroke-opacity="1.0"><rect x="0.1785617838647583" width="1.0000000000000009e-2" y="-2.5522575204071304e-2" height="1.0000000000000002e-2"/></g><g fill="rgb(74%, 74%, 74%)" stroke="rgb(12%, 47%, 71%)" stroke-width="0.0" fill-opacity="1.0" stroke-opacity="1.0"><rect x="0.1785617838647583" width="1.0000000000000009e-2" y="-2.5522575204071304e-2" height="1.0000000000000002e-2"/></g><g fill="rgb(74%, 74%, 74%)" stroke="rgb(12%, 47%, 71%)" stroke-width="0.0" fill-opacity="1.0" stroke-opacity="1.0"><rect x="0.1785617838647583" width="1.0000000000000009e-2" y="-2.5522575204071304e-2" height="1.0000000000000002e-2"/></g><g fill="rgb(74%, 74%, 74%)" stroke="rgb(12%, 47%, 71%)" stroke-width="0.0" fill-opacity="1.0" stroke-opacity="1.0"><rect x="0.1785617838647583" width="1.0000000000000009e-2" y="-2.5522575204071304e-2" height="1.0000000000000002e-2"/></g><g fill="rgb(74%, 74%, 74%)" stroke="rgb(12%, 47%, 71%)" stroke-width="0.0" fill-opacity="1.0" stroke-opacity="1.0"><rect x="0.1785617838647583" width="1.0000000000000009e-2" y="-2.5522575204071304e-2" height="1.0000000000000002e-2"/></g><g fill="rgb(74%, 74%, 74%)" stroke="rgb(12%, 47%, 71%)" stroke-width="0.0" fill-opacity="1.0" stroke-opacity="1.0"><rect x="0.1785617838647583" width="1.0000000000000009e-2" y="-2.5522575204071304e-2" height="1.0000000000000002e-2"/></g><g fill="rgb(74%, 74%, 74%)" stroke="rgb(12%, 47%, 71%)" stroke-width="0.0" fill-opacity="1.0" stroke-opacity="1.0"><rect x="0.1785617838647583" width="1.0000000000000009e-2" y="-2.5522575204071304e-2" height="1.0000000000000002e-2"/></g><g fill="rgb(79%, 72%, 74%)" stroke="rgb(12%, 47%, 71%)" stroke-width="0.0" fill-opacity="1.0" stroke-opacity="1.0"><rect x="0.2527086533043831" width="1.0000000000000009e-2" y="-2.5522575204071304e-2" height="1.0000000000000002e-2"/></g><g fill="rgb(79%, 73%, 72%)" stroke="rgb(12%, 47%, 71%)" stroke-width="0.0" fill-opacity="1.0" stroke-opacity="1.0"><rect x="0.2490796472081993" width="1.0000000000000009e-2" y="-3.954081243052731e-2" height="9.999999999999998e-3"/></g><g fill="rgb(79%, 73%, 71%)" stroke="rgb(12%, 47%, 71%)" stroke-width="0.0" fill-opacity="1.0" stroke-opacity="1.0"><rect x="0.23854786132111516" width="1.0000000000000009e-2" y="-5.218684692645569e-2" height="9.999999999999995e-3"/></g><g fill="rgb(79%, 73%, 70%)" stroke="rgb(12%, 47%, 71%)" stroke-width="0.0" fill-opacity="1.0" stroke-opacity="1.0"><rect x="0.22214422022502522" width="1.0000000000000009e-2" y="-6.2222796725291955e-2" height="9.999999999999995e-3"/></g><g fill="rgb(78%, 74%, 69%)" stroke="rgb(12%, 47%, 71%)" stroke-width="0.0" fill-opacity="1.0" stroke-opacity="1.0"><rect x="0.20147442660130255" width="1.0000000000000009e-2" y="-6.866627313615203e-2" height="1.0000000000000002e-2"/></g><g fill="rgb(76%, 74%, 69%)" stroke="rgb(12%, 47%, 71%)" stroke-width="0.0" fill-opacity="1.0" stroke-opacity="1.0"><rect x="0.1785617838647583" width="1.0000000000000009e-2" y="-7.088654379360088e-2" height="1.0000000000000002e-2"/></g><g fill="rgb(75%, 75%, 69%)" stroke="rgb(12%, 47%, 71%)" stroke-width="0.0" fill-opacity="1.0" stroke-opacity="1.0"><rect x="0.1556491411282137" width="1.0000000000000009e-2" y="-6.866627313615203e-2" height="1.0000000000000002e-2"/></g><g fill="rgb(73%, 75%, 70%)" stroke="rgb(12%, 47%, 71%)" stroke-width="0.0" fill-opacity="1.0" stroke-opacity="1.0"><rect x="0.13497934750449136" width="1.0000000000000009e-2" y="-6.2222796725291955e-2" height="9.999999999999995e-3"/></g><g fill="rgb(72%, 76%, 71%)" stroke="rgb(12%, 47%, 71%)" stroke-width="0.0" fill-opacity="1.0" stroke-opacity="1.0"><rect x="0.11857570640840143" width="1.0000000000000009e-2" y="-5.218684692645569e-2" height="9.999999999999995e-3"/></g><g fill="rgb(70%, 76%, 73%)" stroke="rgb(12%, 47%, 71%)" stroke-width="0.0" fill-opacity="1.0" stroke-opacity="1.0"><rect x="0.10804392052131717" width="1.0000000000000009e-2" y="-3.954081243052731e-2" height="9.999999999999998e-3"/></g><g fill="rgb(69%, 76%, 74%)" stroke="rgb(12%, 47%, 71%)" stroke-width="0.0" fill-opacity="1.0" stroke-opacity="1.0"><rect x="0.10441491442513351" width="1.0000000000000009e-2" y="-2.5522575204071304e-2" height="1.0000000000000002e-2"/></g><g fill="rgb(69%, 76%, 76%)" stroke="rgb(12%, 47%, 71%)" stroke-width="0.0" fill-opacity="1.0" stroke-opacity="1.0"><rect x="0.10804392052131717" width="1.0000000000000009e-2" y="-1.150433797761535e-2" height="1.0000000000000002e-2"/></g><g fill="rgb(69%, 76%, 78%)" stroke="rgb(12%, 47%, 71%)" stroke-width="0.0" fill-opacity="1.0" stroke-opacity="1.0"><rect x="0.11857570640840143" width="1.0000000000000009e-2" y="1.1416965183131999e-3" height="1.0000000000000002e-2"/></g><g fill="rgb(70%, 75%, 79%)" stroke="rgb(12%, 47%, 71%)" stroke-width="0.0" fill-opacity="1.0" stroke-opacity="1.0"><rect x="0.13497934750449136" width="1.0000000000000009e-2" y="1.1177646317149407e-2" height="1.0000000000000002e-2"/></g><g fill="rgb(71%, 75%, 79%)" stroke="rgb(12%, 47%, 71%)" stroke-width="0.0" fill-opacity="1.0" stroke-opacity="1.0"><rect x="0.1556491411282137" width="1.0000000000000009e-2" y="1.7621122728009423e-2" height="1.0000000000000002e-2"/></g><g fill="rgb(72%, 74%, 80%)" stroke="rgb(12%, 47%, 71%)" stroke-width="0.0" fill-opacity="1.0" stroke-opacity="1.0"><rect x="0.1785617838647583" width="1.0000000000000009e-2" y="1.9841393385458265e-2" height="1.0000000000000002e-2"/></g><g fill="rgb(74%, 74%, 79%)" stroke="rgb(12%, 47%, 71%)" stroke-width="0.0" fill-opacity="1.0" stroke-opacity="1.0"><rect x="0.20147442660130255" width="1.0000000000000009e-2" y="1.7621122728009423e-2" height="1.0000000000000002e-2"/></g><g fill="rgb(76%, 73%, 78%)" stroke="rgb(12%, 47%, 71%)" stroke-width="0.0" fill-opacity="1.0" stroke-opacity="1.0"><rect x="0.22214422022502522" width="1.0000000000000009e-2" y="1.1177646317149407e-2" height="1.0000000000000002e-2"/></g><g fill="rgb(77%, 73%, 77%)" stroke="rgb(12%, 47%, 71%)" stroke-width="0.0" fill-opacity="1.0" stroke-opacity="1.0"><rect x="0.23854786132111516" width="1.0000000000000009e-2" y="1.1416965183131999e-3" height="1.0000000000000002e-2"/></g><g fill="rgb(78%, 73%, 76%)" stroke="rgb(12%, 47%, 71%)" stroke-width="0.0" fill-opacity="1.0" stroke-opacity="1.0"><rect x="0.2490796472081993" width="1.0000000000000009e-2" y="-1.150433797761535e-2" height="1.0000000000000002e-2"/></g><g fill="rgb(83%, 70%, 74%)" stroke="rgb(12%, 47%, 71%)" stroke-width="0.0" fill-opacity="1.0" stroke-opacity="1.0"><rect x="0.32685552274400764" width="1.0000000000000009e-2" y="-2.5522575204071304e-2" height="1.0000000000000002e-2"/></g><g fill="rgb(84%, 71%, 71%)" stroke="rgb(12%, 47%, 71%)" stroke-width="0.0" fill-opacity="1.0" stroke-opacity="1.0"><rect x="0.3195975105516403" width="1.0000000000000009e-2" y="-5.35590496569831e-2" height="9.999999999999995e-3"/></g><g fill="rgb(84%, 71%, 68%)" stroke="rgb(12%, 47%, 71%)" stroke-width="0.0" fill-opacity="1.0" stroke-opacity="1.0"><rect x="0.2985339387774719" width="1.0000000000000009e-2" y="-7.885111864884026e-2" height="1.0000000000000009e-2"/></g><g fill="rgb(83%, 72%, 65%)" stroke="rgb(12%, 47%, 71%)" stroke-width="0.0" fill-opacity="1.0" stroke-opacity="1.0"><rect x="0.26572665658529215" width="1.0000000000000009e-2" y="-9.892301824651273e-2" height="1.0000000000000009e-2"/></g><g fill="rgb(81%, 73%, 64%)" stroke="rgb(12%, 47%, 71%)" stroke-width="0.0" fill-opacity="1.0" stroke-opacity="1.0"><rect x="0.22438706933784736" width="1.0000000000000009e-2" y="-0.11180997106823276" height="1.0000000000000009e-2"/></g><g fill="rgb(78%, 74%, 63%)" stroke="rgb(12%, 47%, 71%)" stroke-width="0.0" fill-opacity="1.0" stroke-opacity="1.0"><rect x="0.1785617838647583" width="1.0000000000000009e-2" y="-0.11625051238313033" height="1.0000000000000009e-2"/></g><g fill="rgb(75%, 75%, 64%)" stroke="rgb(12%, 47%, 71%)" stroke-width="0.0" fill-opacity="1.0" stroke-opacity="1.0"><rect x="0.13273649839166946" width="1.0000000000000009e-2" y="-0.11180997106823276" height="1.0000000000000009e-2"/></g><g fill="rgb(72%, 76%, 66%)" stroke="rgb(12%, 47%, 71%)" stroke-width="0.0" fill-opacity="1.0" stroke-opacity="1.0"><rect x="9.139691114422444e-2" width="1.0000000000000009e-2" y="-9.892301824651273e-2" height="1.0000000000000009e-2"/></g><g fill="rgb(69%, 77%, 68%)" stroke="rgb(12%, 47%, 71%)" stroke-width="0.0" fill-opacity="1.0" stroke-opacity="1.0"><rect x="5.858962895204468e-2" width="1.0000000000000002e-2" y="-7.885111864884026e-2" height="1.0000000000000009e-2"/></g><g fill="rgb(66%, 78%, 71%)" stroke="rgb(12%, 47%, 71%)" stroke-width="0.0" fill-opacity="1.0" stroke-opacity="1.0"><rect x="3.752605717787617e-2" width="9.999999999999995e-3" y="-5.35590496569831e-2" height="9.999999999999995e-3"/></g><g fill="rgb(64%, 78%, 75%)" stroke="rgb(12%, 47%, 71%)" stroke-width="0.0" fill-opacity="1.0" stroke-opacity="1.0"><rect x="3.026804498550884e-2" width="9.999999999999998e-3" y="-2.5522575204071304e-2" height="1.0000000000000002e-2"/></g><g fill="rgb(63%, 78%, 78%)" stroke="rgb(12%, 47%, 71%)" stroke-width="0.0" fill-opacity="1.0" stroke-opacity="1.0"><rect x="3.752605717787617e-2" width="9.999999999999995e-3" y="2.5138992488406052e-3" height="1.0000000000000002e-2"/></g><g fill="rgb(63%, 77%, 81%)" stroke="rgb(12%, 47%, 71%)" stroke-width="0.0" fill-opacity="1.0" stroke-opacity="1.0"><rect x="5.858962895204468e-2" width="1.0000000000000002e-2" y="2.7805968240697646e-2" height="9.999999999999998e-3"/></g><g fill="rgb(65%, 76%, 83%)" stroke="rgb(12%, 47%, 71%)" stroke-width="0.0" fill-opacity="1.0" stroke-opacity="1.0"><rect x="9.139691114422444e-2" width="1.0000000000000009e-2" y="4.787786783837012e-2" height="9.999999999999995e-3"/></g><g fill="rgb(67%, 75%, 84%)" stroke="rgb(12%, 47%, 71%)" stroke-width="0.0" fill-opacity="1.0" stroke-opacity="1.0"><rect x="0.13273649839166923" width="1.0000000000000009e-2" y="6.076482066009021e-2" height="1.0000000000000002e-2"/></g><g fill="rgb(70%, 74%, 85%)" stroke="rgb(12%, 47%, 71%)" stroke-width="0.0" fill-opacity="1.0" stroke-opacity="1.0"><rect x="0.1785617838647583" width="1.0000000000000009e-2" y="6.520536197498777e-2" height="1.0000000000000009e-2"/></g><g fill="rgb(74%, 73%, 84%)" stroke="rgb(12%, 47%, 71%)" stroke-width="0.0" fill-opacity="1.0" stroke-opacity="1.0"><rect x="0.22438706933784702" width="1.0000000000000009e-2" y="6.076482066009021e-2" height="1.0000000000000002e-2"/></g><g fill="rgb(77%, 72%, 83%)" stroke="rgb(12%, 47%, 71%)" stroke-width="0.0" fill-opacity="1.0" stroke-opacity="1.0"><rect x="0.26572665658529215" width="1.0000000000000009e-2" y="4.787786783837012e-2" height="9.999999999999995e-3"/></g><g fill="rgb(80%, 71%, 80%)" stroke="rgb(12%, 47%, 71%)" stroke-width="0.0" fill-opacity="1.0" stroke-opacity="1.0"><rect x="0.2985339387774719" width="1.0000000000000009e-2" y="2.7805968240697646e-2" height="9.999999999999998e-3"/></g><g fill="rgb(82%, 71%, 77%)" stroke="rgb(12%, 47%, 71%)" stroke-width="0.0" fill-opacity="1.0" stroke-opacity="1.0"><rect x="0.3195975105516403" width="1.0000000000000009e-2" y="2.5138992488406052e-3" height="1.0000000000000002e-2"/></g><g fill="rgb(88%, 68%, 74%)" stroke="rgb(12%, 47%, 71%)" stroke-width="0.0" fill-opacity="1.0" stroke-opacity="1.0"><rect x="0.4010023921836322" width="1.0000000000000009e-2" y="-2.5522575204071304e-2" height="1.0000000000000002e-2"/></g><g fill="rgb(89%, 69%, 69%)" stroke="rgb(12%, 47%, 71%)" stroke-width="0.0" fill-opacity="1.0" stroke-opacity="1.0"><rect x="0.39011537389508144" width="1.0000000000000009e-2" y="-6.757728688343911e-2" height="1.0000000000000002e-2"/></g><g fill="rgb(88%, 69%, 64%)" stroke="rgb(12%, 47%, 71%)" stroke-width="0.0" fill-opacity="1.0" stroke-opacity="1.0"><rect x="0.3585200162338288" width="1.0000000000000009e-2" y="-0.1055153903712246" height="1.0000000000000009e-2"/></g><g fill="rgb(87%, 71%, 60%)" stroke="rgb(12%, 47%, 71%)" stroke-width="0.0" fill-opacity="1.0" stroke-opacity="1.0"><rect x="0.30930909294555897" width="1.0000000000000009e-2" y="-0.13562323976773338" height="1.0000000000000009e-2"/></g><g fill="rgb(84%, 72%, 58%)" stroke="rgb(12%, 47%, 71%)" stroke-width="0.0" fill-opacity="1.0" stroke-opacity="1.0"><rect x="0.2472997120743915" width="1.0000000000000009e-2" y="-0.1549536690003135" height="1.0000000000000009e-2"/></g><g fill="rgb(80%, 74%, 57%)" stroke="rgb(12%, 47%, 71%)" stroke-width="0.0" fill-opacity="1.0" stroke-opacity="1.0"><rect x="0.1785617838647583" width="1.0000000000000009e-2" y="-0.16161448097265985" height="1.0000000000000009e-2"/></g><g fill="rgb(76%, 76%, 58%)" stroke="rgb(12%, 47%, 71%)" stroke-width="0.0" fill-opacity="1.0" stroke-opacity="1.0"><rect x="0.10982385565512487" width="1.0000000000000009e-2" y="-0.1549536690003135" height="1.0000000000000009e-2"/></g><g fill="rgb(71%, 77%, 61%)" stroke="rgb(12%, 47%, 71%)" stroke-width="0.0" fill-opacity="1.0" stroke-opacity="1.0"><rect x="4.7814474783957624e-2" width="9.999999999999995e-3" y="-0.13562323976773338" height="1.0000000000000009e-2"/></g><g fill="rgb(66%, 79%, 65%)" stroke="rgb(12%, 47%, 71%)" stroke-width="0.0" fill-opacity="1.0" stroke-opacity="1.0"><rect x="-1.3964485043123044e-3" width="1.0000000000000002e-2" y="-0.1055153903712246" height="1.0000000000000009e-2"/></g><g fill="rgb(61%, 79%, 70%)" stroke="rgb(12%, 47%, 71%)" stroke-width="0.0" fill-opacity="1.0" stroke-opacity="1.0"><rect x="-3.299180616556507e-2" width="9.999999999999998e-3" y="-6.757728688343911e-2" height="1.0000000000000002e-2"/></g><g fill="rgb(58%, 80%, 75%)" stroke="rgb(12%, 47%, 71%)" stroke-width="0.0" fill-opacity="1.0" stroke-opacity="1.0"><rect x="-4.387882445411583e-2" width="9.999999999999995e-3" y="-2.5522575204071304e-2" height="1.0000000000000002e-2"/></g><g fill="rgb(56%, 79%, 80%)" stroke="rgb(12%, 47%, 71%)" stroke-width="0.0" fill-opacity="1.0" stroke-opacity="1.0"><rect x="-3.299180616556507e-2" width="9.999999999999998e-3" y="1.6532136475296447e-2" height="1.0000000000000002e-2"/></g><g fill="rgb(57%, 78%, 84%)" stroke="rgb(12%, 47%, 71%)" stroke-width="0.0" fill-opacity="1.0" stroke-opacity="1.0"><rect x="-1.3964485043123044e-3" width="1.0000000000000002e-2" y="5.447023996308204e-2" height="1.0000000000000002e-2"/></g><g fill="rgb(60%, 77%, 87%)" stroke="rgb(12%, 47%, 71%)" stroke-width="0.0" fill-opacity="1.0" stroke-opacity="1.0"><rect x="4.7814474783957624e-2" width="9.999999999999995e-3" y="8.457808935959077e-2" height="1.0000000000000009e-2"/></g><g fill="rgb(64%, 76%, 89%)" stroke="rgb(12%, 47%, 71%)" stroke-width="0.0" fill-opacity="1.0" stroke-opacity="1.0"><rect x="0.10982385565512487" width="1.0000000000000009e-2" y="0.10390851859217082" height="1.0000000000000009e-2"/></g><g fill="rgb(68%, 74%, 90%)" stroke="rgb(12%, 47%, 71%)" stroke-width="0.0" fill-opacity="1.0" stroke-opacity="1.0"><rect x="0.1785617838647583" width="1.0000000000000009e-2" y="0.11056933056451729" height="1.0000000000000009e-2"/></g><g fill="rgb(73%, 72%, 89%)" stroke="rgb(12%, 47%, 71%)" stroke-width="0.0" fill-opacity="1.0" stroke-opacity="1.0"><rect x="0.2472997120743915" width="1.0000000000000009e-2" y="0.10390851859217087" height="1.0000000000000009e-2"/></g><g fill="rgb(78%, 71%, 87%)" stroke="rgb(12%, 47%, 71%)" stroke-width="0.0" fill-opacity="1.0" stroke-opacity="1.0"><rect x="0.30930909294555897" width="1.0000000000000009e-2" y="8.457808935959077e-2" height="1.0000000000000009e-2"/></g><g fill="rgb(82%, 69%, 83%)" stroke="rgb(12%, 47%, 71%)" stroke-width="0.0" fill-opacity="1.0" stroke-opacity="1.0"><rect x="0.3585200162338288" width="1.0000000000000009e-2" y="5.44702399630821e-2" height="1.0000000000000002e-2"/></g><g fill="rgb(85%, 69%, 79%)" stroke="rgb(12%, 47%, 71%)" stroke-width="0.0" fill-opacity="1.0" stroke-opacity="1.0"><rect x="0.39011537389508144" width="1.0000000000000009e-2" y="1.6532136475296503e-2" height="1.0000000000000002e-2"/></g><g fill="rgb(92%, 66%, 73%)" stroke="rgb(12%, 47%, 71%)" stroke-width="0.0" fill-opacity="1.0" stroke-opacity="1.0"><rect x="0.475149261623257" width="1.0000000000000009e-2" y="-2.5522575204071304e-2" height="1.0000000000000002e-2"/></g><g fill="rgb(93%, 66%, 67%)" stroke="rgb(12%, 47%, 71%)" stroke-width="0.0" fill-opacity="1.0" stroke-opacity="1.0"><rect x="0.4606332372385228" width="1.0000000000000009e-2" y="-8.159552410989507e-2" height="1.0000000000000009e-2"/></g><g fill="rgb(93%, 67%, 60%)" stroke="rgb(12%, 47%, 71%)" stroke-width="0.0" fill-opacity="1.0" stroke-opacity="1.0"><rect x="0.41850609369018577" width="1.0000000000000009e-2" y="-0.1321796620936091" height="1.0000000000000009e-2"/></g><g fill="rgb(91%, 69%, 55%)" stroke="rgb(12%, 47%, 71%)" stroke-width="0.0" fill-opacity="1.0" stroke-opacity="1.0"><rect x="0.3528915293058259" width="1.0000000000000009e-2" y="-0.17232346128895415" height="1.0000000000000009e-2"/></g><g fill="rgb(87%, 71%, 52%)" stroke="rgb(12%, 47%, 71%)" stroke-width="0.0" fill-opacity="1.0" stroke-opacity="1.0"><rect x="0.2702123548109362" width="1.0000000000000009e-2" y="-0.19809736693239421" height="1.0000000000000009e-2"/></g><g fill="rgb(82%, 74%, 51%)" stroke="rgb(12%, 47%, 71%)" stroke-width="0.0" fill-opacity="1.0" stroke-opacity="1.0"><rect x="0.1785617838647583" width="1.0000000000000009e-2" y="-0.20697844956218936" height="1.0000000000000009e-2"/></g><g fill="rgb(76%, 76%, 52%)" stroke="rgb(12%, 47%, 71%)" stroke-width="0.0" fill-opacity="1.0" stroke-opacity="1.0"><rect x="8.69112129185804e-2" width="1.0000000000000009e-2" y="-0.19809736693239421" height="1.0000000000000009e-2"/></g><g fill="rgb(69%, 78%, 56%)" stroke="rgb(12%, 47%, 71%)" stroke-width="0.0" fill-opacity="1.0" stroke-opacity="1.0"><rect x="4.2320384236908025e-3" width="1.0000000000000002e-2" y="-0.17232346128895415" height="1.0000000000000009e-2"/></g><g fill="rgb(62%, 80%, 62%)" stroke="rgb(12%, 47%, 71%)" stroke-width="0.0" fill-opacity="1.0" stroke-opacity="1.0"><rect x="-6.138252596066906e-2" width="9.999999999999995e-3" y="-0.1321796620936091" height="1.0000000000000009e-2"/></g><g fill="rgb(56%, 81%, 68%)" stroke="rgb(12%, 47%, 71%)" stroke-width="0.0" fill-opacity="1.0" stroke-opacity="1.0"><rect x="-0.1035096695090062" width="1.0000000000000009e-2" y="-8.159552410989507e-2" height="1.0000000000000009e-2"/></g><g fill="rgb(51%, 81%, 75%)" stroke="rgb(12%, 47%, 71%)" stroke-width="0.0" fill-opacity="1.0" stroke-opacity="1.0"><rect x="-0.11802569389374062" width="1.0000000000000009e-2" y="-2.5522575204071304e-2" height="1.0000000000000002e-2"/></g><g fill="rgb(49%, 81%, 82%)" stroke="rgb(12%, 47%, 71%)" stroke-width="0.0" fill-opacity="1.0" stroke-opacity="1.0"><rect x="-0.1035096695090062" width="1.0000000000000009e-2" y="3.0550373701752457e-2" height="9.999999999999998e-3"/></g><g fill="rgb(50%, 80%, 87%)" stroke="rgb(12%, 47%, 71%)" stroke-width="0.0" fill-opacity="1.0" stroke-opacity="1.0"><rect x="-6.138252596066906e-2" width="9.999999999999995e-3" y="8.113451168546643e-2" height="1.0000000000000009e-2"/></g><g fill="rgb(54%, 78%, 92%)" stroke="rgb(12%, 47%, 71%)" stroke-width="0.0" fill-opacity="1.0" stroke-opacity="1.0"><rect x="4.2320384236906915e-3" width="1.0000000000000002e-2" y="0.12127831088081154" height="1.0000000000000009e-2"/></g><g fill="rgb(60%, 76%, 94%)" stroke="rgb(12%, 47%, 71%)" stroke-width="0.0" fill-opacity="1.0" stroke-opacity="1.0"><rect x="8.691121291858028e-2" width="1.0000000000000009e-2" y="0.1470522165242516" height="1.0000000000000009e-2"/></g><g fill="rgb(66%, 74%, 95%)" stroke="rgb(12%, 47%, 71%)" stroke-width="0.0" fill-opacity="1.0" stroke-opacity="1.0"><rect x="0.17856178386475818" width="1.0000000000000009e-2" y="0.15593329915404683" height="1.0000000000000009e-2"/></g><g fill="rgb(73%, 71%, 94%)" stroke="rgb(12%, 47%, 71%)" stroke-width="0.0" fill-opacity="1.0" stroke-opacity="1.0"><rect x="0.270212354810936" width="1.0000000000000009e-2" y="0.1470522165242516" height="1.0000000000000009e-2"/></g><g fill="rgb(79%, 69%, 91%)" stroke="rgb(12%, 47%, 71%)" stroke-width="0.0" fill-opacity="1.0" stroke-opacity="1.0"><rect x="0.3528915293058257" width="1.0000000000000009e-2" y="0.12127831088081154" height="1.0000000000000009e-2"/></g><g fill="rgb(85%, 68%, 86%)" stroke="rgb(12%, 47%, 71%)" stroke-width="0.0" fill-opacity="1.0" stroke-opacity="1.0"><rect x="0.41850609369018577" width="1.0000000000000009e-2" y="8.113451168546654e-2" height="1.0000000000000009e-2"/></g><g fill="rgb(89%, 67%, 80%)" stroke="rgb(12%, 47%, 71%)" stroke-width="0.0" fill-opacity="1.0" stroke-opacity="1.0"><rect x="0.4606332372385228" width="1.0000000000000009e-2" y="3.0550373701752512e-2" height="9.999999999999998e-3"/></g><g fill="rgb(95%, 64%, 73%)" stroke="rgb(12%, 47%, 71%)" stroke-width="0.0" fill-opacity="1.0" stroke-opacity="1.0"><rect x="0.549296131062882" width="1.0000000000000009e-2" y="-2.5522575204071304e-2" height="1.0000000000000002e-2"/></g><g fill="rgb(97%, 64%, 65%)" stroke="rgb(12%, 47%, 71%)" stroke-width="0.0" fill-opacity="1.0" stroke-opacity="1.0"><rect x="0.5311511005819637" width="1.0000000000000009e-2" y="-9.561376133635091e-2" height="1.0000000000000009e-2"/></g><g fill="rgb(97%, 65%, 57%)" stroke="rgb(12%, 47%, 71%)" stroke-width="0.0" fill-opacity="1.0" stroke-opacity="1.0"><rect x="0.4784921711465423" width="1.0000000000000009e-2" y="-0.1588439338159935" height="1.0000000000000009e-2"/></g><g fill="rgb(94%, 68%, 50%)" stroke="rgb(12%, 47%, 71%)" stroke-width="0.0" fill-opacity="1.0" stroke-opacity="1.0"><rect x="0.3964739656660926" width="1.0000000000000009e-2" y="-0.2090236828101748" height="1.0000000000000009e-2"/></g><g fill="rgb(90%, 70%, 45%)" stroke="rgb(12%, 47%, 71%)" stroke-width="0.0" fill-opacity="1.0" stroke-opacity="1.0"><rect x="0.29312499754748045" width="1.0000000000000009e-2" y="-0.24124106486447483" height="1.0000000000000009e-2"/></g><g fill="rgb(84%, 73%, 44%)" stroke="rgb(12%, 47%, 71%)" stroke-width="0.0" fill-opacity="1.0" stroke-opacity="1.0"><rect x="0.1785617838647583" width="1.0000000000000009e-2" y="-0.252342418151719" height="1.0000000000000009e-2"/></g><g fill="rgb(77%, 76%, 46%)" stroke="rgb(12%, 47%, 71%)" stroke-width="0.0" fill-opacity="1.0" stroke-opacity="1.0"><rect x="6.399857018203592e-2" width="1.0000000000000009e-2" y="-0.24124106486447494" height="1.0000000000000009e-2"/></g><g fill="rgb(68%, 79%, 51%)" stroke="rgb(12%, 47%, 71%)" stroke-width="0.0" fill-opacity="1.0" stroke-opacity="1.0"><rect x="-3.935039793657601e-2" width="9.999999999999998e-3" y="-0.2090236828101748" height="1.0000000000000009e-2"/></g><g fill="rgb(59%, 81%, 58%)" stroke="rgb(12%, 47%, 71%)" stroke-width="0.0" fill-opacity="1.0" stroke-opacity="1.0"><rect x="-0.12136860341702599" width="1.0000000000000009e-2" y="-0.1588439338159935" height="1.0000000000000009e-2"/></g><g fill="rgb(50%, 82%, 67%)" stroke="rgb(12%, 47%, 71%)" stroke-width="0.0" fill-opacity="1.0" stroke-opacity="1.0"><rect x="-0.17402753285244715" width="1.0000000000000009e-2" y="-9.561376133635102e-2" height="1.0000000000000009e-2"/></g><g fill="rgb(43%, 83%, 75%)" stroke="rgb(12%, 47%, 71%)" stroke-width="0.0" fill-opacity="1.0" stroke-opacity="1.0"><rect x="-0.19217256333336535" width="1.0000000000000009e-2" y="-2.5522575204071304e-2" height="1.0000000000000002e-2"/></g><g fill="rgb(39%, 82%, 83%)" stroke="rgb(12%, 47%, 71%)" stroke-width="0.0" fill-opacity="1.0" stroke-opacity="1.0"><rect x="-0.17402753285244715" width="1.0000000000000009e-2" y="4.456861092820836e-2" height="9.999999999999995e-3"/></g><g fill="rgb(41%, 81%, 90%)" stroke="rgb(12%, 47%, 71%)" stroke-width="0.0" fill-opacity="1.0" stroke-opacity="1.0"><rect x="-0.12136860341702599" width="1.0000000000000009e-2" y="0.10779878340785087" height="1.0000000000000009e-2"/></g><g fill="rgb(47%, 79%, 96%)" stroke="rgb(12%, 47%, 71%)" stroke-width="0.0" fill-opacity="1.0" stroke-opacity="1.0"><rect x="-3.9350397936576235e-2" width="9.999999999999998e-3" y="0.15797853240203222" height="1.0000000000000009e-2"/></g><g fill="rgb(56%, 76%, 99%)" stroke="rgb(12%, 47%, 71%)" stroke-width="0.0" fill-opacity="1.0" stroke-opacity="1.0"><rect x="6.399857018203581e-2" width="1.0000000000000009e-2" y="0.19019591445633233" height="1.0000000000000009e-2"/></g><g fill="rgb(65%, 73%, 100%)" stroke="rgb(12%, 47%, 71%)" stroke-width="0.0" fill-opacity="1.0" stroke-opacity="1.0"><rect x="0.17856178386475818" width="1.0000000000000009e-2" y="0.20129726774357634" height="1.0000000000000009e-2"/></g><g fill="rgb(73%, 70%, 98%)" stroke="rgb(12%, 47%, 71%)" stroke-width="0.0" fill-opacity="1.0" stroke-opacity="1.0"><rect x="0.29312499754748045" width="1.0000000000000009e-2" y="0.19019591445633235" height="1.0000000000000009e-2"/></g><g fill="rgb(81%, 68%, 95%)" stroke="rgb(12%, 47%, 71%)" stroke-width="0.0" fill-opacity="1.0" stroke-opacity="1.0"><rect x="0.3964739656660926" width="1.0000000000000009e-2" y="0.15797853240203225" height="1.0000000000000009e-2"/></g><g fill="rgb(87%, 66%, 89%)" stroke="rgb(12%, 47%, 71%)" stroke-width="0.0" fill-opacity="1.0" stroke-opacity="1.0"><rect x="0.4784921711465423" width="1.0000000000000009e-2" y="0.10779878340785098" height="1.0000000000000009e-2"/></g><g fill="rgb(92%, 64%, 81%)" stroke="rgb(12%, 47%, 71%)" stroke-width="0.0" fill-opacity="1.0" stroke-opacity="1.0"><rect x="0.5311511005819637" width="1.0000000000000009e-2" y="4.456861092820847e-2" height="9.999999999999995e-3"/></g><g fill="rgb(99%, 61%, 73%)" stroke="rgb(12%, 47%, 71%)" stroke-width="0.0" fill-opacity="1.0" stroke-opacity="1.0"><rect x="0.6234430005025068" width="1.0000000000000009e-2" y="-2.5522575204071304e-2" height="1.0000000000000002e-2"/></g><g fill="rgb(98%, 66%, 44%)" stroke="rgb(12%, 47%, 71%)" stroke-width="0.0" fill-opacity="1.0" stroke-opacity="1.0"><rect x="0.44005640202635965" width="1.0000000000000009e-2" y="-0.24572390433139557" height="1.0000000000000009e-2"/></g><g fill="rgb(93%, 69%, 38%)" stroke="rgb(12%, 47%, 71%)" stroke-width="0.0" fill-opacity="1.0" stroke-opacity="1.0"><rect x="0.31603764028402515" width="1.0000000000000009e-2" y="-0.2843847627965558" height="1.0000000000000009e-2"/></g><g fill="rgb(86%, 73%, 36%)" stroke="rgb(12%, 47%, 71%)" stroke-width="0.0" fill-opacity="1.0" stroke-opacity="1.0"><rect x="0.1785617838647583" width="1.0000000000000009e-2" y="-0.2977063867412484" height="1.0000000000000009e-2"/></g><g fill="rgb(77%, 77%, 39%)" stroke="rgb(12%, 47%, 71%)" stroke-width="0.0" fill-opacity="1.0" stroke-opacity="1.0"><rect x="4.108592744549145e-2" width="9.999999999999995e-3" y="-0.2843847627965558" height="1.0000000000000009e-2"/></g><g fill="rgb(67%, 80%, 46%)" stroke="rgb(12%, 47%, 71%)" stroke-width="0.0" fill-opacity="1.0" stroke-opacity="1.0"><rect x="-8.293283429684306e-2" width="1.0000000000000009e-2" y="-0.24572390433139557" height="1.0000000000000009e-2"/></g><g fill="rgb(55%, 82%, 55%)" stroke="rgb(12%, 47%, 71%)" stroke-width="0.0" fill-opacity="1.0" stroke-opacity="1.0"><rect x="-0.18135468087338263" width="1.0000000000000009e-2" y="-0.185508205538378" height="1.0000000000000009e-2"/></g><g fill="rgb(43%, 84%, 65%)" stroke="rgb(12%, 47%, 71%)" stroke-width="0.0" fill-opacity="1.0" stroke-opacity="1.0"><rect x="-0.24454539619588822" width="1.0000000000000009e-2" y="-0.10963199856280703" height="1.0000000000000009e-2"/></g><g fill="rgb(32%, 84%, 75%)" stroke="rgb(12%, 47%, 71%)" stroke-width="0.0" fill-opacity="1.0" stroke-opacity="1.0"><rect x="-0.2663194327729901" width="1.0000000000000009e-2" y="-2.5522575204071415e-2" height="1.0000000000000002e-2"/></g><g fill="rgb(26%, 84%, 85%)" stroke="rgb(12%, 47%, 71%)" stroke-width="0.0" fill-opacity="1.0" stroke-opacity="1.0"><rect x="-0.24454539619588828" width="1.0000000000000009e-2" y="5.858684815466426e-2" height="1.0000000000000002e-2"/></g><g fill="rgb(30%, 82%, 94%)" stroke="rgb(12%, 47%, 71%)" stroke-width="0.0" fill-opacity="1.0" stroke-opacity="1.0"><rect x="-0.1813546808733828" width="1.0000000000000009e-2" y="0.13446305513023538" height="1.0000000000000009e-2"/></g><g fill="rgb(40%, 79%, 100%)" stroke="rgb(12%, 47%, 71%)" stroke-width="0.0" fill-opacity="1.0" stroke-opacity="1.0"><rect x="-8.293283429684317e-2" width="1.0000000000000009e-2" y="0.1946787539232529" height="1.0000000000000009e-2"/></g><g fill="rgb(82%, 66%, 98%)" stroke="rgb(12%, 47%, 71%)" stroke-width="0.0" fill-opacity="1.0" stroke-opacity="1.0"><rect x="0.44005640202635943" width="1.0000000000000009e-2" y="0.19467875392325293" height="1.0000000000000009e-2"/></g><g fill="rgb(89%, 64%, 92%)" stroke="rgb(12%, 47%, 71%)" stroke-width="0.0" fill-opacity="1.0" stroke-opacity="1.0"><rect x="0.5384782486028993" width="1.0000000000000009e-2" y="0.13446305513023543" height="1.0000000000000009e-2"/></g><g fill="rgb(95%, 62%, 83%)" stroke="rgb(12%, 47%, 71%)" stroke-width="0.0" fill-opacity="1.0" stroke-opacity="1.0"><rect x="0.6016689639254046" width="1.0000000000000009e-2" y="5.8586848154664424e-2" height="1.0000000000000002e-2"/></g><g fill="rgb(96%, 68%, 29%)" stroke="rgb(12%, 47%, 71%)" stroke-width="0.0" fill-opacity="1.0" stroke-opacity="1.0"><rect x="0.3389502830205696" width="1.0000000000000009e-2" y="-0.3275284607286364" height="1.0000000000000009e-2"/></g><g fill="rgb(88%, 73%, 26%)" stroke="rgb(12%, 47%, 71%)" stroke-width="0.0" fill-opacity="1.0" stroke-opacity="1.0"><rect x="0.1785617838647583" width="1.0000000000000009e-2" y="-0.3430703553307779" height="1.0000000000000009e-2"/></g><g fill="rgb(78%, 77%, 30%)" stroke="rgb(12%, 47%, 71%)" stroke-width="0.0" fill-opacity="1.0" stroke-opacity="1.0"><rect x="1.8173284708947083e-2" width="1.0000000000000002e-2" y="-0.3275284607286364" height="1.0000000000000009e-2"/></g><g fill="rgb(66%, 81%, 39%)" stroke="rgb(12%, 47%, 71%)" stroke-width="0.0" fill-opacity="1.0" stroke-opacity="1.0"><rect x="-0.12651527065710994" width="1.0000000000000009e-2" y="-0.2824241258526161" height="1.0000000000000009e-2"/></g><g fill="rgb(51%, 84%, 51%)" stroke="rgb(12%, 47%, 71%)" stroke-width="0.0" fill-opacity="1.0" stroke-opacity="1.0"><rect x="-0.24134075832973956" width="1.0000000000000009e-2" y="-0.21217247726076238" height="1.0000000000000009e-2"/></g><g fill="rgb(35%, 85%, 63%)" stroke="rgb(12%, 47%, 71%)" stroke-width="0.0" fill-opacity="1.0" stroke-opacity="1.0"><rect x="-0.3150632595393292" width="1.0000000000000009e-2" y="-0.12365023578926293" height="1.0000000000000009e-2"/></g><g fill="rgb(14%, 86%, 76%)" stroke="rgb(12%, 47%, 71%)" stroke-width="0.0" fill-opacity="1.0" stroke-opacity="1.0"><rect x="-0.34046630221261476" width="1.0000000000000009e-2" y="-2.5522575204071415e-2" height="1.0000000000000002e-2"/></g><g fill="rgb(8%, 83%, 97%)" stroke="rgb(12%, 47%, 71%)" stroke-width="0.0" fill-opacity="1.0" stroke-opacity="1.0"><rect x="-0.24134075832973956" width="1.0000000000000009e-2" y="0.16112732685261977" height="1.0000000000000009e-2"/></g><g fill="rgb(92%, 62%, 94%)" stroke="rgb(12%, 47%, 71%)" stroke-width="0.0" fill-opacity="1.0" stroke-opacity="1.0"><rect x="0.598464326059256" width="1.0000000000000009e-2" y="0.1611273268526198" height="1.0000000000000009e-2"/></g><g fill="rgb(98%, 60%, 84%)" stroke="rgb(12%, 47%, 71%)" stroke-width="0.0" fill-opacity="1.0" stroke-opacity="1.0"><rect x="0.6721868272688457" width="1.0000000000000009e-2" y="7.260508538112032e-2" height="1.0000000000000009e-2"/></g><g fill="rgb(99%, 67%, 17%)" stroke="rgb(12%, 47%, 71%)" stroke-width="0.0" fill-opacity="1.0" stroke-opacity="1.0"><rect x="0.3618629257571141" width="1.0000000000000009e-2" y="-0.3706721586607171" height="1.0000000000000009e-2"/></g><g fill="rgb(90%, 72%, 8%)" stroke="rgb(12%, 47%, 71%)" stroke-width="0.0" fill-opacity="1.0" stroke-opacity="1.0"><rect x="0.1785617838647583" width="1.0000000000000009e-2" y="-0.3884343239203075" height="1.0000000000000009e-2"/></g><g fill="rgb(79%, 77%, 18%)" stroke="rgb(12%, 47%, 71%)" stroke-width="0.0" fill-opacity="1.0" stroke-opacity="1.0"><rect x="-4.739358027597613e-3" width="1.0e-2" y="-0.3706721586607171" height="1.0000000000000009e-2"/></g><g fill="rgb(64%, 81%, 32%)" stroke="rgb(12%, 47%, 71%)" stroke-width="0.0" fill-opacity="1.0" stroke-opacity="1.0"><rect x="-0.1700977070173768" width="1.0000000000000009e-2" y="-0.319124347373837" height="1.0000000000000009e-2"/></g><g fill="rgb(47%, 85%, 47%)" stroke="rgb(12%, 47%, 71%)" stroke-width="0.0" fill-opacity="1.0" stroke-opacity="1.0"><rect x="-0.3013268357860964" width="1.0000000000000009e-2" y="-0.23883674898314688" height="1.0000000000000009e-2"/></g><g fill="rgb(23%, 87%, 62%)" stroke="rgb(12%, 47%, 71%)" stroke-width="0.0" fill-opacity="1.0" stroke-opacity="1.0"><rect x="-0.3855811228827704" width="1.0000000000000009e-2" y="-0.13766847301571883" height="1.0000000000000009e-2"/></g><g fill="rgb(94%, 60%, 97%)" stroke="rgb(12%, 47%, 71%)" stroke-width="0.0" fill-opacity="1.0" stroke-opacity="1.0"><rect x="0.6584504035156128" width="1.0000000000000009e-2" y="0.18779159857500424" height="1.0000000000000009e-2"/></g><g fill="rgb(63%, 82%, 23%)" stroke="rgb(12%, 47%, 71%)" stroke-width="0.0" fill-opacity="1.0" stroke-opacity="1.0"><rect x="-0.21368014337764374" width="1.0000000000000009e-2" y="-0.35582456889505776" height="1.0000000000000009e-2"/></g><g fill="rgb(42%, 86%, 43%)" stroke="rgb(12%, 47%, 71%)" stroke-width="0.0" fill-opacity="1.0" stroke-opacity="1.0"><rect x="-0.36131291324245324" width="1.0000000000000009e-2" y="-0.2655010207055313" height="1.0000000000000009e-2"/></g><g fill="rgb(96%, 57%, 100%)" stroke="rgb(12%, 47%, 71%)" stroke-width="0.0" fill-opacity="1.0" stroke-opacity="1.0"><rect x="0.7184364809719698" width="1.0000000000000009e-2" y="0.21445587029738872" height="1.0000000000000009e-2"/></g><g fill="rgb(62%, 83%, 7%)" stroke="rgb(12%, 47%, 71%)" stroke-width="0.0" fill-opacity="1.0" stroke-opacity="1.0"><rect x="-0.2572625797379105" width="1.0000000000000009e-2" y="-0.3925247904162783" height="1.0000000000000009e-2"/></g><g fill="rgb(37%, 87%, 38%)" stroke="rgb(12%, 47%, 71%)" stroke-width="0.0" fill-opacity="1.0" stroke-opacity="1.0"><rect x="-0.4212989906988101" width="1.0000000000000009e-2" y="-0.2921652924279158" height="1.0000000000000009e-2"/></g><g fill="rgb(30%, 88%, 33%)" stroke="rgb(12%, 47%, 71%)" stroke-width="0.0" fill-opacity="1.0" stroke-opacity="1.0"><rect x="-0.4812850681551668" width="1.0000000000000009e-2" y="-0.31882956415030017" height="1.0000000000000009e-2"/></g><g fill="rgb(21%, 89%, 27%)" stroke="rgb(12%, 47%, 71%)" stroke-width="0.0" fill-opacity="1.0" stroke-opacity="1.0"><rect x="-0.5412711456115237" width="1.0000000000000009e-2" y="-0.3454938358726847" height="1.0000000000000009e-2"/></g></g></g><g class="hud"><g class="frame"><g fill="rgb(100%, 100%, 100%)" stroke="rgb(0%, 0%, 0%)" stroke-width="0.0" fill-opacity="2.0e-2" stroke-opacity="0.0"><rect x="-0.5579069105314889" width="1.2975702151934327" y="-0.47416226109936654" height="0.7938694503167667"/></g></g><g class="axis"><g class="ticks"><g class="tickglyph"><g fill="rgb(5%, 5%, 5%)" stroke="rgb(5%, 5%, 5%)" stroke-width="4.0e-3" fill-opacity="0.4" stroke-opacity="0.4"><g transform="rotate(-90.0, -0.5838583148353576, 0.31970718921740016)"><polyline points="-0.5838583148353576,0.33470718921740017
-0.5838583148353576,0.30470718921740014"/></g><g transform="rotate(-90.0, -0.5838583148353576, 0.20629726774357635)"><polyline points="-0.5838583148353576,0.22129726774357633
-0.5838583148353576,0.19129726774357636"/></g><g transform="rotate(-90.0, -0.5838583148353576, 9.288734626975254e-2)"><polyline points="-0.5838583148353576,0.10788734626975253
-0.5838583148353576,7.788734626975254e-2"/></g><g transform="rotate(-90.0, -0.5838583148353576, -2.0522575204071303e-2)"><polyline points="-0.5838583148353576,-5.522575204071303e-3
-0.5838583148353576,-3.55225752040713e-2"/></g><g transform="rotate(-90.0, -0.5838583148353576, -0.13393249667789509)"><polyline points="-0.5838583148353576,-0.11893249667789509
-0.5838583148353576,-0.1489324966778951"/></g><g transform="rotate(-90.0, -0.5838583148353576, -0.24734241815171887)"><polyline points="-0.5838583148353576,-0.23234241815171885
-0.5838583148353576,-0.2623424181517189"/></g><g transform="rotate(-90.0, -0.5838583148353576, -0.3607523396255429)"><polyline points="-0.5838583148353576,-0.34575233962554286
-0.5838583148353576,-0.3757523396255429"/></g><g transform="rotate(-90.0, -0.5838583148353576, -0.47416226109936654)"><polyline points="-0.5838583148353576,-0.45916226109936653
-0.5838583148353576,-0.48916226109936656"/></g></g></g><g class="ticktext"><g fill="rgb(5%, 5%, 5%)" stroke="none" stroke-width="0.0" font-size="4.325234050644776e-2" fill-opacity="1.0" text-anchor="end"><text x="-0.615" y="0.3306228941592557">-0.15</text><text x="-0.615" y="0.21721297268543188">-0.10</text><text x="-0.615" y="0.1038030512116081">-0.050</text><text x="-0.615" y="-9.606870262215739e-3">0.0</text><text x="-0.615" y="-0.12301679173603952">0.050</text><text x="-0.615" y="-0.2364267132098633">0.10</text><text x="-0.615" y="-0.3498366346836872">0.15</text><text x="-0.615" y="-0.463246556157511">0.20</text></g></g><g class="ticklines"><g fill="none" stroke="rgb(5%, 5%, 5%)" stroke-width="5.0e-3" stroke-opacity="5.0e-2"><polyline points="-0.5579069105314889,0.31970718921740016
0.7396633046619439,0.31970718921740016"/><polyline points="-0.5579069105314889,0.20629726774357635
0.7396633046619439,0.20629726774357635"/><polyline points="-0.5579069105314889,9.288734626975254e-2
0.7396633046619439,9.288734626975254e-2"/><polyline points="-0.5579069105314889,-2.0522575204071303e-2
0.7396633046619439,-2.0522575204071303e-2"/><polyline points="-0.5579069105314889,-0.13393249667789509
0.7396633046619439,-0.13393249667789509"/><polyline points="-0.5579069105314889,-0.24734241815171887
0.7396633046619439,-0.24734241815171887"/><polyline points="-0.5579069105314889,-0.3607523396255429
0.7396633046619439,-0.3607523396255429"/><polyline points="-0.5579069105314889,-0.47416226109936654
0.7396633046619439,-0.47416226109936654"/></g></g></g><g class="axisbar"><g fill="rgb(5%, 5%, 5%)" stroke="rgb(0%, 0%, 0%)" stroke-width="0.0" fill-opacity="0.4" stroke-opacity="0.0"><rect x="-0.5700175658732943" width="3.4601872405158884e-3" y="-0.47575" height="0.7970449281180336"/></g></g></g><g class="axis"><g class="ticks"><g class="tickglyph"><g fill="rgb(5%, 5%, 5%)" stroke="rgb(5%, 5%, 5%)" stroke-width="4.0e-3" fill-opacity="0.4" stroke-opacity="0.4"><polyline points="-0.5579069105314889,0.3585232727269032
-0.5579069105314889,0.3285232727269032"/><polyline points="-0.37253973693242715,0.3585232727269032
-0.37253973693242715,0.3285232727269032"/><polyline points="-0.1871725633333653,0.3585232727269032
-0.1871725633333653,0.3285232727269032"/><polyline points="-1.805389734303442e-3,0.3585232727269032
-1.805389734303442e-3,0.3285232727269032"/><polyline points="0.1835617838647583,0.3585232727269032
0.1835617838647583,0.3285232727269032"/><polyline points="0.36892895746381993,0.3585232727269032
0.36892895746381993,0.3285232727269032"/><polyline points="0.554296131062882,0.3585232727269032
0.554296131062882,0.3285232727269032"/><polyline points="0.7396633046619439,0.3585232727269032
0.7396633046619439,0.3285232727269032"/></g></g><g class="ticktext"><g fill="rgb(5%, 5%, 5%)" stroke="none" stroke-width="0.0" font-size="4.325234050644776e-2" fill-opacity="1.0" text-anchor="end"><text x="-0.5579069105314889" y="0.39393398282201786" transform="rotate(-45.0, -0.5579069105314889, 0.39393398282201786)">-0.20</text><text x="-0.37253973693242715" y="0.39393398282201786" transform="rotate(-45.0, -0.37253973693242715, 0.39393398282201786)">-0.15</text><text x="-0.1871725633333653" y="0.39393398282201786" transform="rotate(-45.0, -0.1871725633333653, 0.39393398282201786)">-0.10</text><text x="-1.805389734303442e-3" y="0.39393398282201786" transform="rotate(-45.0, -1.805389734303442e-3, 0.39393398282201786)">-0.050</text><text x="0.1835617838647583" y="0.39393398282201786" transform="rotate(-45.0, 0.1835617838647583, 0.39393398282201786)">0.0</text><text x="0.36892895746381993" y="0.39393398282201786" transform="rotate(-45.0, 0.36892895746381993, 0.39393398282201786)">0.050</text><text x="0.554296131062882" y="0.39393398282201786" transform="rotate(-45.0, 0.554296131062882, 0.39393398282201786)">0.10</text><text x="0.7396633046619439" y="0.39393398282201786" transform="rotate(-45.0, 0.7396633046619439, 0.39393398282201786)">0.15</text></g></g><g class="ticklines"><g fill="none" stroke="rgb(5%, 5%, 5%)" stroke-width="5.0e-3" stroke-opacity="5.0e-2"><polyline points="-0.5579069105314889,0.31970718921740016
-0.5579069105314889,-0.47416226109936654"/><polyline points="-0.37253973693242715,0.31970718921740016
-0.37253973693242715,-0.47416226109936654"/><polyline points="-0.1871725633333653,0.31970718921740016
-0.1871725633333653,-0.47416226109936654"/><polyline points="-1.805389734303442e-3,0.31970718921740016
-1.805389734303442e-3,-0.47416226109936654"/><polyline points="0.1835617838647583,0.31970718921740016
0.1835617838647583,-0.47416226109936654"/><polyline points="0.36892895746381993,0.31970718921740016
0.36892895746381993,-0.47416226109936654"/><polyline points="0.554296131062882,0.31970718921740016
0.554296131062882,-0.47416226109936654"/><polyline points="0.7396633046619439,0.31970718921740016
0.7396633046619439,-0.47416226109936654"/></g></g></g><g class="axisbar"><g fill="rgb(5%, 5%, 5%)" stroke="rgb(0%, 0%, 0%)" stroke-width="0.0" fill-opacity="0.4" stroke-opacity="0.0"><rect x="-0.5596370041517468" width="1.3010304024339483" y="0.3276458837205678" height="3.1754778012670903e-3"/></g></g></g></g></svg>