<svg xmlns="http://www.w3.org/2000/svg" height="300.0" viewBox="-0.7350117725261881 -0.49660815277324466 1.4841291778485841 0.9946097224434031" width="447.65172037609045" xmlns:xlink="http://www.w3.org/1999/xlink"><style>svg {
  color-scheme: light dark;
}
{
  .canvas g, .title g, .axisbar g, .ticktext g, .tickglyph g, .ticklines g, .legendContent g text {
    fill: #0d0d0d;
  }
  .ticklines g, .tickglyph g, .legendBorder g {
    stroke: #0d0d0d;
  }
}
@media (prefers-color-scheme:dark) {
  .canvas g, .title g, .axisbar g, .ticktext g, .tickglyph g, .ticklines g, .legendContent g text {
    fill: #f0f0f0;
  }
  .ticklines g, .tickglyph g, .legendBorder g {
    stroke: #f0f0f0;
  }
}</style><g class="chart"><g class="dots"><g stroke-opacity="1.0" fill-opacity="1.0" stroke="#808080" stroke-width="3.0e-3" fill="#b304f2"><circle cy="0.33389489966768027" r="4.0e-2" cx="0.7074043312321538"/></g><g stroke-opacity="1.0" fill-opacity="1.0" stroke="#808080" stroke-width="3.0e-3" fill="#2a119f"><circle cy="0.30910443563215473" r="4.0e-2" cx="0.19948837602273506"/></g><g stroke-opacity="1.0" fill-opacity="1.0" stroke="#808080" stroke-width="3.0e-3" fill="#e6df00"><circle cy="-0.4360907904861936" r="4.0e-2" cx="-2.1840411101587187e-2"/></g><g stroke-opacity="1.0" fill-opacity="1.0" stroke="#808080" stroke-width="3.0e-3" fill="#d3ac00"><circle cy="-0.38622417813896126" r="4.0e-2" cx="0.12245782964038021"/></g></g><g class="wheel"><g stroke-opacity="1.0" fill-opacity="1.0" stroke="#1f78b5" stroke-width="0.0" fill="#bebebd"><rect height="1.0000000000000009e-2" width="1.0000000000000009e-2" x="0.13701633266860946" y="-8.921964856230036e-2"/></g><g stroke-opacity="1.0" fill-opacity="1.0" stroke="#1f78b5" stroke-width="0.0" fill="#bebebd"><rect height="1.0000000000000009e-2" width="1.0000000000000009e-2" x="0.13701633266860946" y="-8.921964856230036e-2"/></g><g stroke-opacity="1.0" fill-opacity="1.0" stroke="#1f78b5" stroke-width="0.0" fill="#bebebd"><rect height="1.0000000000000009e-2" width="1.0000000000000009e-2" x="0.13701633266860946" y="-8.921964856230036e-2"/></g><g stroke-opacity="1.0" fill-opacity="1.0" stroke="#1f78b5" stroke-width="0.0" fill="#bebebd"><rect height="1.0000000000000009e-2" width="1.0000000000000009e-2" x="0.13701633266860946" y="-8.921964856230036e-2"/></g><g stroke-opacity="1.0" fill-opacity="1.0" stroke="#1f78b5" stroke-width="0.0" fill="#bebebd"><rect height="1.0000000000000009e-2" width="1.0000000000000009e-2" x="0.13701633266860946" y="-8.921964856230036e-2"/></g><g stroke-opacity="1.0" fill-opacity="1.0" stroke="#1f78b5" stroke-width="0.0" fill="#bebebd"><rect height="1.0000000000000009e-2" width="1.0000000000000009e-2" x="0.13701633266860946" y="-8.921964856230036e-2"/></g><g stroke-opacity="1.0" fill-opacity="1.0" stroke="#1f78b5" stroke-width="0.0" fill="#bebebd"><rect height="1.0000000000000009e-2" width="1.0000000000000009e-2" x="0.13701633266860946" y="-8.921964856230036e-2"/></g><g stroke-opacity="1.0" fill-opacity="1.0" stroke="#1f78b5" stroke-width="0.0" fill="#bebebd"><rect height="1.0000000000000009e-2" width="1.0000000000000009e-2" x="0.13701633266860946" y="-8.921964856230036e-2"/></g><g stroke-opacity="1.0" fill-opacity="1.0" stroke="#1f78b5" stroke-width="0.0" fill="#bebebd"><rect height="1.0000000000000009e-2" width="1.0000000000000009e-2" x="0.13701633266860946" y="-8.921964856230036e-2"/></g><g stroke-opacity="1.0" fill-opacity="1.0" stroke="#1f78b5" stroke-width="0.0" fill="#bebebd"><rect height="1.0000000000000009e-2" width="1.0000000000000009e-2" x="0.13701633266860946" y="-8.921964856230036e-2"/></g><g stroke-opacity="1.0" fill-opacity="1.0" stroke="#1f78b5" stroke-width="0.0" fill="#bebebd"><rect height="1.0000000000000009e-2" width="1.0000000000000009e-2" x="0.13701633266860946" y="-8.921964856230036e-2"/></g><g stroke-opacity="1.0" fill-opacity="1.0" stroke="#1f78b5" stroke-width="0.0" fill="#bebebd"><rect height="1.0000000000000009e-2" width="1.0000000000000009e-2" x="0.13701633266860946" y="-8.921964856230036e-2"/></g><g stroke-opacity="1.0" fill-opacity="1.0" stroke="#1f78b5" stroke-width="0.0" fill="#bebebd"><rect height="1.0000000000000009e-2" width="1.0000000000000009e-2" x="0.13701633266860946" y="-8.921964856230036e-2"/></g><g stroke-opacity="1.0" fill-opacity="1.0" stroke="#1f78b5" stroke-width="0.0" fill="#bebebd"><rect height="1.0000000000000009e-2" width="1.0000000000000009e-2" x="0.13701633266860946" y="-8.921964856230036e-2"/></g><g stroke-opacity="1.0" fill-opacity="1.0" stroke="#1f78b5" stroke-width="0.0" fill="#bebebd"><rect height="1.0000000000000009e-2" width="1.0000000000000009e-2" x="0.13701633266860946" y="-8.921964856230036e-2"/></g><g stroke-opacity="1.0" fill-opacity="1.0" stroke="#1f78b5" stroke-width="0.0" fill="#bebebd"><rect height="1.0000000000000009e-2" width="1.0000000000000009e-2" x="0.13701633266860946" y="-8.921964856230036e-2"/></g><g stroke-opacity="1.0" fill-opacity="1.0" stroke="#1f78b5" stroke-width="0.0" fill="#bebebd"><rect height="1.0000000000000009e-2" width="1.0000000000000009e-2" x="0.13701633266860946" y="-8.921964856230036e-2"/></g><g stroke-opacity="1.0" fill-opacity="1.0" stroke="#1f78b5" stroke-width="0.0" fill="#bebebd"><rect height="1.0000000000000009e-2" width="1.0000000000000009e-2" x="0.13701633266860946" y="-8.921964856230036e-2"/></g><g stroke-opacity="1.0" fill-opacity="1.0" stroke="#1f78b5" stroke-width="0.0" fill="#bebebd"><rect height="1.0000000000000009e-2" width="1.0000000000000009e-2" x="0.13701633266860946" y="-8.921964856230036e-2"/></g><g stroke-opacity="1.0" fill-opacity="1.0" stroke="#1f78b5" stroke-width="0.0" fill="#bebebd"><rect height="1.0000000000000009e-2" width="1.0000000000000009e-2" x="0.13701633266860946" y="-8.921964856230036e-2"/></g><g stroke-opacity="1.0" fill-opacity="1.0" stroke="#1f78b5" stroke-width="0.0" fill="#c7babd"><rect height="1.0000000000000009e-2" width="1.0000000000000009e-2" x="0.1803548982358042" y="-8.921964856230036e-2"/></g><g stroke-opacity="1.0" fill-opacity="1.0" stroke="#1f78b5" stroke-width="0.0" fill="#c7baba"><rect height="1.0000000000000009e-2" width="1.0000000000000009e-2" x="0.17823375785817486" y="-9.825321245537e-2"/></g><g stroke-opacity="1.0" fill-opacity="1.0" stroke="#1f78b5" stroke-width="0.0" fill="#c7bbb7"><rect height="1.0000000000000009e-2" width="1.0000000000000009e-2" x="0.17207796872430292" y="-0.10640250817404517"/></g><g stroke-opacity="1.0" fill-opacity="1.0" stroke="#1f78b5" stroke-width="0.0" fill="#c6bbb5"><rect height="1.0000000000000009e-2" width="1.0000000000000009e-2" x="0.162490102364517" y="-0.11286982587390038"/></g><g stroke-opacity="1.0" fill-opacity="1.0" stroke="#1f78b5" stroke-width="0.0" fill="#c4bcb3"><rect height="1.0000000000000009e-2" width="1.0000000000000009e-2" x="0.15040868594070567" y="-0.11702209943802133"/></g><g stroke-opacity="1.0" fill-opacity="1.0" stroke="#1f78b5" stroke-width="0.0" fill="#c1bdb3"><rect height="1.0000000000000009e-2" width="1.0000000000000009e-2" x="0.13701633266860946" y="-0.11845287539936111"/></g><g stroke-opacity="1.0" fill-opacity="1.0" stroke="#1f78b5" stroke-width="0.0" fill="#bebfb4"><rect height="1.0000000000000009e-2" width="1.0000000000000009e-2" x="0.12362397939651337" y="-0.11702209943802133"/></g><g stroke-opacity="1.0" fill-opacity="1.0" stroke="#1f78b5" stroke-width="0.0" fill="#bbc0b5"><rect height="1.0000000000000009e-2" width="1.0000000000000009e-2" x="0.11154256297270204" y="-0.11286982587390038"/></g><g stroke-opacity="1.0" fill-opacity="1.0" stroke="#1f78b5" stroke-width="0.0" fill="#b8c0b8"><rect height="1.0000000000000009e-2" width="1.0000000000000009e-2" x="0.10195469661291612" y="-0.10640250817404517"/></g><g stroke-opacity="1.0" fill-opacity="1.0" stroke="#1f78b5" stroke-width="0.0" fill="#b6c1bb"><rect height="1.0000000000000009e-2" width="1.0000000000000009e-2" x="9.579890747904429e-2" y="-9.825321245537e-2"/></g><g stroke-opacity="1.0" fill-opacity="1.0" stroke="#1f78b5" stroke-width="0.0" fill="#b4c1be"><rect height="1.0000000000000009e-2" width="1.0000000000000009e-2" x="9.367776710141484e-2" y="-8.921964856230036e-2"/></g><g stroke-opacity="1.0" fill-opacity="1.0" stroke="#1f78b5" stroke-width="0.0" fill="#b3c1c1"><rect height="1.0000000000000009e-2" width="1.0000000000000009e-2" x="9.579890747904429e-2" y="-8.018608466923094e-2"/></g><g stroke-opacity="1.0" fill-opacity="1.0" stroke="#1f78b5" stroke-width="0.0" fill="#b4c0c4"><rect height="1.0000000000000002e-2" width="1.0000000000000009e-2" x="0.10195469661291612" y="-7.203678895055565e-2"/></g><g stroke-opacity="1.0" fill-opacity="1.0" stroke="#1f78b5" stroke-width="0.0" fill="#b5c0c6"><rect height="1.0000000000000002e-2" width="1.0000000000000009e-2" x="0.11154256297270193" y="-6.556947125070045e-2"/></g><g stroke-opacity="1.0" fill-opacity="1.0" stroke="#1f78b5" stroke-width="0.0" fill="#b7bfc7"><rect height="9.999999999999995e-3" width="1.0000000000000009e-2" x="0.12362397939651337" y="-6.141719768657949e-2"/></g><g stroke-opacity="1.0" fill-opacity="1.0" stroke="#1f78b5" stroke-width="0.0" fill="#babdc8"><rect height="9.999999999999995e-3" width="1.0000000000000009e-2" x="0.13701633266860946" y="-5.998642172523971e-2"/></g><g stroke-opacity="1.0" fill-opacity="1.0" stroke="#1f78b5" stroke-width="0.0" fill="#bdbcc7"><rect height="9.999999999999995e-3" width="1.0000000000000009e-2" x="0.15040868594070567" y="-6.141719768657949e-2"/></g><g stroke-opacity="1.0" fill-opacity="1.0" stroke="#1f78b5" stroke-width="0.0" fill="#c0bbc6"><rect height="1.0000000000000002e-2" width="1.0000000000000009e-2" x="0.162490102364517" y="-6.556947125070045e-2"/></g><g stroke-opacity="1.0" fill-opacity="1.0" stroke="#1f78b5" stroke-width="0.0" fill="#c3bbc3"><rect height="1.0000000000000002e-2" width="1.0000000000000009e-2" x="0.17207796872430292" y="-7.203678895055554e-2"/></g><g stroke-opacity="1.0" fill-opacity="1.0" stroke="#1f78b5" stroke-width="0.0" fill="#c5bac0"><rect height="1.0000000000000009e-2" width="1.0000000000000009e-2" x="0.17823375785817486" y="-8.018608466923094e-2"/></g><g stroke-opacity="1.0" fill-opacity="1.0" stroke="#1f78b5" stroke-width="0.0" fill="#cfb6bd"><rect height="1.0000000000000009e-2" width="1.0000000000000009e-2" x="0.22369346380299915" y="-8.921964856230036e-2"/></g><g stroke-opacity="1.0" fill-opacity="1.0" stroke="#1f78b5" stroke-width="0.0" fill="#d1b6b6"><rect height="1.0000000000000009e-2" width="1.0000000000000009e-2" x="0.21945118304774003" y="-0.10728677634843953"/></g><g stroke-opacity="1.0" fill-opacity="1.0" stroke="#1f78b5" stroke-width="0.0" fill="#d0b7b1"><rect height="1.0000000000000009e-2" width="1.0000000000000009e-2" x="0.20713960477999627" y="-0.1235853677857901"/></g><g stroke-opacity="1.0" fill-opacity="1.0" stroke="#1f78b5" stroke-width="0.0" fill="#ceb9ac"><rect height="1.0000000000000009e-2" width="1.0000000000000009e-2" x="0.18796387206042453" y="-0.13652000318550017"/></g><g stroke-opacity="1.0" fill-opacity="1.0" stroke="#1f78b5" stroke-width="0.0" fill="#cabba9"><rect height="1.0000000000000009e-2" width="1.0000000000000009e-2" x="0.16380103921280165" y="-0.1448245503137422"/></g><g stroke-opacity="1.0" fill-opacity="1.0" stroke="#1f78b5" stroke-width="0.0" fill="#c5bda8"><rect height="1.0000000000000009e-2" width="1.0000000000000009e-2" x="0.13701633266860946" y="-0.14768610223642187"/></g><g stroke-opacity="1.0" fill-opacity="1.0" stroke="#1f78b5" stroke-width="0.0" fill="#bfc0aa"><rect height="1.0000000000000009e-2" width="1.0000000000000009e-2" x="0.11023162612441739" y="-0.1448245503137422"/></g><g stroke-opacity="1.0" fill-opacity="1.0" stroke="#1f78b5" stroke-width="0.0" fill="#b9c2ad"><rect height="1.0000000000000009e-2" width="1.0000000000000009e-2" x="8.606879327679462e-2" y="-0.13652000318550017"/></g><g stroke-opacity="1.0" fill-opacity="1.0" stroke="#1f78b5" stroke-width="0.0" fill="#b3c3b2"><rect height="1.0000000000000009e-2" width="1.0000000000000009e-2" x="6.689306055722244e-2" y="-0.1235853677857901"/></g><g stroke-opacity="1.0" fill-opacity="1.0" stroke="#1f78b5" stroke-width="0.0" fill="#aec4b8"><rect height="1.0000000000000009e-2" width="1.0000000000000002e-2" x="5.458148228947891e-2" y="-0.10728677634843953"/></g><g stroke-opacity="1.0" fill-opacity="1.0" stroke="#1f78b5" stroke-width="0.0" fill="#aac4be"><rect height="1.0000000000000009e-2" width="9.999999999999995e-3" x="5.033920153422001e-2" y="-8.921964856230036e-2"/></g><g stroke-opacity="1.0" fill-opacity="1.0" stroke="#1f78b5" stroke-width="0.0" fill="#a8c4c5"><rect height="1.0000000000000002e-2" width="1.0000000000000002e-2" x="5.458148228947891e-2" y="-7.115252077616141e-2"/></g><g stroke-opacity="1.0" fill-opacity="1.0" stroke="#1f78b5" stroke-width="0.0" fill="#a9c3ca"><rect height="9.999999999999995e-3" width="1.0000000000000009e-2" x="6.689306055722244e-2" y="-5.485392933881072e-2"/></g><g stroke-opacity="1.0" fill-opacity="1.0" stroke="#1f78b5" stroke-width="0.0" fill="#acc1ce"><rect height="9.999999999999995e-3" width="1.0000000000000009e-2" x="8.606879327679462e-2" y="-4.191929393910054e-2"/></g><g stroke-opacity="1.0" fill-opacity="1.0" stroke="#1f78b5" stroke-width="0.0" fill="#b0bfd1"><rect height="9.999999999999998e-3" width="1.0000000000000009e-2" x="0.11023162612441739" y="-3.361474681085851e-2"/></g><g stroke-opacity="1.0" fill-opacity="1.0" stroke="#1f78b5" stroke-width="0.0" fill="#b6bdd2"><rect height="1.0000000000000002e-2" width="1.0000000000000009e-2" x="0.13701633266860946" y="-3.0753194888179066e-2"/></g><g stroke-opacity="1.0" fill-opacity="1.0" stroke="#1f78b5" stroke-width="0.0" fill="#bcbbd0"><rect height="9.999999999999998e-3" width="1.0000000000000009e-2" x="0.16380103921280165" y="-3.361474681085851e-2"/></g><g stroke-opacity="1.0" fill-opacity="1.0" stroke="#1f78b5" stroke-width="0.0" fill="#c2b9cd"><rect height="9.999999999999995e-3" width="1.0000000000000009e-2" x="0.1879638720604243" y="-4.191929393910054e-2"/></g><g stroke-opacity="1.0" fill-opacity="1.0" stroke="#1f78b5" stroke-width="0.0" fill="#c8b8c9"><rect height="9.999999999999995e-3" width="1.0000000000000009e-2" x="0.20713960477999627" y="-5.485392933881072e-2"/></g><g stroke-opacity="1.0" fill-opacity="1.0" stroke="#1f78b5" stroke-width="0.0" fill="#ccb7c3"><rect height="1.0000000000000002e-2" width="1.0000000000000009e-2" x="0.21945118304774003" y="-7.11525207761613e-2"/></g><g stroke-opacity="1.0" fill-opacity="1.0" stroke="#1f78b5" stroke-width="0.0" fill="#d7b2bc"><rect height="1.0000000000000009e-2" width="1.0000000000000009e-2" x="0.26703202937019377" y="-8.921964856230036e-2"/></g><g stroke-opacity="1.0" fill-opacity="1.0" stroke="#1f78b5" stroke-width="0.0" fill="#d9b3b3"><rect height="1.0000000000000009e-2" width="1.0000000000000009e-2" x="0.26066860823730553" y="-0.11632034024150895"/></g><g stroke-opacity="1.0" fill-opacity="1.0" stroke="#1f78b5" stroke-width="0.0" fill="#d9b4aa"><rect height="1.0000000000000009e-2" width="1.0000000000000009e-2" x="0.24220124083568995" y="-0.14076822739753492"/></g><g stroke-opacity="1.0" fill-opacity="1.0" stroke="#1f78b5" stroke-width="0.0" fill="#d6b7a3"><rect height="1.0000000000000009e-2" width="1.0000000000000009e-2" x="0.21343764175633184" y="-0.16017018049710008"/></g><g stroke-opacity="1.0" fill-opacity="1.0" stroke="#1f78b5" stroke-width="0.0" fill="#d0ba9f"><rect height="1.0000000000000009e-2" width="1.0000000000000009e-2" x="0.17719339248489785" y="-0.17262700118946328"/></g><g stroke-opacity="1.0" fill-opacity="1.0" stroke="#1f78b5" stroke-width="0.0" fill="#c9bd9d"><rect height="1.0000000000000009e-2" width="1.0000000000000009e-2" x="0.13701633266860946" y="-0.1769193290734825"/></g><g stroke-opacity="1.0" fill-opacity="1.0" stroke="#1f78b5" stroke-width="0.0" fill="#c0c09f"><rect height="1.0000000000000009e-2" width="1.0000000000000009e-2" x="9.683927285232119e-2" y="-0.17262700118946328"/></g><g stroke-opacity="1.0" fill-opacity="1.0" stroke="#1f78b5" stroke-width="0.0" fill="#b6c3a4"><rect height="1.0000000000000009e-2" width="1.0000000000000002e-2" x="6.059502358088709e-2" y="-0.16017018049710008"/></g><g stroke-opacity="1.0" fill-opacity="1.0" stroke="#1f78b5" stroke-width="0.0" fill="#adc6ac"><rect height="1.0000000000000009e-2" width="9.999999999999995e-3" x="3.183142450152899e-2" y="-0.14076822739753492"/></g><g stroke-opacity="1.0" fill-opacity="1.0" stroke="#1f78b5" stroke-width="0.0" fill="#a5c7b5"><rect height="1.0000000000000009e-2" width="1.0000000000000002e-2" x="1.336405709991351e-2" y="-0.11632034024150906"/></g><g stroke-opacity="1.0" fill-opacity="1.0" stroke="#1f78b5" stroke-width="0.0" fill="#9fc8bf"><rect height="1.0000000000000009e-2" width="1.0000000000000002e-2" x="7.000635967025275e-3" y="-8.921964856230036e-2"/></g><g stroke-opacity="1.0" fill-opacity="1.0" stroke="#1f78b5" stroke-width="0.0" fill="#9dc7c8"><rect height="9.999999999999995e-3" width="1.0000000000000002e-2" x="1.336405709991351e-2" y="-6.211895688309176e-2"/></g><g stroke-opacity="1.0" fill-opacity="1.0" stroke="#1f78b5" stroke-width="0.0" fill="#9ec6d0"><rect height="9.999999999999998e-3" width="9.999999999999995e-3" x="3.183142450152899e-2" y="-3.76710697270659e-2"/></g><g stroke-opacity="1.0" fill-opacity="1.0" stroke="#1f78b5" stroke-width="0.0" fill="#a2c3d7"><rect height="1.0000000000000002e-2" width="1.0000000000000002e-2" x="6.059502358088709e-2" y="-1.826911662750069e-2"/></g><g stroke-opacity="1.0" fill-opacity="1.0" stroke="#1f78b5" stroke-width="0.0" fill="#a9c0da"><rect height="1.0e-2" width="1.0000000000000009e-2" x="9.683927285232119e-2" y="-5.812295935137597e-3"/></g><g stroke-opacity="1.0" fill-opacity="1.0" stroke="#1f78b5" stroke-width="0.0" fill="#b2bddc"><rect height="1.0000000000000002e-2" width="1.0000000000000009e-2" x="0.13701633266860946" y="-1.5199680511183656e-3"/></g><g stroke-opacity="1.0" fill-opacity="1.0" stroke="#1f78b5" stroke-width="0.0" fill="#bcbada"><rect height="1.0e-2" width="1.0000000000000009e-2" x="0.17719339248489774" y="-5.812295935137597e-3"/></g><g stroke-opacity="1.0" fill-opacity="1.0" stroke="#1f78b5" stroke-width="0.0" fill="#c5b7d5"><rect height="1.0000000000000002e-2" width="1.0000000000000009e-2" x="0.21343764175633184" y="-1.826911662750069e-2"/></g><g stroke-opacity="1.0" fill-opacity="1.0" stroke="#1f78b5" stroke-width="0.0" fill="#cdb4ce"><rect height="9.999999999999998e-3" width="1.0000000000000009e-2" x="0.24220124083568995" y="-3.76710697270659e-2"/></g><g stroke-opacity="1.0" fill-opacity="1.0" stroke="#1f78b5" stroke-width="0.0" fill="#d3b3c6"><rect height="9.999999999999995e-3" width="1.0000000000000009e-2" x="0.26066860823730553" y="-6.211895688309176e-2"/></g><g stroke-opacity="1.0" fill-opacity="1.0" stroke="#1f78b5" stroke-width="0.0" fill="#dfaebc"><rect height="1.0000000000000009e-2" width="1.0000000000000009e-2" x="0.3103705949373884" y="-8.921964856230036e-2"/></g><g stroke-opacity="1.0" fill-opacity="1.0" stroke="#1f78b5" stroke-width="0.0" fill="#e2afaf"><rect height="1.0000000000000009e-2" width="1.0000000000000009e-2" x="0.3018860334268707" y="-0.1253539041345786"/></g><g stroke-opacity="1.0" fill-opacity="1.0" stroke="#1f78b5" stroke-width="0.0" fill="#e1b1a3"><rect height="1.0000000000000009e-2" width="1.0000000000000009e-2" x="0.2772628768913835" y="-0.15795108700927973"/></g><g stroke-opacity="1.0" fill-opacity="1.0" stroke="#1f78b5" stroke-width="0.0" fill="#ddb49a"><rect height="1.0000000000000009e-2" width="1.0000000000000009e-2" x="0.23891141145223926" y="-0.1838203578087001"/></g><g stroke-opacity="1.0" fill-opacity="1.0" stroke="#1f78b5" stroke-width="0.0" fill="#d6b894"><rect height="1.0000000000000009e-2" width="1.0000000000000009e-2" x="0.19058574575699394" y="-0.20042945206518414"/></g><g stroke-opacity="1.0" fill-opacity="1.0" stroke="#1f78b5" stroke-width="0.0" fill="#cdbd92"><rect height="1.0000000000000009e-2" width="1.0000000000000009e-2" x="0.13701633266860946" y="-0.20615255591054327"/></g><g stroke-opacity="1.0" fill-opacity="1.0" stroke="#1f78b5" stroke-width="0.0" fill="#c1c195"><rect height="1.0000000000000009e-2" width="1.0000000000000009e-2" x="8.34469195802251e-2" y="-0.20042945206518425"/></g><g stroke-opacity="1.0" fill-opacity="1.0" stroke="#1f78b5" stroke-width="0.0" fill="#b4c59b"><rect height="1.0000000000000009e-2" width="9.999999999999995e-3" x="3.512125388497989e-2" y="-0.1838203578087001"/></g><g stroke-opacity="1.0" fill-opacity="1.0" stroke="#1f78b5" stroke-width="0.0" fill="#a7c8a6"><rect height="1.0000000000000009e-2" width="1.0e-2" x="-3.2302115541643596e-3" y="-0.15795108700927973"/></g><g stroke-opacity="1.0" fill-opacity="1.0" stroke="#1f78b5" stroke-width="0.0" fill="#9ccab2"><rect height="1.0000000000000009e-2" width="1.0000000000000002e-2" x="-2.7853368089651772e-2" y="-0.1253539041345786"/></g><g stroke-opacity="1.0" fill-opacity="1.0" stroke="#1f78b5" stroke-width="0.0" fill="#93cbbf"><rect height="1.0000000000000009e-2" width="9.999999999999998e-3" x="-3.6337929600169454e-2" y="-8.921964856230036e-2"/></g><g stroke-opacity="1.0" fill-opacity="1.0" stroke="#1f78b5" stroke-width="0.0" fill="#90cacc"><rect height="9.999999999999995e-3" width="1.0000000000000002e-2" x="-2.7853368089651772e-2" y="-5.308539299002223e-2"/></g><g stroke-opacity="1.0" fill-opacity="1.0" stroke="#1f78b5" stroke-width="0.0" fill="#91c8d6"><rect height="1.0000000000000002e-2" width="1.0e-2" x="-3.2302115541643596e-3" y="-2.04882101153212e-2"/></g><g stroke-opacity="1.0" fill-opacity="1.0" stroke="#1f78b5" stroke-width="0.0" fill="#98c5df"><rect height="1.0000000000000002e-2" width="9.999999999999995e-3" x="3.512125388497989e-2" y="5.381060684099219e-3"/></g><g stroke-opacity="1.0" fill-opacity="1.0" stroke="#1f78b5" stroke-width="0.0" fill="#a2c1e4"><rect height="9.999999999999998e-3" width="1.0000000000000009e-2" x="8.34469195802251e-2" y="2.199015494058332e-2"/></g><g stroke-opacity="1.0" fill-opacity="1.0" stroke="#1f78b5" stroke-width="0.0" fill="#aebde5"><rect height="9.999999999999998e-3" width="1.0000000000000009e-2" x="0.13701633266860946" y="2.7713258785942444e-2"/></g><g stroke-opacity="1.0" fill-opacity="1.0" stroke="#1f78b5" stroke-width="0.0" fill="#bbb8e3"><rect height="9.999999999999998e-3" width="1.0000000000000009e-2" x="0.19058574575699394" y="2.199015494058332e-2"/></g><g stroke-opacity="1.0" fill-opacity="1.0" stroke="#1f78b5" stroke-width="0.0" fill="#c7b4dd"><rect height="1.0000000000000002e-2" width="1.0000000000000009e-2" x="0.23891141145223926" y="5.381060684099219e-3"/></g><g stroke-opacity="1.0" fill-opacity="1.0" stroke="#1f78b5" stroke-width="0.0" fill="#d2b1d4"><rect height="1.0000000000000002e-2" width="1.0000000000000009e-2" x="0.2772628768913835" y="-2.04882101153212e-2"/></g><g stroke-opacity="1.0" fill-opacity="1.0" stroke="#1f78b5" stroke-width="0.0" fill="#daafc9"><rect height="9.999999999999995e-3" width="1.0000000000000009e-2" x="0.3018860334268707" y="-5.308539299002223e-2"/></g><g stroke-opacity="1.0" fill-opacity="1.0" stroke="#1f78b5" stroke-width="0.0" fill="#e7aabc"><rect height="1.0000000000000009e-2" width="1.0000000000000009e-2" x="0.35370916050458334" y="-8.921964856230036e-2"/></g><g stroke-opacity="1.0" fill-opacity="1.0" stroke="#1f78b5" stroke-width="0.0" fill="#eaabab"><rect height="1.0000000000000009e-2" width="1.0000000000000009e-2" x="0.3431034586164361" y="-0.13438746802764812"/></g><g stroke-opacity="1.0" fill-opacity="1.0" stroke="#1f78b5" stroke-width="0.0" fill="#e9ad9d"><rect height="1.0000000000000009e-2" width="1.0000000000000009e-2" x="0.31232451294707686" y="-0.17513394662102444"/></g><g stroke-opacity="1.0" fill-opacity="1.0" stroke="#1f78b5" stroke-width="0.0" fill="#e5b190"><rect height="1.0000000000000009e-2" width="1.0000000000000009e-2" x="0.2643851811481467" y="-0.2074705351202999"/></g><g stroke-opacity="1.0" fill-opacity="1.0" stroke="#1f78b5" stroke-width="0.0" fill="#dcb688"><rect height="1.0000000000000009e-2" width="1.0000000000000009e-2" x="0.20397809902908992" y="-0.22823190294090512"/></g><g stroke-opacity="1.0" fill-opacity="1.0" stroke="#1f78b5" stroke-width="0.0" fill="#d0bc86"><rect height="1.0000000000000009e-2" width="1.0000000000000009e-2" x="0.13701633266860946" y="-0.23538578274760402"/></g><g stroke-opacity="1.0" fill-opacity="1.0" stroke="#1f78b5" stroke-width="0.0" fill="#c2c289"><rect height="1.0000000000000009e-2" width="1.0000000000000009e-2" x="7.005456630812912e-2" y="-0.22823190294090523"/></g><g stroke-opacity="1.0" fill-opacity="1.0" stroke="#1f78b5" stroke-width="0.0" fill="#b2c792"><rect height="1.0000000000000009e-2" width="1.0000000000000002e-2" x="9.647484189072356e-3" y="-0.2074705351203"/></g><g stroke-opacity="1.0" fill-opacity="1.0" stroke="#1f78b5" stroke-width="0.0" fill="#a1cb9f"><rect height="1.0000000000000009e-2" width="9.999999999999998e-3" x="-3.8291847609857925e-2" y="-0.17513394662102455"/></g><g stroke-opacity="1.0" fill-opacity="1.0" stroke="#1f78b5" stroke-width="0.0" fill="#92cdaf"><rect height="1.0000000000000009e-2" width="1.0000000000000002e-2" x="-6.907079327921706e-2" y="-0.13438746802764812"/></g><g stroke-opacity="1.0" fill-opacity="1.0" stroke="#1f78b5" stroke-width="0.0" fill="#86cebf"><rect height="1.0000000000000009e-2" width="1.0000000000000009e-2" x="-7.967649516736419e-2" y="-8.921964856230036e-2"/></g><g stroke-opacity="1.0" fill-opacity="1.0" stroke="#1f78b5" stroke-width="0.0" fill="#81cdcf"><rect height="9.999999999999995e-3" width="1.0000000000000002e-2" x="-6.907079327921728e-2" y="-4.4051829096952703e-2"/></g><g stroke-opacity="1.0" fill-opacity="1.0" stroke="#1f78b5" stroke-width="0.0" fill="#84cadd"><rect height="1.0e-2" width="9.999999999999998e-3" x="-3.8291847609857925e-2" y="-3.305350503576383e-3"/></g><g stroke-opacity="1.0" fill-opacity="1.0" stroke="#1f78b5" stroke-width="0.0" fill="#8dc6e7"><rect height="9.999999999999998e-3" width="1.0000000000000002e-2" x="9.647484189072356e-3" y="2.903123799569907e-2"/></g><g stroke-opacity="1.0" fill-opacity="1.0" stroke="#1f78b5" stroke-width="0.0" fill="#9bc1ed"><rect height="9.999999999999995e-3" width="1.0000000000000009e-2" x="7.005456630812879e-2" y="4.97926058163043e-2"/></g><g stroke-opacity="1.0" fill-opacity="1.0" stroke="#1f78b5" stroke-width="0.0" fill="#abbcef"><rect height="1.0000000000000002e-2" width="1.0000000000000009e-2" x="0.13701633266860946" y="5.694648562300315e-2"/></g><g stroke-opacity="1.0" fill-opacity="1.0" stroke="#1f78b5" stroke-width="0.0" fill="#bbb7ec"><rect height="9.999999999999995e-3" width="1.0000000000000009e-2" x="0.20397809902908992" y="4.979260581630441e-2"/></g><g stroke-opacity="1.0" fill-opacity="1.0" stroke="#1f78b5" stroke-width="0.0" fill="#cab2e5"><rect height="9.999999999999998e-3" width="1.0000000000000009e-2" x="0.2643851811481467" y="2.903123799569918e-2"/></g><g stroke-opacity="1.0" fill-opacity="1.0" stroke="#1f78b5" stroke-width="0.0" fill="#d6aed9"><rect height="1.0e-2" width="1.0000000000000009e-2" x="0.31232451294707686" y="-3.305350503576383e-3"/></g><g stroke-opacity="1.0" fill-opacity="1.0" stroke="#1f78b5" stroke-width="0.0" fill="#e0abcb"><rect height="9.999999999999995e-3" width="1.0000000000000009e-2" x="0.3431034586164361" y="-4.405182909695259e-2"/></g><g stroke-opacity="1.0" fill-opacity="1.0" stroke="#1f78b5" stroke-width="0.0" fill="#efa6bb"><rect height="1.0000000000000009e-2" width="1.0000000000000009e-2" x="0.3970477260717781" y="-8.921964856230036e-2"/></g><g stroke-opacity="1.0" fill-opacity="1.0" stroke="#1f78b5" stroke-width="0.0" fill="#f2a6a8"><rect height="1.0000000000000009e-2" width="1.0000000000000009e-2" x="0.3843208838060016" y="-0.14342103192071776"/></g><g stroke-opacity="1.0" fill-opacity="1.0" stroke="#1f78b5" stroke-width="0.0" fill="#f1a996"><rect height="1.0000000000000009e-2" width="1.0000000000000009e-2" x="0.3473861490027703" y="-0.19231680623276937"/></g><g stroke-opacity="1.0" fill-opacity="1.0" stroke="#1f78b5" stroke-width="0.0" fill="#ecae86"><rect height="1.0000000000000009e-2" width="1.0000000000000009e-2" x="0.2898589508440542" y="-0.2311207124318998"/></g><g stroke-opacity="1.0" fill-opacity="1.0" stroke="#1f78b5" stroke-width="0.0" fill="#e2b57c"><rect height="1.0000000000000009e-2" width="1.0000000000000009e-2" x="0.21737045230118635" y="-0.2560343538166261"/></g><g stroke-opacity="1.0" fill-opacity="1.0" stroke="#1f78b5" stroke-width="0.0" fill="#d4bc79"><rect height="1.0000000000000009e-2" width="1.0000000000000009e-2" x="0.13701633266860946" y="-0.26461900958466467"/></g><g stroke-opacity="1.0" fill-opacity="1.0" stroke="#1f78b5" stroke-width="0.0" fill="#c3c37d"><rect height="1.0000000000000009e-2" width="1.0000000000000002e-2" x="5.666221303603292e-2" y="-0.2560343538166261"/></g><g stroke-opacity="1.0" fill-opacity="1.0" stroke="#1f78b5" stroke-width="0.0" fill="#afc989"><rect height="1.0000000000000009e-2" width="1.0000000000000002e-2" x="-1.5826285506835066e-2" y="-0.2311207124318998"/></g><g stroke-opacity="1.0" fill-opacity="1.0" stroke="#1f78b5" stroke-width="0.0" fill="#9bcd99"><rect height="1.0000000000000009e-2" width="1.0000000000000009e-2" x="-7.335348366555139e-2" y="-0.19231680623276937"/></g><g stroke-opacity="1.0" fill-opacity="1.0" stroke="#1f78b5" stroke-width="0.0" fill="#87d0ac"><rect height="1.0000000000000009e-2" width="1.0000000000000009e-2" x="-0.11028821846878256" y="-0.14342103192071776"/></g><g stroke-opacity="1.0" fill-opacity="1.0" stroke="#1f78b5" stroke-width="0.0" fill="#78d1c0"><rect height="1.0000000000000009e-2" width="1.0000000000000009e-2" x="-0.12301506073455903" y="-8.921964856230036e-2"/></g><g stroke-opacity="1.0" fill-opacity="1.0" stroke="#1f78b5" stroke-width="0.0" fill="#71d0d2"><rect height="9.999999999999998e-3" width="1.0000000000000009e-2" x="-0.11028821846878256" y="-3.5018265203883174e-2"/></g><g stroke-opacity="1.0" fill-opacity="1.0" stroke="#1f78b5" stroke-width="0.0" fill="#75cde3"><rect height="1.0000000000000002e-2" width="1.0000000000000009e-2" x="-7.335348366555139e-2" y="1.3877509108168432e-2"/></g><g stroke-opacity="1.0" fill-opacity="1.0" stroke="#1f78b5" stroke-width="0.0" fill="#82c8ef"><rect height="1.0000000000000002e-2" width="1.0000000000000002e-2" x="-1.5826285506835288e-2" y="5.268141530729898e-2"/></g><g stroke-opacity="1.0" fill-opacity="1.0" stroke="#1f78b5" stroke-width="0.0" fill="#93c2f6"><rect height="1.0000000000000009e-2" width="1.0000000000000002e-2" x="5.666221303603292e-2" y="7.759505669202527e-2"/></g><g stroke-opacity="1.0" fill-opacity="1.0" stroke="#1f78b5" stroke-width="0.0" fill="#a7bbf8"><rect height="1.0000000000000009e-2" width="1.0000000000000009e-2" x="0.13701633266860946" y="8.617971246006384e-2"/></g><g stroke-opacity="1.0" fill-opacity="1.0" stroke="#1f78b5" stroke-width="0.0" fill="#bab5f5"><rect height="1.0000000000000009e-2" width="1.0000000000000009e-2" x="0.21737045230118635" y="7.759505669202527e-2"/></g><g stroke-opacity="1.0" fill-opacity="1.0" stroke="#1f78b5" stroke-width="0.0" fill="#ccafec"><rect height="1.0000000000000002e-2" width="1.0000000000000009e-2" x="0.289858950844054" y="5.2681415307299036e-2"/></g><g stroke-opacity="1.0" fill-opacity="1.0" stroke="#1f78b5" stroke-width="0.0" fill="#dbaadf"><rect height="1.0000000000000002e-2" width="1.0000000000000009e-2" x="0.3473861490027703" y="1.3877509108168654e-2"/></g><g stroke-opacity="1.0" fill-opacity="1.0" stroke="#1f78b5" stroke-width="0.0" fill="#e7a7ce"><rect height="9.999999999999998e-3" width="1.0000000000000009e-2" x="0.3843208838060016" y="-3.501826520388306e-2"/></g><g stroke-opacity="1.0" fill-opacity="1.0" stroke="#1f78b5" stroke-width="0.0" fill="#f6a1bb"><rect height="1.0000000000000009e-2" width="1.0000000000000009e-2" x="0.4403862916389728" y="-8.921964856230036e-2"/></g><g stroke-opacity="1.0" fill-opacity="1.0" stroke="#1f78b5" stroke-width="0.0" fill="#faa2a4"><rect height="1.0000000000000009e-2" width="1.0000000000000009e-2" x="0.42553830899556677" y="-0.15245459581378729"/></g><g stroke-opacity="1.0" fill-opacity="1.0" stroke="#1f78b5" stroke-width="0.0" fill="#f9a58e"><rect height="1.0000000000000009e-2" width="1.0000000000000009e-2" x="0.3824477850584639" y="-0.20949966584451407"/></g><g stroke-opacity="1.0" fill-opacity="1.0" stroke="#1f78b5" stroke-width="0.0" fill="#f3ab7c"><rect height="1.0000000000000009e-2" width="1.0000000000000009e-2" x="0.3153327205399614" y="-0.2547708897434997"/></g><g stroke-opacity="1.0" fill-opacity="1.0" stroke="#1f78b5" stroke-width="0.0" fill="#e8b36f"><rect height="1.0000000000000009e-2" width="1.0000000000000009e-2" x="0.23076280557328233" y="-0.28383680469234707"/></g><g stroke-opacity="1.0" fill-opacity="1.0" stroke="#1f78b5" stroke-width="0.0" fill="#d8bb6b"><rect height="1.0000000000000009e-2" width="1.0000000000000009e-2" x="0.13701633266860946" y="-0.2938522364217252"/></g><g stroke-opacity="1.0" fill-opacity="1.0" stroke="#1f78b5" stroke-width="0.0" fill="#c4c371"><rect height="1.0000000000000009e-2" width="9.999999999999995e-3" x="4.326985976393683e-2" y="-0.28383680469234707"/></g><g stroke-opacity="1.0" fill-opacity="1.0" stroke="#1f78b5" stroke-width="0.0" fill="#adca7f"><rect height="1.0000000000000009e-2" width="9.999999999999995e-3" x="-4.1300055202742596e-2" y="-0.2547708897434997"/></g><g stroke-opacity="1.0" fill-opacity="1.0" stroke="#1f78b5" stroke-width="0.0" fill="#94d092"><rect height="1.0000000000000009e-2" width="1.0000000000000009e-2" x="-0.10841511972124473" y="-0.20949966584451407"/></g><g stroke-opacity="1.0" fill-opacity="1.0" stroke="#1f78b5" stroke-width="0.0" fill="#7bd3a9"><rect height="1.0000000000000009e-2" width="1.0000000000000009e-2" x="-0.1515056436583478" y="-0.15245459581378729"/></g><g stroke-opacity="1.0" fill-opacity="1.0" stroke="#1f78b5" stroke-width="0.0" fill="#67d4c0"><rect height="1.0000000000000009e-2" width="1.0000000000000009e-2" x="-0.1663536263017536" y="-8.921964856230036e-2"/></g><g stroke-opacity="1.0" fill-opacity="1.0" stroke="#1f78b5" stroke-width="0.0" fill="#5ed2d6"><rect height="1.0000000000000002e-2" width="1.0000000000000009e-2" x="-0.1515056436583478" y="-2.5984701310813648e-2"/></g><g stroke-opacity="1.0" fill-opacity="1.0" stroke="#1f78b5" stroke-width="0.0" fill="#63cfe9"><rect height="9.999999999999998e-3" width="1.0000000000000009e-2" x="-0.10841511972124473" y="3.1060368719913415e-2"/></g><g stroke-opacity="1.0" fill-opacity="1.0" stroke="#1f78b5" stroke-width="0.0" fill="#75c9f7"><rect height="1.0000000000000009e-2" width="9.999999999999995e-3" x="-4.1300055202742596e-2" y="7.633159261889888e-2"/></g><g stroke-opacity="1.0" fill-opacity="1.0" stroke="#1f78b5" stroke-width="0.0" fill="#bab3fe"><rect height="1.0000000000000009e-2" width="1.0000000000000009e-2" x="0.23076280557328221" y="0.10539750756774624"/></g><g stroke-opacity="1.0" fill-opacity="1.0" stroke="#1f78b5" stroke-width="0.0" fill="#ceacf4"><rect height="1.0000000000000009e-2" width="1.0000000000000009e-2" x="0.3153327205399614" y="7.633159261889888e-2"/></g><g stroke-opacity="1.0" fill-opacity="1.0" stroke="#1f78b5" stroke-width="0.0" fill="#e0a7e4"><rect height="9.999999999999998e-3" width="1.0000000000000009e-2" x="0.3824477850584639" y="3.1060368719913415e-2"/></g><g stroke-opacity="1.0" fill-opacity="1.0" stroke="#1f78b5" stroke-width="0.0" fill="#eda3d1"><rect height="1.0000000000000002e-2" width="1.0000000000000009e-2" x="0.42553830899556677" y="-2.5984701310813537e-2"/></g><g stroke-opacity="1.0" fill-opacity="1.0" stroke="#1f78b5" stroke-width="0.0" fill="#fd9cba"><rect height="1.0000000000000009e-2" width="1.0000000000000009e-2" x="0.48372485720616754" y="-8.921964856230036e-2"/></g><g stroke-opacity="1.0" fill-opacity="1.0" stroke="#1f78b5" stroke-width="0.0" fill="#faa871"><rect height="1.0000000000000009e-2" width="1.0000000000000009e-2" x="0.34080649023586895" y="-0.2784210670550997"/></g><g stroke-opacity="1.0" fill-opacity="1.0" stroke="#1f78b5" stroke-width="0.0" fill="#edb161"><rect height="1.0000000000000009e-2" width="1.0000000000000009e-2" x="0.24415515884537842" y="-0.31163925556806793"/></g><g stroke-opacity="1.0" fill-opacity="1.0" stroke="#1f78b5" stroke-width="0.0" fill="#dcba5b"><rect height="1.0000000000000009e-2" width="1.0000000000000009e-2" x="0.13701633266860946" y="-0.32308546325878607"/></g><g stroke-opacity="1.0" fill-opacity="1.0" stroke="#1f78b5" stroke-width="0.0" fill="#c5c463"><rect height="1.0000000000000009e-2" width="9.999999999999998e-3" x="2.9877506491840736e-2" y="-0.31163925556806793"/></g><g stroke-opacity="1.0" fill-opacity="1.0" stroke="#1f78b5" stroke-width="0.0" fill="#aacc74"><rect height="1.0000000000000009e-2" width="1.0000000000000002e-2" x="-6.677382489865014e-2" y="-0.2784210670550997"/></g><g stroke-opacity="1.0" fill-opacity="1.0" stroke="#1f78b5" stroke-width="0.0" fill="#8dd28c"><rect height="1.0000000000000009e-2" width="1.0000000000000009e-2" x="-0.14347675577693825" y="-0.2266825254562589"/></g><g stroke-opacity="1.0" fill-opacity="1.0" stroke="#1f78b5" stroke-width="0.0" fill="#6ed6a6"><rect height="1.0000000000000009e-2" width="1.0000000000000009e-2" x="-0.19272306884791313" y="-0.16148815970685682"/></g><g stroke-opacity="1.0" fill-opacity="1.0" stroke="#1f78b5" stroke-width="0.0" fill="#52d7c1"><rect height="1.0000000000000009e-2" width="1.0000000000000009e-2" x="-0.20969219186894839" y="-8.921964856230036e-2"/></g><g stroke-opacity="1.0" fill-opacity="1.0" stroke="#1f78b5" stroke-width="0.0" fill="#44d5d9"><rect height="1.0000000000000002e-2" width="1.0000000000000009e-2" x="-0.19272306884791313" y="-1.6951137417743952e-2"/></g><g stroke-opacity="1.0" fill-opacity="1.0" stroke="#1f78b5" stroke-width="0.0" fill="#4dd1ef"><rect height="9.999999999999995e-3" width="1.0000000000000009e-2" x="-0.1434767557769384" y="4.8243228331658124e-2"/></g><g stroke-opacity="1.0" fill-opacity="1.0" stroke="#1f78b5" stroke-width="0.0" fill="#66caff"><rect height="1.0000000000000009e-2" width="1.0000000000000002e-2" x="-6.677382489865014e-2" y="9.998176993049879e-2"/></g><g stroke-opacity="1.0" fill-opacity="1.0" stroke="#1f78b5" stroke-width="0.0" fill="#d1a9fb"><rect height="1.0000000000000009e-2" width="1.0000000000000009e-2" x="0.34080649023586895" y="9.99817699304989e-2"/></g><g stroke-opacity="1.0" fill-opacity="1.0" stroke="#1f78b5" stroke-width="0.0" fill="#e4a3e9"><rect height="9.999999999999995e-3" width="1.0000000000000009e-2" x="0.41750942111415756" y="4.824322833165818e-2"/></g><g stroke-opacity="1.0" fill-opacity="1.0" stroke="#1f78b5" stroke-width="0.0" fill="#f39ed3"><rect height="1.0000000000000002e-2" width="1.0000000000000009e-2" x="0.46675573418513217" y="-1.6951137417743952e-2"/></g><g stroke-opacity="1.0" fill-opacity="1.0" stroke="#1f78b5" stroke-width="0.0" fill="#f3ae51"><rect height="1.0000000000000009e-2" width="1.0000000000000009e-2" x="0.2575475121174745" y="-0.339441706443789"/></g><g stroke-opacity="1.0" fill-opacity="1.0" stroke="#1f78b5" stroke-width="0.0" fill="#dfb949"><rect height="1.0000000000000009e-2" width="1.0000000000000009e-2" x="0.13701633266860946" y="-0.3523186900958468"/></g><g stroke-opacity="1.0" fill-opacity="1.0" stroke="#1f78b5" stroke-width="0.0" fill="#c6c453"><rect height="1.0000000000000009e-2" width="1.0000000000000002e-2" x="1.6485153219744534e-2" y="-0.339441706443789"/></g><g stroke-opacity="1.0" fill-opacity="1.0" stroke="#1f78b5" stroke-width="0.0" fill="#a8cd69"><rect height="1.0000000000000009e-2" width="1.0000000000000009e-2" x="-9.224759459455745e-2" y="-0.3020712443666995"/></g><g stroke-opacity="1.0" fill-opacity="1.0" stroke="#1f78b5" stroke-width="0.0" fill="#85d485"><rect height="1.0000000000000009e-2" width="1.0000000000000009e-2" x="-0.17853839183263176" y="-0.24386538506800381"/></g><g stroke-opacity="1.0" fill-opacity="1.0" stroke="#1f78b5" stroke-width="0.0" fill="#5fd9a3"><rect height="1.0000000000000009e-2" width="1.0000000000000009e-2" x="-0.23394049403747852" y="-0.17052172359992646"/></g><g stroke-opacity="1.0" fill-opacity="1.0" stroke="#1f78b5" stroke-width="0.0" fill="#34dac1"><rect height="1.0000000000000009e-2" width="1.0000000000000009e-2" x="-0.25303075743614317" y="-8.921964856230036e-2"/></g><g stroke-opacity="1.0" fill-opacity="1.0" stroke="#1f78b5" stroke-width="0.0" fill="#0dd8dd"><rect height="1.0000000000000002e-2" width="1.0000000000000009e-2" x="-0.23394049403747852" y="-7.917573524674478e-3"/></g><g stroke-opacity="1.0" fill-opacity="1.0" stroke="#1f78b5" stroke-width="0.0" fill="#2ad3f5"><rect height="1.0000000000000009e-2" width="1.0000000000000009e-2" x="-0.17853839183263176" y="6.542608794340299e-2"/></g><g stroke-opacity="1.0" fill-opacity="1.0" stroke="#1f78b5" stroke-width="0.0" fill="#e89fef"><rect height="1.0000000000000009e-2" width="1.0000000000000009e-2" x="0.4525710571698508" y="6.542608794340299e-2"/></g><g stroke-opacity="1.0" fill-opacity="1.0" stroke="#1f78b5" stroke-width="0.0" fill="#f99ad6"><rect height="1.0000000000000002e-2" width="1.0000000000000009e-2" x="0.5079731593746976" y="-7.917573524674367e-3"/></g><g stroke-opacity="1.0" fill-opacity="1.0" stroke="#1f78b5" stroke-width="0.0" fill="#f9ac3d"><rect height="1.0000000000000009e-2" width="1.0000000000000009e-2" x="0.2709398653895705" y="-0.36724415731950977"/></g><g stroke-opacity="1.0" fill-opacity="1.0" stroke="#1f78b5" stroke-width="0.0" fill="#e3b831"><rect height="1.0000000000000009e-2" width="1.0000000000000009e-2" x="0.13701633266860946" y="-0.38155191693290746"/></g><g stroke-opacity="1.0" fill-opacity="1.0" stroke="#1f78b5" stroke-width="0.0" fill="#c7c43f"><rect height="1.0000000000000009e-2" width="1.0000000000000002e-2" x="3.0927999476484435e-3" y="-0.36724415731951"/></g><g stroke-opacity="1.0" fill-opacity="1.0" stroke="#1f78b5" stroke-width="0.0" fill="#a6cf5c"><rect height="1.0000000000000009e-2" width="1.0000000000000009e-2" x="-0.11772136429046498" y="-0.3257214216782994"/></g><g stroke-opacity="1.0" fill-opacity="1.0" stroke="#1f78b5" stroke-width="0.0" fill="#7dd67d"><rect height="1.0000000000000009e-2" width="1.0000000000000009e-2" x="-0.21360002788832527" y="-0.26104824467974863"/></g><g stroke-opacity="1.0" fill-opacity="1.0" stroke="#1f78b5" stroke-width="0.0" fill="#4bdba0"><rect height="1.0000000000000009e-2" width="1.0000000000000009e-2" x="-0.2751579192270437" y="-0.17955528749299587"/></g><g stroke-opacity="1.0" fill-opacity="1.0" stroke="#1f78b5" stroke-width="0.0" fill="#ed9bf4"><rect height="1.0000000000000009e-2" width="1.0000000000000009e-2" x="0.48763269322554426" y="8.260894755514786e-2"/></g><g stroke-opacity="1.0" fill-opacity="1.0" stroke="#1f78b5" stroke-width="0.0" fill="#ff95d9"><rect height="1.0000000000000002e-2" width="1.0000000000000009e-2" x="0.5491905845642627" y="1.1159903683951077e-3"/></g><g stroke-opacity="1.0" fill-opacity="1.0" stroke="#1f78b5" stroke-width="0.0" fill="#fea91e"><rect height="1.0000000000000009e-2" width="1.0000000000000009e-2" x="0.2843322186616668" y="-0.39504660819523085"/></g><g stroke-opacity="1.0" fill-opacity="1.0" stroke="#1f78b5" stroke-width="0.0" fill="#c9c522"><rect height="1.0000000000000009e-2" width="1.0000000000000002e-2" x="-1.0299553324447649e-2" y="-0.39504660819523096"/></g><g stroke-opacity="1.0" fill-opacity="1.0" stroke="#1f78b5" stroke-width="0.0" fill="#a3d04d"><rect height="1.0000000000000009e-2" width="1.0000000000000009e-2" x="-0.1431951339863724" y="-0.34937159898989945"/></g><g stroke-opacity="1.0" fill-opacity="1.0" stroke="#1f78b5" stroke-width="0.0" fill="#75d976"><rect height="1.0000000000000009e-2" width="1.0000000000000009e-2" x="-0.24866166394401873" y="-0.27823110429149345"/></g><g stroke-opacity="1.0" fill-opacity="1.0" stroke="#1f78b5" stroke-width="0.0" fill="#30de9c"><rect height="1.0000000000000009e-2" width="1.0000000000000009e-2" x="-0.316375344416609" y="-0.1885888513860654"/></g><g stroke-opacity="1.0" fill-opacity="1.0" stroke="#1f78b5" stroke-width="0.0" fill="#f196f9"><rect height="1.0000000000000009e-2" width="1.0000000000000009e-2" x="0.5226943292812377" y="9.979180716689268e-2"/></g><g stroke-opacity="1.0" fill-opacity="1.0" stroke="#1f78b5" stroke-width="0.0" fill="#a1d13c"><rect height="1.0000000000000009e-2" width="1.0000000000000009e-2" x="-0.16866890368227977" y="-0.37302177630149924"/></g><g stroke-opacity="1.0" fill-opacity="1.0" stroke="#1f78b5" stroke-width="0.0" fill="#6cdb6d"><rect height="1.0000000000000009e-2" width="1.0000000000000009e-2" x="-0.28372329999971213" y="-0.2954139639032384"/></g><g stroke-opacity="1.0" fill-opacity="1.0" stroke="#1f78b5" stroke-width="0.0" fill="#f592fe"><rect height="1.0000000000000009e-2" width="1.0000000000000009e-2" x="0.5577559653369312" y="0.11697466677863749"/></g><g stroke-opacity="1.0" fill-opacity="1.0" stroke="#1f78b5" stroke-width="0.0" fill="#9fd322"><rect height="1.0000000000000009e-2" width="1.0000000000000009e-2" x="-0.1941426733781873" y="-0.39667195361309915"/></g><g stroke-opacity="1.0" fill-opacity="1.0" stroke="#1f78b5" stroke-width="0.0" fill="#61dd65"><rect height="1.0000000000000009e-2" width="1.0000000000000009e-2" x="-0.3187849360554057" y="-0.3125968235149832"/></g><g stroke-opacity="1.0" fill-opacity="1.0" stroke="#1f78b5" stroke-width="0.0" fill="#55df5b"><rect height="1.0000000000000009e-2" width="1.0000000000000009e-2" x="-0.3538465721110991" y="-0.329779683126728"/></g><g stroke-opacity="1.0" fill-opacity="1.0" stroke="#1f78b5" stroke-width="0.0" fill="#47e151"><rect height="1.0000000000000009e-2" width="1.0000000000000009e-2" x="-0.38890820816679256" y="-0.3469625427384728"/></g><g stroke-opacity="1.0" fill-opacity="1.0" stroke="#1f78b5" stroke-width="0.0" fill="#35e345"><rect height="1.0000000000000009e-2" width="1.0000000000000009e-2" x="-0.42396984422248607" y="-0.36414540235021764"/></g><g stroke-opacity="1.0" fill-opacity="1.0" stroke="#1f78b5" stroke-width="0.0" fill="#16e437"><rect height="1.0000000000000009e-2" width="1.0000000000000009e-2" x="-0.4590314802781796" y="-0.38132826196196234"/></g></g></g><g class="hud"><g class="frame"><g stroke-opacity="0.0" fill-opacity="2.0e-2" stroke="#000000" stroke-width="0.0" fill="#ffffff"><rect height="0.8769968051118211" width="1.3236684341042282" x="-0.5802930934513029" y="-0.47399600638977646"/></g></g><g class="axis"><g class="ticks"><g class="tickglyph"><g stroke-opacity="0.4" fill-opacity="0.4" stroke="#0d0d0d" stroke-width="4.0e-3" fill="#0d0d0d"><g transform="rotate(-90.0, -0.6062962327916197, 0.4030007987220447)"><polyline points="-0.6062962327916197,0.4180007987220447
-0.6062962327916197,0.3880007987220447"/></g><g transform="rotate(-90.0, -0.6062962327916197, 0.30555670926517564)"><polyline points="-0.6062962327916197,0.32055670926517565
-0.6062962327916197,0.29055670926517563"/></g><g transform="rotate(-90.0, -0.6062962327916197, 0.2081126198083067)"><polyline points="-0.6062962327916197,0.2231126198083067
-0.6062962327916197,0.19311261980830668"/></g><g transform="rotate(-90.0, -0.6062962327916197, 0.11066853035143764)"><polyline points="-0.6062962327916197,0.12566853035143766
-0.6062962327916197,9.566853035143764e-2"/></g><g transform="rotate(-90.0, -0.6062962327916197, 1.322444089456859e-2)"><polyline points="-0.6062962327916197,2.822444089456859e-2
-0.6062962327916197,-1.7755591054314096e-3"/></g><g transform="rotate(-90.0, -0.6062962327916197, -8.421964856230035e-2)"><polyline points="-0.6062962327916197,-6.921964856230035e-2
-0.6062962327916197,-9.921964856230035e-2"/></g><g transform="rotate(-90.0, -0.6062962327916197, -0.18166373801916946)"><polyline points="-0.6062962327916197,-0.16666373801916945
-0.6062962327916197,-0.19666373801916948"/></g><g transform="rotate(-90.0, -0.6062962327916197, -0.27910782747603846)"><polyline points="-0.6062962327916197,-0.26410782747603845
-0.6062962327916197,-0.2941078274760385"/></g><g transform="rotate(-90.0, -0.6062962327916197, -0.37655191693290746)"><polyline points="-0.6062962327916197,-0.36155191693290745
-0.6062962327916197,-0.3915519169329075"/></g><g transform="rotate(-90.0, -0.6062962327916197, -0.47399600638977646)"><polyline points="-0.6062962327916197,-0.45899600638977645
-0.6062962327916197,-0.48899600638977647"/></g></g></g><g class="ticktext"><g fill-opacity="1.0" font-size="4.3338565567194745e-2" stroke="none" stroke-width="0.0" fill="#0d0d0d" text-anchor="end"><text x="-0.6375" y="0.4150595047923323">-0.25</text><text x="-0.6375" y="0.3176154153354632">-0.2</text><text x="-0.6375" y="0.22017132587859423">-0.15</text><text x="-0.6375" y="0.12272723642172517">-0.1</text><text x="-0.6375" y="2.5283146964856118e-2">-0.05</text><text x="-0.6375" y="-7.216094249201277e-2">0</text><text x="-0.6375" y="-0.16960503194888188">0.05</text><text x="-0.6375" y="-0.2670491214057509">0.1</text><text x="-0.6375" y="-0.36449321086262">0.15</text><text x="-0.6375" y="-0.4619373003194889">0.2</text></g></g><g class="ticklines"><g stroke-opacity="5.0e-2" stroke="#0d0d0d" stroke-width="5.0e-3" fill="none"><polyline points="-0.5802930934513029,0.4030007987220447
0.7198638735645395,0.4030007987220447"/><polyline points="-0.5802930934513029,0.30555670926517564
0.7198638735645395,0.30555670926517564"/><polyline points="-0.5802930934513029,0.2081126198083067
0.7198638735645395,0.2081126198083067"/><polyline points="-0.5802930934513029,0.11066853035143764
0.7198638735645395,0.11066853035143764"/><polyline points="-0.5802930934513029,1.322444089456859e-2
0.7198638735645395,1.322444089456859e-2"/><polyline points="-0.5802930934513029,-8.421964856230035e-2
0.7198638735645395,-8.421964856230035e-2"/><polyline points="-0.5802930934513029,-0.18166373801916946
0.7198638735645395,-0.18166373801916946"/><polyline points="-0.5802930934513029,-0.27910782747603846
0.7198638735645395,-0.27910782747603846"/><polyline points="-0.5802930934513029,-0.37655191693290746
0.7198638735645395,-0.37655191693290746"/><polyline points="-0.5802930934513029,-0.47399600638977646
0.7198638735645395,-0.47399600638977646"/></g></g></g><g class="axisbar"><g stroke-opacity="0.0" fill-opacity="0.4" stroke="#000000" stroke-width="0.0" fill="#0d0d0d"><rect height="0.8805047923322683" width="3.467085245375534e-3" x="-0.5924278918101173" y="-0.47575"/></g></g></g><g class="axis"><g class="ticks"><g class="tickglyph"><g stroke-opacity="0.4" fill-opacity="0.4" stroke="#0d0d0d" stroke-width="4.0e-3" fill="#0d0d0d"><polyline points="-0.5802930934513029,0.44431070287539937
-0.5802930934513029,0.41431070287539934"/><polyline points="-0.4358312082273204,0.44431070287539937
-0.4358312082273204,0.41431070287539934"/><polyline points="-0.29136932300333784,0.44431070287539937
-0.29136932300333784,0.41431070287539934"/><polyline points="-0.14690743777935544,0.44431070287539937
-0.14690743777935544,0.41431070287539934"/><polyline points="-2.445552555372932e-3,0.44431070287539937
-2.445552555372932e-3,0.41431070287539934"/><polyline points="0.14201633266860947,0.44431070287539937
0.14201633266860947,0.41431070287539934"/><polyline points="0.286478217892592,0.44431070287539937
0.286478217892592,0.41431070287539934"/><polyline points="0.4309401031165747,0.44431070287539937
0.4309401031165747,0.41431070287539934"/><polyline points="0.575401988340557,0.44431070287539937
0.575401988340557,0.41431070287539934"/><polyline points="0.7198638735645395,0.44431070287539937
0.7198638735645395,0.41431070287539934"/></g></g><g class="ticktext"><g fill-opacity="1.0" font-size="4.3338565567194745e-2" stroke="none" stroke-width="0.0" fill="#0d0d0d" text-anchor="middle"><text x="-0.5802930934513029" y="0.485">-0.25</text><text x="-0.4358312082273204" y="0.485">-0.2</text><text x="-0.29136932300333784" y="0.485">-0.15</text><text x="-0.14690743777935544" y="0.485">-0.1</text><text x="-2.445552555372932e-3" y="0.485">-0.05</text><text x="0.14201633266860947" y="0.485">0</text><text x="0.286478217892592" y="0.485">0.05</text><text x="0.4309401031165747" y="0.485">0.1</text><text x="0.575401988340557" y="0.485">0.15</text><text x="0.7198638735645395" y="0.485">0.2</text></g></g><g class="ticklines"><g stroke-opacity="5.0e-2" stroke="#0d0d0d" stroke-width="5.0e-3" fill="none"><polyline points="-0.5802930934513029,0.4030007987220447
-0.5802930934513029,-0.47399600638977646"/><polyline points="-0.4358312082273204,0.4030007987220447
-0.4358312082273204,-0.47399600638977646"/><polyline points="-0.29136932300333784,0.4030007987220447
-0.29136932300333784,-0.47399600638977646"/><polyline points="-0.14690743777935544,0.4030007987220447
-0.14690743777935544,-0.47399600638977646"/><polyline points="-2.445552555372932e-3,0.4030007987220447
-2.445552555372932e-3,-0.47399600638977646"/><polyline points="0.14201633266860947,0.4030007987220447
0.14201633266860947,-0.47399600638977646"/><polyline points="0.286478217892592,0.4030007987220447
0.286478217892592,-0.47399600638977646"/><polyline points="0.4309401031165747,0.4030007987220447
0.4309401031165747,-0.47399600638977646"/><polyline points="0.575401988340557,0.4030007987220447
0.575401988340557,-0.47399600638977646"/><polyline points="0.7198638735645395,0.4030007987220447
0.7198638735645395,-0.47399600638977646"/></g></g></g><g class="axisbar"><g stroke-opacity="0.0" fill-opacity="0.4" stroke="#000000" stroke-width="0.0" fill="#0d0d0d"><rect height="3.5079872204472617e-3" width="1.3036240522612177" x="-0.5820266360739906" y="0.41177076677316293"/></g></g></g></g></svg>