<svg xmlns="http://www.w3.org/2000/svg" width="454.0053129609711" xmlns:xlink="http://www.w3.org/1999/xlink" viewBox="-0.7306688650275797 -0.49751881246197904 1.4866113991116938 0.9823308384319447" height="300.0"><style>svg {
  color-scheme: light dark;
}
{
  .canvas g, .title g, .axisbar g, .ticktext g, .tickglyph g, .ticklines g, .legendContent g text {
    fill: #0d0d0d;
  }
  .ticklines g, .tickglyph g, .legendBorder g {
    stroke: #0d0d0d;
  }
}
@media (prefers-color-scheme:dark) {
  .canvas g, .title g, .axisbar g, .ticktext g, .tickglyph g, .ticklines g, .legendContent g text {
    fill: #f0f0f0;
  }
  .ticklines g, .tickglyph g, .legendBorder g {
    stroke: #f0f0f0;
  }
}</style><g class="chart"><g class="dots"><g fill="#b304f2" stroke="#808080" stroke-width="3.0e-3" fill-opacity="1.0" stroke-opacity="1.0"><circle cy="0.25715158835755525" cx="0.7144425340841143" r="4.0e-2"/></g><g fill="#2a119f" stroke="#808080" stroke-width="3.0e-3" fill-opacity="1.0" stroke-opacity="1.0"><circle cy="0.23471092273338476" cx="0.2123658741207045" r="4.0e-2"/></g><g fill="#e6df00" stroke="#808080" stroke-width="3.0e-3" fill-opacity="1.0" stroke-opacity="1.0"><circle cy="-0.4398499434967057" cx="-6.418389404379554e-3" r="4.0e-2"/></g><g fill="#d3ac00" stroke="#808080" stroke-width="3.0e-3" fill-opacity="1.0" stroke-opacity="1.0"><circle cy="-0.3947100069513165" cx="0.13622091540039205" r="4.0e-2"/></g></g><g class="wheel"><g fill="#bebebd" stroke="#1f78b5" stroke-width="0.0" fill-opacity="1.0" stroke-opacity="1.0"><rect x="0.1505545625787894" width="1.0000000000000009e-2" y="-0.12633139429191464" height="1.0000000000000009e-2"/></g><g fill="#bebebd" stroke="#1f78b5" stroke-width="0.0" fill-opacity="1.0" stroke-opacity="1.0"><rect x="0.1505545625787894" width="1.0000000000000009e-2" y="-0.12633139429191464" height="1.0000000000000009e-2"/></g><g fill="#bebebd" stroke="#1f78b5" stroke-width="0.0" fill-opacity="1.0" stroke-opacity="1.0"><rect x="0.1505545625787894" width="1.0000000000000009e-2" y="-0.12633139429191464" height="1.0000000000000009e-2"/></g><g fill="#bebebd" stroke="#1f78b5" stroke-width="0.0" fill-opacity="1.0" stroke-opacity="1.0"><rect x="0.1505545625787894" width="1.0000000000000009e-2" y="-0.12633139429191464" height="1.0000000000000009e-2"/></g><g fill="#bebebd" stroke="#1f78b5" stroke-width="0.0" fill-opacity="1.0" stroke-opacity="1.0"><rect x="0.1505545625787894" width="1.0000000000000009e-2" y="-0.12633139429191464" height="1.0000000000000009e-2"/></g><g fill="#bebebd" stroke="#1f78b5" stroke-width="0.0" fill-opacity="1.0" stroke-opacity="1.0"><rect x="0.1505545625787894" width="1.0000000000000009e-2" y="-0.12633139429191464" height="1.0000000000000009e-2"/></g><g fill="#bebebd" stroke="#1f78b5" stroke-width="0.0" fill-opacity="1.0" stroke-opacity="1.0"><rect x="0.1505545625787894" width="1.0000000000000009e-2" y="-0.12633139429191464" height="1.0000000000000009e-2"/></g><g fill="#bebebd" stroke="#1f78b5" stroke-width="0.0" fill-opacity="1.0" stroke-opacity="1.0"><rect x="0.1505545625787894" width="1.0000000000000009e-2" y="-0.12633139429191464" height="1.0000000000000009e-2"/></g><g fill="#bebebd" stroke="#1f78b5" stroke-width="0.0" fill-opacity="1.0" stroke-opacity="1.0"><rect x="0.1505545625787894" width="1.0000000000000009e-2" y="-0.12633139429191464" height="1.0000000000000009e-2"/></g><g fill="#bebebd" stroke="#1f78b5" stroke-width="0.0" fill-opacity="1.0" stroke-opacity="1.0"><rect x="0.1505545625787894" width="1.0000000000000009e-2" y="-0.12633139429191464" height="1.0000000000000009e-2"/></g><g fill="#bebebd" stroke="#1f78b5" stroke-width="0.0" fill-opacity="1.0" stroke-opacity="1.0"><rect x="0.1505545625787894" width="1.0000000000000009e-2" y="-0.12633139429191464" height="1.0000000000000009e-2"/></g><g fill="#bebebd" stroke="#1f78b5" stroke-width="0.0" fill-opacity="1.0" stroke-opacity="1.0"><rect x="0.1505545625787894" width="1.0000000000000009e-2" y="-0.12633139429191464" height="1.0000000000000009e-2"/></g><g fill="#bebebd" stroke="#1f78b5" stroke-width="0.0" fill-opacity="1.0" stroke-opacity="1.0"><rect x="0.1505545625787894" width="1.0000000000000009e-2" y="-0.12633139429191464" height="1.0000000000000009e-2"/></g><g fill="#bebebd" stroke="#1f78b5" stroke-width="0.0" fill-opacity="1.0" stroke-opacity="1.0"><rect x="0.1505545625787894" width="1.0000000000000009e-2" y="-0.12633139429191464" height="1.0000000000000009e-2"/></g><g fill="#bebebd" stroke="#1f78b5" stroke-width="0.0" fill-opacity="1.0" stroke-opacity="1.0"><rect x="0.1505545625787894" width="1.0000000000000009e-2" y="-0.12633139429191464" height="1.0000000000000009e-2"/></g><g fill="#bebebd" stroke="#1f78b5" stroke-width="0.0" fill-opacity="1.0" stroke-opacity="1.0"><rect x="0.1505545625787894" width="1.0000000000000009e-2" y="-0.12633139429191464" height="1.0000000000000009e-2"/></g><g fill="#bebebd" stroke="#1f78b5" stroke-width="0.0" fill-opacity="1.0" stroke-opacity="1.0"><rect x="0.1505545625787894" width="1.0000000000000009e-2" y="-0.12633139429191464" height="1.0000000000000009e-2"/></g><g fill="#bebebd" stroke="#1f78b5" stroke-width="0.0" fill-opacity="1.0" stroke-opacity="1.0"><rect x="0.1505545625787894" width="1.0000000000000009e-2" y="-0.12633139429191464" height="1.0000000000000009e-2"/></g><g fill="#bebebd" stroke="#1f78b5" stroke-width="0.0" fill-opacity="1.0" stroke-opacity="1.0"><rect x="0.1505545625787894" width="1.0000000000000009e-2" y="-0.12633139429191464" height="1.0000000000000009e-2"/></g><g fill="#bebebd" stroke="#1f78b5" stroke-width="0.0" fill-opacity="1.0" stroke-opacity="1.0"><rect x="0.1505545625787894" width="1.0000000000000009e-2" y="-0.12633139429191464" height="1.0000000000000009e-2"/></g><g fill="#c7babd" stroke="#1f78b5" stroke-width="0.0" fill-opacity="1.0" stroke-opacity="1.0"><rect x="0.19339488295937446" width="1.0000000000000009e-2" y="-0.12633139429191464" height="1.0000000000000009e-2"/></g><g fill="#c7baba" stroke="#1f78b5" stroke-width="0.0" fill-opacity="1.0" stroke-opacity="1.0"><rect x="0.19129812843691696" width="1.0000000000000009e-2" y="-0.13450869934068066" height="1.0000000000000009e-2"/></g><g fill="#c7bbb7" stroke="#1f78b5" stroke-width="0.0" fill-opacity="1.0" stroke-opacity="1.0"><rect x="0.18521310981115013" width="1.0000000000000009e-2" y="-0.14188555279663884" height="1.0000000000000009e-2"/></g><g fill="#c6bbb5" stroke="#1f78b5" stroke-width="0.0" fill-opacity="1.0" stroke-opacity="1.0"><rect x="0.17573547110198207" width="1.0000000000000009e-2" y="-0.14773985684596014" height="1.0000000000000009e-2"/></g><g fill="#c4bcb3" stroke="#1f78b5" stroke-width="0.0" fill-opacity="1.0" stroke-opacity="1.0"><rect x="0.16379294962085766" width="1.0000000000000009e-2" y="-0.15149855141896174" height="1.0000000000000009e-2"/></g><g fill="#c1bdb3" stroke="#1f78b5" stroke-width="0.0" fill-opacity="1.0" stroke-opacity="1.0"><rect x="0.1505545625787894" width="1.0000000000000009e-2" y="-0.1527937093024736" height="1.0000000000000009e-2"/></g><g fill="#bebfb4" stroke="#1f78b5" stroke-width="0.0" fill-opacity="1.0" stroke-opacity="1.0"><rect x="0.13731617553672126" width="1.0000000000000009e-2" y="-0.15149855141896174" height="1.0000000000000009e-2"/></g><g fill="#bbc0b5" stroke="#1f78b5" stroke-width="0.0" fill-opacity="1.0" stroke-opacity="1.0"><rect x="0.12537365405559697" width="1.0000000000000009e-2" y="-0.14773985684596014" height="1.0000000000000009e-2"/></g><g fill="#b8c0b8" stroke="#1f78b5" stroke-width="0.0" fill-opacity="1.0" stroke-opacity="1.0"><rect x="0.1158960153464288" width="1.0000000000000009e-2" y="-0.14188555279663884" height="1.0000000000000009e-2"/></g><g fill="#b6c1bb" stroke="#1f78b5" stroke-width="0.0" fill-opacity="1.0" stroke-opacity="1.0"><rect x="0.10981099672066208" width="1.0000000000000009e-2" y="-0.13450869934068066" height="1.0000000000000009e-2"/></g><g fill="#b4c1be" stroke="#1f78b5" stroke-width="0.0" fill-opacity="1.0" stroke-opacity="1.0"><rect x="0.10771424219820447" width="1.0000000000000009e-2" y="-0.12633139429191464" height="1.0000000000000009e-2"/></g><g fill="#b3c1c1" stroke="#1f78b5" stroke-width="0.0" fill-opacity="1.0" stroke-opacity="1.0"><rect x="0.10981099672066208" width="1.0000000000000009e-2" y="-0.11815408924314874" height="1.0000000000000009e-2"/></g><g fill="#b4c0c4" stroke="#1f78b5" stroke-width="0.0" fill-opacity="1.0" stroke-opacity="1.0"><rect x="0.1158960153464288" width="1.0000000000000009e-2" y="-0.11077723578719045" height="1.0000000000000009e-2"/></g><g fill="#b5c0c6" stroke="#1f78b5" stroke-width="0.0" fill-opacity="1.0" stroke-opacity="1.0"><rect x="0.12537365405559686" width="1.0000000000000009e-2" y="-0.10492293173786926" height="1.0000000000000009e-2"/></g><g fill="#b7bfc7" stroke="#1f78b5" stroke-width="0.0" fill-opacity="1.0" stroke-opacity="1.0"><rect x="0.13731617553672126" width="1.0000000000000009e-2" y="-0.10116423716486761" height="1.0000000000000009e-2"/></g><g fill="#babdc8" stroke="#1f78b5" stroke-width="0.0" fill-opacity="1.0" stroke-opacity="1.0"><rect x="0.1505545625787894" width="1.0000000000000009e-2" y="-9.98690792813558e-2" height="1.0000000000000009e-2"/></g><g fill="#bdbcc7" stroke="#1f78b5" stroke-width="0.0" fill-opacity="1.0" stroke-opacity="1.0"><rect x="0.16379294962085766" width="1.0000000000000009e-2" y="-0.10116423716486761" height="1.0000000000000009e-2"/></g><g fill="#c0bbc6" stroke="#1f78b5" stroke-width="0.0" fill-opacity="1.0" stroke-opacity="1.0"><rect x="0.17573547110198207" width="1.0000000000000009e-2" y="-0.10492293173786926" height="1.0000000000000009e-2"/></g><g fill="#c3bbc3" stroke="#1f78b5" stroke-width="0.0" fill-opacity="1.0" stroke-opacity="1.0"><rect x="0.18521310981115013" width="1.0000000000000009e-2" y="-0.11077723578719034" height="1.0000000000000009e-2"/></g><g fill="#c5bac0" stroke="#1f78b5" stroke-width="0.0" fill-opacity="1.0" stroke-opacity="1.0"><rect x="0.19129812843691696" width="1.0000000000000009e-2" y="-0.11815408924314874" height="1.0000000000000009e-2"/></g><g fill="#cfb6bd" stroke="#1f78b5" stroke-width="0.0" fill-opacity="1.0" stroke-opacity="1.0"><rect x="0.23623520333995973" width="1.0000000000000009e-2" y="-0.12633139429191464" height="1.0000000000000009e-2"/></g><g fill="#d1b6b6" stroke="#1f78b5" stroke-width="0.0" fill-opacity="1.0" stroke-opacity="1.0"><rect x="0.2320416942950443" width="1.0000000000000009e-2" y="-0.14268600438944667" height="1.0000000000000009e-2"/></g><g fill="#d0b7b1" stroke="#1f78b5" stroke-width="0.0" fill-opacity="1.0" stroke-opacity="1.0"><rect x="0.21987165704351075" width="1.0000000000000009e-2" y="-0.15743971130136325" height="1.0000000000000009e-2"/></g><g fill="#ceb9ac" stroke="#1f78b5" stroke-width="0.0" fill-opacity="1.0" stroke-opacity="1.0"><rect x="0.2009163796251746" width="1.0000000000000009e-2" y="-0.16914831940000552" height="1.0000000000000009e-2"/></g><g fill="#cabba9" stroke="#1f78b5" stroke-width="0.0" fill-opacity="1.0" stroke-opacity="1.0"><rect x="0.1770313366629258" width="1.0000000000000009e-2" y="-0.17666570854600883" height="1.0000000000000009e-2"/></g><g fill="#c5bda8" stroke="#1f78b5" stroke-width="0.0" fill-opacity="1.0" stroke-opacity="1.0"><rect x="0.1505545625787894" width="1.0000000000000009e-2" y="-0.17925602431303256" height="1.0000000000000009e-2"/></g><g fill="#bfc0aa" stroke="#1f78b5" stroke-width="0.0" fill-opacity="1.0" stroke-opacity="1.0"><rect x="0.12407778849465323" width="1.0000000000000009e-2" y="-0.17666570854600883" height="1.0000000000000009e-2"/></g><g fill="#b9c2ad" stroke="#1f78b5" stroke-width="0.0" fill-opacity="1.0" stroke-opacity="1.0"><rect x="0.10019274553240431" width="1.0000000000000009e-2" y="-0.16914831940000552" height="1.0000000000000009e-2"/></g><g fill="#b3c3b2" stroke="#1f78b5" stroke-width="0.0" fill-opacity="1.0" stroke-opacity="1.0"><rect x="8.123746811406796e-2" width="1.0000000000000009e-2" y="-0.15743971130136325" height="1.0000000000000009e-2"/></g><g fill="#aec4b8" stroke="#1f78b5" stroke-width="0.0" fill-opacity="1.0" stroke-opacity="1.0"><rect x="6.906743086253464e-2" width="1.0000000000000009e-2" y="-0.14268600438944667" height="1.0000000000000009e-2"/></g><g fill="#aac4be" stroke="#1f78b5" stroke-width="0.0" fill-opacity="1.0" stroke-opacity="1.0"><rect x="6.487392181761942e-2" width="1.0000000000000009e-2" y="-0.12633139429191464" height="1.0000000000000009e-2"/></g><g fill="#a8c4c5" stroke="#1f78b5" stroke-width="0.0" fill-opacity="1.0" stroke-opacity="1.0"><rect x="6.906743086253464e-2" width="1.0000000000000009e-2" y="-0.10997678419438289" height="1.0000000000000009e-2"/></g><g fill="#a9c3ca" stroke="#1f78b5" stroke-width="0.0" fill-opacity="1.0" stroke-opacity="1.0"><rect x="8.123746811406796e-2" width="1.0000000000000009e-2" y="-9.522307728246615e-2" height="1.0000000000000009e-2"/></g><g fill="#acc1ce" stroke="#1f78b5" stroke-width="0.0" fill-opacity="1.0" stroke-opacity="1.0"><rect x="0.10019274553240431" width="1.0000000000000009e-2" y="-8.351446918382388e-2" height="1.0000000000000009e-2"/></g><g fill="#b0bfd1" stroke="#1f78b5" stroke-width="0.0" fill-opacity="1.0" stroke-opacity="1.0"><rect x="0.12407778849465323" width="1.0000000000000009e-2" y="-7.599708003782052e-2" height="1.0000000000000009e-2"/></g><g fill="#b6bdd2" stroke="#1f78b5" stroke-width="0.0" fill-opacity="1.0" stroke-opacity="1.0"><rect x="0.1505545625787894" width="1.0000000000000009e-2" y="-7.340676427079695e-2" height="1.0000000000000009e-2"/></g><g fill="#bcbbd0" stroke="#1f78b5" stroke-width="0.0" fill-opacity="1.0" stroke-opacity="1.0"><rect x="0.1770313366629258" width="1.0000000000000009e-2" y="-7.599708003782052e-2" height="1.0000000000000009e-2"/></g><g fill="#c2b9cd" stroke="#1f78b5" stroke-width="0.0" fill-opacity="1.0" stroke-opacity="1.0"><rect x="0.2009163796251745" width="1.0000000000000009e-2" y="-8.351446918382388e-2" height="1.0000000000000009e-2"/></g><g fill="#c8b8c9" stroke="#1f78b5" stroke-width="0.0" fill-opacity="1.0" stroke-opacity="1.0"><rect x="0.21987165704351075" width="1.0000000000000009e-2" y="-9.522307728246615e-2" height="1.0000000000000009e-2"/></g><g fill="#ccb7c3" stroke="#1f78b5" stroke-width="0.0" fill-opacity="1.0" stroke-opacity="1.0"><rect x="0.2320416942950443" width="1.0000000000000009e-2" y="-0.10997678419438278" height="1.0000000000000009e-2"/></g><g fill="#d7b2bc" stroke="#1f78b5" stroke-width="0.0" fill-opacity="1.0" stroke-opacity="1.0"><rect x="0.27907552372054467" width="1.0000000000000009e-2" y="-0.12633139429191464" height="1.0000000000000009e-2"/></g><g fill="#d9b3b3" stroke="#1f78b5" stroke-width="0.0" fill-opacity="1.0" stroke-opacity="1.0"><rect x="0.27278526015317195" width="1.0000000000000009e-2" y="-0.15086330943821247" height="1.0000000000000009e-2"/></g><g fill="#d9b4aa" stroke="#1f78b5" stroke-width="0.0" fill-opacity="1.0" stroke-opacity="1.0"><rect x="0.2545302042758716" width="1.0000000000000009e-2" y="-0.17299386980608755" height="1.0000000000000009e-2"/></g><g fill="#d6b7a3" stroke="#1f78b5" stroke-width="0.0" fill-opacity="1.0" stroke-opacity="1.0"><rect x="0.22609728814836716" width="1.0000000000000009e-2" y="-0.1905567819540509" height="1.0000000000000009e-2"/></g><g fill="#d0ba9f" stroke="#1f78b5" stroke-width="0.0" fill-opacity="1.0" stroke-opacity="1.0"><rect x="0.19026972370499406" width="1.0000000000000009e-2" y="-0.20183286567305592" height="1.0000000000000009e-2"/></g><g fill="#c9bd9d" stroke="#1f78b5" stroke-width="0.0" fill-opacity="1.0" stroke-opacity="1.0"><rect x="0.1505545625787894" width="1.0000000000000009e-2" y="-0.2057183393235914" height="1.0000000000000009e-2"/></g><g fill="#c0c09f" stroke="#1f78b5" stroke-width="0.0" fill-opacity="1.0" stroke-opacity="1.0"><rect x="0.11083940145258486" width="1.0000000000000009e-2" y="-0.20183286567305592" height="1.0000000000000009e-2"/></g><g fill="#b6c3a4" stroke="#1f78b5" stroke-width="0.0" fill-opacity="1.0" stroke-opacity="1.0"><rect x="7.501183700921177e-2" width="1.0000000000000009e-2" y="-0.1905567819540509" height="1.0000000000000009e-2"/></g><g fill="#adc6ac" stroke="#1f78b5" stroke-width="0.0" fill-opacity="1.0" stroke-opacity="1.0"><rect x="4.657892088170735e-2" width="9.999999999999995e-3" y="-0.17299386980608755" height="1.0000000000000009e-2"/></g><g fill="#a5c7b5" stroke="#1f78b5" stroke-width="0.0" fill-opacity="1.0" stroke-opacity="1.0"><rect x="2.8323865004407093e-2" width="9.999999999999998e-3" y="-0.15086330943821258" height="1.0000000000000009e-2"/></g><g fill="#9fc8bf" stroke="#1f78b5" stroke-width="0.0" fill-opacity="1.0" stroke-opacity="1.0"><rect x="2.203360143703437e-2" width="9.999999999999998e-3" y="-0.12633139429191464" height="1.0000000000000009e-2"/></g><g fill="#9dc7c8" stroke="#1f78b5" stroke-width="0.0" fill-opacity="1.0" stroke-opacity="1.0"><rect x="2.8323865004407093e-2" width="9.999999999999998e-3" y="-0.10179947914561677" height="1.0000000000000009e-2"/></g><g fill="#9ec6d0" stroke="#1f78b5" stroke-width="0.0" fill-opacity="1.0" stroke-opacity="1.0"><rect x="4.657892088170735e-2" width="9.999999999999995e-3" y="-7.966891877774196e-2" height="1.0000000000000009e-2"/></g><g fill="#a2c3d7" stroke="#1f78b5" stroke-width="0.0" fill-opacity="1.0" stroke-opacity="1.0"><rect x="7.501183700921177e-2" width="1.0000000000000009e-2" y="-6.210600662977849e-2" height="9.999999999999995e-3"/></g><g fill="#a9c0da" stroke="#1f78b5" stroke-width="0.0" fill-opacity="1.0" stroke-opacity="1.0"><rect x="0.11083940145258486" width="1.0000000000000009e-2" y="-5.082992291077348e-2" height="9.999999999999995e-3"/></g><g fill="#b2bddc" stroke="#1f78b5" stroke-width="0.0" fill-opacity="1.0" stroke-opacity="1.0"><rect x="0.1505545625787894" width="1.0000000000000009e-2" y="-4.69444492602381e-2" height="9.999999999999995e-3"/></g><g fill="#bcbada" stroke="#1f78b5" stroke-width="0.0" fill-opacity="1.0" stroke-opacity="1.0"><rect x="0.19026972370499395" width="1.0000000000000009e-2" y="-5.082992291077348e-2" height="9.999999999999995e-3"/></g><g fill="#c5b7d5" stroke="#1f78b5" stroke-width="0.0" fill-opacity="1.0" stroke-opacity="1.0"><rect x="0.22609728814836716" width="1.0000000000000009e-2" y="-6.210600662977849e-2" height="9.999999999999995e-3"/></g><g fill="#cdb4ce" stroke="#1f78b5" stroke-width="0.0" fill-opacity="1.0" stroke-opacity="1.0"><rect x="0.2545302042758716" width="1.0000000000000009e-2" y="-7.966891877774196e-2" height="1.0000000000000009e-2"/></g><g fill="#d3b3c6" stroke="#1f78b5" stroke-width="0.0" fill-opacity="1.0" stroke-opacity="1.0"><rect x="0.27278526015317195" width="1.0000000000000009e-2" y="-0.10179947914561677" height="1.0000000000000009e-2"/></g><g fill="#dfaebc" stroke="#1f78b5" stroke-width="0.0" fill-opacity="1.0" stroke-opacity="1.0"><rect x="0.3219158441011295" width="1.0000000000000009e-2" y="-0.12633139429191464" height="1.0000000000000009e-2"/></g><g fill="#e2afaf" stroke="#1f78b5" stroke-width="0.0" fill-opacity="1.0" stroke-opacity="1.0"><rect x="0.3135288260112993" width="1.0000000000000009e-2" y="-0.1590406144869786" height="1.0000000000000009e-2"/></g><g fill="#e1b1a3" stroke="#1f78b5" stroke-width="0.0" fill-opacity="1.0" stroke-opacity="1.0"><rect x="0.2891887515082323" width="1.0000000000000009e-2" y="-0.18854802831081174" height="1.0000000000000009e-2"/></g><g fill="#ddb49a" stroke="#1f78b5" stroke-width="0.0" fill-opacity="1.0" stroke-opacity="1.0"><rect x="0.2512781966715596" width="1.0000000000000009e-2" y="-0.2119652445080964" height="1.0000000000000009e-2"/></g><g fill="#d6b894" stroke="#1f78b5" stroke-width="0.0" fill-opacity="1.0" stroke-opacity="1.0"><rect x="0.2035081107470622" width="1.0000000000000009e-2" y="-0.227000022800103" height="1.0000000000000009e-2"/></g><g fill="#cdbd92" stroke="#1f78b5" stroke-width="0.0" fill-opacity="1.0" stroke-opacity="1.0"><rect x="0.1505545625787894" width="1.0000000000000009e-2" y="-0.23218065433415025" height="1.0000000000000009e-2"/></g><g fill="#c1c195" stroke="#1f78b5" stroke-width="0.0" fill-opacity="1.0" stroke-opacity="1.0"><rect x="9.760101441051683e-2" width="1.0000000000000009e-2" y="-0.22700002280010312" height="1.0000000000000009e-2"/></g><g fill="#b4c59b" stroke="#1f78b5" stroke-width="0.0" fill-opacity="1.0" stroke-opacity="1.0"><rect x="4.983092848601945e-2" width="9.999999999999995e-3" y="-0.2119652445080964" height="1.0000000000000009e-2"/></g><g fill="#a7c8a6" stroke="#1f78b5" stroke-width="0.0" fill-opacity="1.0" stroke-opacity="1.0"><rect x="1.192037364934662e-2" width="1.0000000000000002e-2" y="-0.18854802831081174" height="1.0000000000000009e-2"/></g><g fill="#9ccab2" stroke="#1f78b5" stroke-width="0.0" fill-opacity="1.0" stroke-opacity="1.0"><rect x="-1.2419700853720347e-2" width="1.0000000000000002e-2" y="-0.1590406144869786" height="1.0000000000000009e-2"/></g><g fill="#93cbbf" stroke="#1f78b5" stroke-width="0.0" fill-opacity="1.0" stroke-opacity="1.0"><rect x="-2.080671894355068e-2" width="1.0000000000000002e-2" y="-0.12633139429191464" height="1.0000000000000009e-2"/></g><g fill="#90cacc" stroke="#1f78b5" stroke-width="0.0" fill-opacity="1.0" stroke-opacity="1.0"><rect x="-1.2419700853720347e-2" width="1.0000000000000002e-2" y="-9.362217409685086e-2" height="1.0000000000000009e-2"/></g><g fill="#91c8d6" stroke="#1f78b5" stroke-width="0.0" fill-opacity="1.0" stroke-opacity="1.0"><rect x="1.192037364934662e-2" width="1.0000000000000002e-2" y="-6.411476027301771e-2" height="1.0000000000000002e-2"/></g><g fill="#98c5df" stroke="#1f78b5" stroke-width="0.0" fill-opacity="1.0" stroke-opacity="1.0"><rect x="4.983092848601945e-2" width="9.999999999999995e-3" y="-4.0697544075733054e-2" height="9.999999999999998e-3"/></g><g fill="#a2c1e4" stroke="#1f78b5" stroke-width="0.0" fill-opacity="1.0" stroke-opacity="1.0"><rect x="9.760101441051683e-2" width="1.0000000000000009e-2" y="-2.566276578372639e-2" height="1.0000000000000002e-2"/></g><g fill="#aebde5" stroke="#1f78b5" stroke-width="0.0" fill-opacity="1.0" stroke-opacity="1.0"><rect x="0.1505545625787894" width="1.0000000000000009e-2" y="-2.0482134249679092e-2" height="1.0000000000000002e-2"/></g><g fill="#bbb8e3" stroke="#1f78b5" stroke-width="0.0" fill-opacity="1.0" stroke-opacity="1.0"><rect x="0.2035081107470622" width="1.0000000000000009e-2" y="-2.566276578372639e-2" height="1.0000000000000002e-2"/></g><g fill="#c7b4dd" stroke="#1f78b5" stroke-width="0.0" fill-opacity="1.0" stroke-opacity="1.0"><rect x="0.2512781966715596" width="1.0000000000000009e-2" y="-4.0697544075733054e-2" height="9.999999999999998e-3"/></g><g fill="#d2b1d4" stroke="#1f78b5" stroke-width="0.0" fill-opacity="1.0" stroke-opacity="1.0"><rect x="0.2891887515082323" width="1.0000000000000009e-2" y="-6.411476027301771e-2" height="1.0000000000000002e-2"/></g><g fill="#daafc9" stroke="#1f78b5" stroke-width="0.0" fill-opacity="1.0" stroke-opacity="1.0"><rect x="0.3135288260112993" width="1.0000000000000009e-2" y="-9.362217409685086e-2" height="1.0000000000000009e-2"/></g><g fill="#e7aabc" stroke="#1f78b5" stroke-width="0.0" fill-opacity="1.0" stroke-opacity="1.0"><rect x="0.3647561644817148" width="1.0000000000000009e-2" y="-0.12633139429191464" height="1.0000000000000009e-2"/></g><g fill="#eaabab" stroke="#1f78b5" stroke-width="0.0" fill-opacity="1.0" stroke-opacity="1.0"><rect x="0.3542723918694267" width="1.0000000000000009e-2" y="-0.1672179195357445" height="1.0000000000000009e-2"/></g><g fill="#e9ad9d" stroke="#1f78b5" stroke-width="0.0" fill-opacity="1.0" stroke-opacity="1.0"><rect x="0.3238472987405929" width="1.0000000000000009e-2" y="-0.20410218681553594" height="1.0000000000000009e-2"/></g><g fill="#e5b190" stroke="#1f78b5" stroke-width="0.0" fill-opacity="1.0" stroke-opacity="1.0"><rect x="0.27645910519475225" width="1.0000000000000009e-2" y="-0.23337370706214167" height="1.0000000000000009e-2"/></g><g fill="#dcb688" stroke="#1f78b5" stroke-width="0.0" fill-opacity="1.0" stroke-opacity="1.0"><rect x="0.21674649778913035" width="1.0000000000000009e-2" y="-0.2521671799271501" height="1.0000000000000009e-2"/></g><g fill="#d0bc86" stroke="#1f78b5" stroke-width="0.0" fill-opacity="1.0" stroke-opacity="1.0"><rect x="0.1505545625787894" width="1.0000000000000009e-2" y="-0.2586429693447092" height="1.0000000000000009e-2"/></g><g fill="#c2c289" stroke="#1f78b5" stroke-width="0.0" fill-opacity="1.0" stroke-opacity="1.0"><rect x="8.436262736844868e-2" width="1.0000000000000009e-2" y="-0.2521671799271502" height="1.0000000000000009e-2"/></g><g fill="#b2c792" stroke="#1f78b5" stroke-width="0.0" fill-opacity="1.0" stroke-opacity="1.0"><rect x="2.465001996282679e-2" width="9.999999999999998e-3" y="-0.23337370706214178" height="1.0000000000000009e-2"/></g><g fill="#a1cb9f" stroke="#1f78b5" stroke-width="0.0" fill-opacity="1.0" stroke-opacity="1.0"><rect x="-2.2738173583014106e-2" width="1.0000000000000002e-2" y="-0.20410218681553605" height="1.0000000000000009e-2"/></g><g fill="#92cdaf" stroke="#1f78b5" stroke-width="0.0" fill-opacity="1.0" stroke-opacity="1.0"><rect x="-5.316326671184778e-2" width="9.999999999999995e-3" y="-0.1672179195357445" height="1.0000000000000009e-2"/></g><g fill="#86cebf" stroke="#1f78b5" stroke-width="0.0" fill-opacity="1.0" stroke-opacity="1.0"><rect x="-6.364703932413573e-2" width="1.0000000000000002e-2" y="-0.12633139429191464" height="1.0000000000000009e-2"/></g><g fill="#81cdcf" stroke="#1f78b5" stroke-width="0.0" fill-opacity="1.0" stroke-opacity="1.0"><rect x="-5.3163266711848005e-2" width="9.999999999999995e-3" y="-8.544486904808496e-2" height="1.0000000000000009e-2"/></g><g fill="#84cadd" stroke="#1f78b5" stroke-width="0.0" fill-opacity="1.0" stroke-opacity="1.0"><rect x="-2.2738173583014106e-2" width="1.0000000000000002e-2" y="-4.8560601768293514e-2" height="9.999999999999995e-3"/></g><g fill="#8dc6e7" stroke="#1f78b5" stroke-width="0.0" fill-opacity="1.0" stroke-opacity="1.0"><rect x="2.465001996282679e-2" width="9.999999999999998e-3" y="-1.9289081521687675e-2" height="1.0000000000000002e-2"/></g><g fill="#9bc1ed" stroke="#1f78b5" stroke-width="0.0" fill-opacity="1.0" stroke-opacity="1.0"><rect x="8.436262736844835e-2" width="1.0000000000000009e-2" y="-4.956086566792984e-4" height="1.0000000000000002e-2"/></g><g fill="#abbcef" stroke="#1f78b5" stroke-width="0.0" fill-opacity="1.0" stroke-opacity="1.0"><rect x="0.1505545625787894" width="1.0000000000000009e-2" y="5.980180760879754e-3" height="1.0000000000000002e-2"/></g><g fill="#bbb7ec" stroke="#1f78b5" stroke-width="0.0" fill-opacity="1.0" stroke-opacity="1.0"><rect x="0.21674649778913035" width="1.0000000000000009e-2" y="-4.956086566791874e-4" height="1.0000000000000002e-2"/></g><g fill="#cab2e5" stroke="#1f78b5" stroke-width="0.0" fill-opacity="1.0" stroke-opacity="1.0"><rect x="0.27645910519475225" width="1.0000000000000009e-2" y="-1.9289081521687564e-2" height="1.0000000000000002e-2"/></g><g fill="#d6aed9" stroke="#1f78b5" stroke-width="0.0" fill-opacity="1.0" stroke-opacity="1.0"><rect x="0.3238472987405929" width="1.0000000000000009e-2" y="-4.8560601768293514e-2" height="9.999999999999995e-3"/></g><g fill="#e0abcb" stroke="#1f78b5" stroke-width="0.0" fill-opacity="1.0" stroke-opacity="1.0"><rect x="0.3542723918694267" width="1.0000000000000009e-2" y="-8.544486904808485e-2" height="1.0000000000000009e-2"/></g><g fill="#efa6bb" stroke="#1f78b5" stroke-width="0.0" fill-opacity="1.0" stroke-opacity="1.0"><rect x="0.4075964848622996" width="1.0000000000000009e-2" y="-0.12633139429191464" height="1.0000000000000009e-2"/></g><g fill="#f2a6a8" stroke="#1f78b5" stroke-width="0.0" fill-opacity="1.0" stroke-opacity="1.0"><rect x="0.3950159577275544" width="1.0000000000000009e-2" y="-0.1753952245845105" height="1.0000000000000009e-2"/></g><g fill="#f1a996" stroke="#1f78b5" stroke-width="0.0" fill-opacity="1.0" stroke-opacity="1.0"><rect x="0.35850584597295365" width="1.0000000000000009e-2" y="-0.21965634532026024" height="1.0000000000000009e-2"/></g><g fill="#ecae86" stroke="#1f78b5" stroke-width="0.0" fill-opacity="1.0" stroke-opacity="1.0"><rect x="0.3016400137179448" width="1.0000000000000009e-2" y="-0.25478216961618716" height="1.0000000000000009e-2"/></g><g fill="#e2b57c" stroke="#1f78b5" stroke-width="0.0" fill-opacity="1.0" stroke-opacity="1.0"><rect x="0.22998488483119872" width="1.0000000000000009e-2" y="-0.2773343370541973" height="1.0000000000000009e-2"/></g><g fill="#d4bc79" stroke="#1f78b5" stroke-width="0.0" fill-opacity="1.0" stroke-opacity="1.0"><rect x="0.1505545625787894" width="1.0000000000000009e-2" y="-0.28510528435526805" height="1.0000000000000009e-2"/></g><g fill="#c3c37d" stroke="#1f78b5" stroke-width="0.0" fill-opacity="1.0" stroke-opacity="1.0"><rect x="7.112424032638043e-2" width="1.0000000000000009e-2" y="-0.2773343370541973" height="1.0000000000000009e-2"/></g><g fill="#afc989" stroke="#1f78b5" stroke-width="0.0" fill-opacity="1.0" stroke-opacity="1.0"><rect x="-5.308885603657566e-4" width="1.0000000000000002e-2" y="-0.25478216961618716" height="1.0000000000000009e-2"/></g><g fill="#9bcd99" stroke="#1f78b5" stroke-width="0.0" fill-opacity="1.0" stroke-opacity="1.0"><rect x="-5.739672081537472e-2" width="9.999999999999995e-3" y="-0.21965634532026024" height="1.0000000000000009e-2"/></g><g fill="#87d0ac" stroke="#1f78b5" stroke-width="0.0" fill-opacity="1.0" stroke-opacity="1.0"><rect x="-9.390683256997534e-2" width="1.0000000000000009e-2" y="-0.1753952245845105" height="1.0000000000000009e-2"/></g><g fill="#78d1c0" stroke="#1f78b5" stroke-width="0.0" fill-opacity="1.0" stroke-opacity="1.0"><rect x="-0.10648735970472079" width="1.0000000000000009e-2" y="-0.12633139429191464" height="1.0000000000000009e-2"/></g><g fill="#71d0d2" stroke="#1f78b5" stroke-width="0.0" fill-opacity="1.0" stroke-opacity="1.0"><rect x="-9.390683256997534e-2" width="1.0000000000000009e-2" y="-7.726756399931894e-2" height="1.0000000000000009e-2"/></g><g fill="#75cde3" stroke="#1f78b5" stroke-width="0.0" fill-opacity="1.0" stroke-opacity="1.0"><rect x="-5.739672081537472e-2" width="9.999999999999995e-3" y="-3.300644326356927e-2" height="9.999999999999998e-3"/></g><g fill="#82c8ef" stroke="#1f78b5" stroke-width="0.0" fill-opacity="1.0" stroke-opacity="1.0"><rect x="-5.308885603658676e-4" width="1.0000000000000002e-2" y="2.1193810323577077e-3" height="1.0000000000000002e-2"/></g><g fill="#93c2f6" stroke="#1f78b5" stroke-width="0.0" fill-opacity="1.0" stroke-opacity="1.0"><rect x="7.112424032638043e-2" width="1.0000000000000009e-2" y="2.4671548470367847e-2" height="9.999999999999998e-3"/></g><g fill="#a7bbf8" stroke="#1f78b5" stroke-width="0.0" fill-opacity="1.0" stroke-opacity="1.0"><rect x="0.1505545625787894" width="1.0000000000000009e-2" y="3.244249577143866e-2" height="9.999999999999995e-3"/></g><g fill="#bab5f5" stroke="#1f78b5" stroke-width="0.0" fill-opacity="1.0" stroke-opacity="1.0"><rect x="0.22998488483119872" width="1.0000000000000009e-2" y="2.4671548470367847e-2" height="9.999999999999998e-3"/></g><g fill="#ccafec" stroke="#1f78b5" stroke-width="0.0" fill-opacity="1.0" stroke-opacity="1.0"><rect x="0.3016400137179446" width="1.0000000000000009e-2" y="2.119381032357763e-3" height="1.0000000000000002e-2"/></g><g fill="#dbaadf" stroke="#1f78b5" stroke-width="0.0" fill-opacity="1.0" stroke-opacity="1.0"><rect x="0.35850584597295365" width="1.0000000000000009e-2" y="-3.3006443263569045e-2" height="9.999999999999998e-3"/></g><g fill="#e7a7ce" stroke="#1f78b5" stroke-width="0.0" fill-opacity="1.0" stroke-opacity="1.0"><rect x="0.3950159577275544" width="1.0000000000000009e-2" y="-7.726756399931889e-2" height="1.0000000000000009e-2"/></g><g fill="#f6a1bb" stroke="#1f78b5" stroke-width="0.0" fill-opacity="1.0" stroke-opacity="1.0"><rect x="0.45043680524288476" width="1.0000000000000009e-2" y="-0.12633139429191464" height="1.0000000000000009e-2"/></g><g fill="#faa2a4" stroke="#1f78b5" stroke-width="0.0" fill-opacity="1.0" stroke-opacity="1.0"><rect x="0.4357595235856818" width="1.0000000000000009e-2" y="-0.18357252963327653" height="1.0000000000000009e-2"/></g><g fill="#f9a58e" stroke="#1f78b5" stroke-width="0.0" fill-opacity="1.0" stroke-opacity="1.0"><rect x="0.3931643932053145" width="1.0000000000000009e-2" y="-0.23521050382498443" height="1.0000000000000009e-2"/></g><g fill="#f3ab7c" stroke="#1f78b5" stroke-width="0.0" fill-opacity="1.0" stroke-opacity="1.0"><rect x="0.3268209222411371" width="1.0000000000000009e-2" y="-0.27619063217023254" height="1.0000000000000009e-2"/></g><g fill="#e8b36f" stroke="#1f78b5" stroke-width="0.0" fill-opacity="1.0" stroke-opacity="1.0"><rect x="0.24322327187326687" width="1.0000000000000009e-2" y="-0.3025014941812443" height="1.0000000000000009e-2"/></g><g fill="#d8bb6b" stroke="#1f78b5" stroke-width="0.0" fill-opacity="1.0" stroke-opacity="1.0"><rect x="0.1505545625787894" width="1.0000000000000009e-2" y="-0.3115675993658269" height="1.0000000000000009e-2"/></g><g fill="#c4c371" stroke="#1f78b5" stroke-width="0.0" fill-opacity="1.0" stroke-opacity="1.0"><rect x="5.788585328431218e-2" width="1.0000000000000002e-2" y="-0.3025014941812443" height="1.0000000000000009e-2"/></g><g fill="#adca7f" stroke="#1f78b5" stroke-width="0.0" fill-opacity="1.0" stroke-opacity="1.0"><rect x="-2.5711797083558415e-2" width="1.0000000000000002e-2" y="-0.27619063217023254" height="1.0000000000000009e-2"/></g><g fill="#94d092" stroke="#1f78b5" stroke-width="0.0" fill-opacity="1.0" stroke-opacity="1.0"><rect x="-9.205526804773534e-2" width="1.0000000000000009e-2" y="-0.23521050382498443" height="1.0000000000000009e-2"/></g><g fill="#7bd3a9" stroke="#1f78b5" stroke-width="0.0" fill-opacity="1.0" stroke-opacity="1.0"><rect x="-0.13465039842810278" width="1.0000000000000009e-2" y="-0.18357252963327653" height="1.0000000000000009e-2"/></g><g fill="#67d4c0" stroke="#1f78b5" stroke-width="0.0" fill-opacity="1.0" stroke-opacity="1.0"><rect x="-0.14932768008530567" width="1.0000000000000009e-2" y="-0.12633139429191464" height="1.0000000000000009e-2"/></g><g fill="#5ed2d6" stroke="#1f78b5" stroke-width="0.0" fill-opacity="1.0" stroke-opacity="1.0"><rect x="-0.13465039842810278" width="1.0000000000000009e-2" y="-6.909025895055304e-2" height="1.0000000000000002e-2"/></g><g fill="#63cfe9" stroke="#1f78b5" stroke-width="0.0" fill-opacity="1.0" stroke-opacity="1.0"><rect x="-9.205526804773534e-2" width="1.0000000000000009e-2" y="-1.7452284758844857e-2" height="1.0000000000000002e-2"/></g><g fill="#75c9f7" stroke="#1f78b5" stroke-width="0.0" fill-opacity="1.0" stroke-opacity="1.0"><rect x="-2.5711797083558415e-2" width="1.0000000000000002e-2" y="2.3527843586403144e-2" height="9.999999999999998e-3"/></g><g fill="#bab3fe" stroke="#1f78b5" stroke-width="0.0" fill-opacity="1.0" stroke-opacity="1.0"><rect x="0.24322327187326676" width="1.0000000000000009e-2" y="4.983870559741494e-2" height="9.999999999999995e-3"/></g><g fill="#ceacf4" stroke="#1f78b5" stroke-width="0.0" fill-opacity="1.0" stroke-opacity="1.0"><rect x="0.3268209222411371" width="1.0000000000000009e-2" y="2.3527843586403144e-2" height="9.999999999999998e-3"/></g><g fill="#e0a7e4" stroke="#1f78b5" stroke-width="0.0" fill-opacity="1.0" stroke-opacity="1.0"><rect x="0.3931643932053145" width="1.0000000000000009e-2" y="-1.7452284758844857e-2" height="1.0000000000000002e-2"/></g><g fill="#eda3d1" stroke="#1f78b5" stroke-width="0.0" fill-opacity="1.0" stroke-opacity="1.0"><rect x="0.4357595235856818" width="1.0000000000000009e-2" y="-6.909025895055299e-2" height="1.0000000000000002e-2"/></g><g fill="#fd9cba" stroke="#1f78b5" stroke-width="0.0" fill-opacity="1.0" stroke-opacity="1.0"><rect x="0.4932771256234699" width="1.0000000000000009e-2" y="-0.12633139429191464" height="1.0000000000000009e-2"/></g><g fill="#faa871" stroke="#1f78b5" stroke-width="0.0" fill-opacity="1.0" stroke-opacity="1.0"><rect x="0.3520018307643298" width="1.0000000000000009e-2" y="-0.29759909472427803" height="1.0000000000000009e-2"/></g><g fill="#edb161" stroke="#1f78b5" stroke-width="0.0" fill-opacity="1.0" stroke-opacity="1.0"><rect x="0.256461658915335" width="1.0000000000000009e-2" y="-0.32766865130829137" height="1.0000000000000009e-2"/></g><g fill="#dcba5b" stroke="#1f78b5" stroke-width="0.0" fill-opacity="1.0" stroke-opacity="1.0"><rect x="0.1505545625787894" width="1.0000000000000009e-2" y="-0.33802991437638585" height="1.0000000000000009e-2"/></g><g fill="#c5c463" stroke="#1f78b5" stroke-width="0.0" fill-opacity="1.0" stroke-opacity="1.0"><rect x="4.4647466242244034e-2" width="9.999999999999995e-3" y="-0.32766865130829137" height="1.0000000000000009e-2"/></g><g fill="#aacc74" stroke="#1f78b5" stroke-width="0.0" fill-opacity="1.0" stroke-opacity="1.0"><rect x="-5.089270560675096e-2" width="9.999999999999995e-3" y="-0.29759909472427803" height="1.0000000000000009e-2"/></g><g fill="#8dd28c" stroke="#1f78b5" stroke-width="0.0" fill-opacity="1.0" stroke-opacity="1.0"><rect x="-0.12671381528009612" width="1.0000000000000009e-2" y="-0.2507646623297086" height="1.0000000000000009e-2"/></g><g fill="#6ed6a6" stroke="#1f78b5" stroke-width="0.0" fill-opacity="1.0" stroke-opacity="1.0"><rect x="-0.17539396428623028" width="1.0000000000000009e-2" y="-0.19174983468204243" height="1.0000000000000009e-2"/></g><g fill="#52d7c1" stroke="#1f78b5" stroke-width="0.0" fill-opacity="1.0" stroke-opacity="1.0"><rect x="-0.19216800046589072" width="1.0000000000000009e-2" y="-0.12633139429191464" height="1.0000000000000009e-2"/></g><g fill="#44d5d9" stroke="#1f78b5" stroke-width="0.0" fill-opacity="1.0" stroke-opacity="1.0"><rect x="-0.17539396428623028" width="1.0000000000000009e-2" y="-6.091295390178696e-2" height="9.999999999999995e-3"/></g><g fill="#4dd1ef" stroke="#1f78b5" stroke-width="0.0" fill-opacity="1.0" stroke-opacity="1.0"><rect x="-0.1267138152800963" width="1.0000000000000009e-2" y="-1.8981262541206646e-3" height="1.0000000000000002e-2"/></g><g fill="#66caff" stroke="#1f78b5" stroke-width="0.0" fill-opacity="1.0" stroke-opacity="1.0"><rect x="-5.089270560675096e-2" width="9.999999999999995e-3" y="4.493630614044853e-2" height="9.999999999999995e-3"/></g><g fill="#d1a9fb" stroke="#1f78b5" stroke-width="0.0" fill-opacity="1.0" stroke-opacity="1.0"><rect x="0.3520018307643298" width="1.0000000000000009e-2" y="4.493630614044864e-2" height="9.999999999999995e-3"/></g><g fill="#e4a3e9" stroke="#1f78b5" stroke-width="0.0" fill-opacity="1.0" stroke-opacity="1.0"><rect x="0.4278229404376753" width="1.0000000000000009e-2" y="-1.8981262541206646e-3" height="1.0000000000000002e-2"/></g><g fill="#f39ed3" stroke="#1f78b5" stroke-width="0.0" fill-opacity="1.0" stroke-opacity="1.0"><rect x="0.47650308944380926" width="1.0000000000000009e-2" y="-6.091295390178696e-2" height="9.999999999999995e-3"/></g><g fill="#f3ae51" stroke="#1f78b5" stroke-width="0.0" fill-opacity="1.0" stroke-opacity="1.0"><rect x="0.26970004595740327" width="1.0000000000000009e-2" y="-0.35283580843533857" height="1.0000000000000009e-2"/></g><g fill="#dfb949" stroke="#1f78b5" stroke-width="0.0" fill-opacity="1.0" stroke-opacity="1.0"><rect x="0.1505545625787894" width="1.0000000000000009e-2" y="-0.3644922293869447" height="1.0000000000000009e-2"/></g><g fill="#c6c453" stroke="#1f78b5" stroke-width="0.0" fill-opacity="1.0" stroke-opacity="1.0"><rect x="3.140907920017578e-2" width="9.999999999999995e-3" y="-0.35283580843533857" height="1.0000000000000009e-2"/></g><g fill="#a8cd69" stroke="#1f78b5" stroke-width="0.0" fill-opacity="1.0" stroke-opacity="1.0"><rect x="-7.60736141299434e-2" width="1.0000000000000009e-2" y="-0.3190075572783234" height="1.0000000000000009e-2"/></g><g fill="#85d485" stroke="#1f78b5" stroke-width="0.0" fill-opacity="1.0" stroke-opacity="1.0"><rect x="-0.16137236251245685" width="1.0000000000000009e-2" y="-0.2663188208344329" height="1.0000000000000009e-2"/></g><g fill="#5fd9a3" stroke="#1f78b5" stroke-width="0.0" fill-opacity="1.0" stroke-opacity="1.0"><rect x="-0.21613753014435777" width="1.0000000000000009e-2" y="-0.19992713973080845" height="1.0000000000000009e-2"/></g><g fill="#34dac1" stroke="#1f78b5" stroke-width="0.0" fill-opacity="1.0" stroke-opacity="1.0"><rect x="-0.23500832084647583" width="1.0000000000000009e-2" y="-0.12633139429191464" height="1.0000000000000009e-2"/></g><g fill="#0dd8dd" stroke="#1f78b5" stroke-width="0.0" fill-opacity="1.0" stroke-opacity="1.0"><rect x="-0.21613753014435777" width="1.0000000000000009e-2" y="-5.273564885302106e-2" height="9.999999999999995e-3"/></g><g fill="#2ad3f5" stroke="#1f78b5" stroke-width="0.0" fill-opacity="1.0" stroke-opacity="1.0"><rect x="-0.16137236251245685" width="1.0000000000000009e-2" y="1.3656032250603637e-2" height="1.0000000000000002e-2"/></g><g fill="#e89fef" stroke="#1f78b5" stroke-width="0.0" fill-opacity="1.0" stroke-opacity="1.0"><rect x="0.46248148767003594" width="1.0000000000000009e-2" y="1.3656032250603637e-2" height="1.0000000000000002e-2"/></g><g fill="#f99ad6" stroke="#1f78b5" stroke-width="0.0" fill-opacity="1.0" stroke-opacity="1.0"><rect x="0.5172466553019367" width="1.0000000000000009e-2" y="-5.273564885302095e-2" height="9.999999999999995e-3"/></g><g fill="#f9ac3d" stroke="#1f78b5" stroke-width="0.0" fill-opacity="1.0" stroke-opacity="1.0"><rect x="0.2829384329994712" width="1.0000000000000009e-2" y="-0.37800296556238555" height="1.0000000000000009e-2"/></g><g fill="#e3b831" stroke="#1f78b5" stroke-width="0.0" fill-opacity="1.0" stroke-opacity="1.0"><rect x="0.1505545625787894" width="1.0000000000000009e-2" y="-0.39095454439750366" height="1.0000000000000009e-2"/></g><g fill="#c7c43f" stroke="#1f78b5" stroke-width="0.0" fill-opacity="1.0" stroke-opacity="1.0"><rect x="1.817069215810763e-2" width="1.0000000000000002e-2" y="-0.3780029655623858" height="1.0000000000000009e-2"/></g><g fill="#a6cf5c" stroke="#1f78b5" stroke-width="0.0" fill-opacity="1.0" stroke-opacity="1.0"><rect x="-0.10125452265313606" width="1.0000000000000009e-2" y="-0.3404160198323688" height="1.0000000000000009e-2"/></g><g fill="#7dd67d" stroke="#1f78b5" stroke-width="0.0" fill-opacity="1.0" stroke-opacity="1.0"><rect x="-0.19603090974481757" width="1.0000000000000009e-2" y="-0.2818729793391572" height="1.0000000000000009e-2"/></g><g fill="#4bdba0" stroke="#1f78b5" stroke-width="0.0" fill-opacity="1.0" stroke-opacity="1.0"><rect x="-0.25688109600248515" width="1.0000000000000009e-2" y="-0.20810444477957424" height="1.0000000000000009e-2"/></g><g fill="#ed9bf4" stroke="#1f78b5" stroke-width="0.0" fill-opacity="1.0" stroke-opacity="1.0"><rect x="0.49714003490239655" width="1.0000000000000009e-2" y="2.9210190755327884e-2" height="9.999999999999998e-3"/></g><g fill="#ff95d9" stroke="#1f78b5" stroke-width="0.0" fill-opacity="1.0" stroke-opacity="1.0"><rect x="0.5579902211600641" width="1.0000000000000009e-2" y="-4.4558343804255045e-2" height="9.999999999999995e-3"/></g><g fill="#fea91e" stroke="#1f78b5" stroke-width="0.0" fill-opacity="1.0" stroke-opacity="1.0"><rect x="0.29617682004153967" width="1.0000000000000009e-2" y="-0.40317012268943264" height="1.0000000000000009e-2"/></g><g fill="#c9c522" stroke="#1f78b5" stroke-width="0.0" fill-opacity="1.0" stroke-opacity="1.0"><rect x="4.932305116039375e-3" width="1.0000000000000002e-2" y="-0.40317012268943275" height="1.0000000000000009e-2"/></g><g fill="#a3d04d" stroke="#1f78b5" stroke-width="0.0" fill-opacity="1.0" stroke-opacity="1.0"><rect x="-0.12643543117632855" width="1.0000000000000009e-2" y="-0.3618244823864143" height="1.0000000000000009e-2"/></g><g fill="#75d976" stroke="#1f78b5" stroke-width="0.0" fill-opacity="1.0" stroke-opacity="1.0"><rect x="-0.23068945697717824" width="1.0000000000000009e-2" y="-0.29742713784388153" height="1.0000000000000009e-2"/></g><g fill="#30de9c" stroke="#1f78b5" stroke-width="0.0" fill-opacity="1.0" stroke-opacity="1.0"><rect x="-0.29762466186061254" width="1.0000000000000009e-2" y="-0.21628174982834025" height="1.0000000000000009e-2"/></g><g fill="#f196f9" stroke="#1f78b5" stroke-width="0.0" fill-opacity="1.0" stroke-opacity="1.0"><rect x="0.5317985821347572" width="1.0000000000000009e-2" y="4.4764349260052134e-2" height="9.999999999999995e-3"/></g><g fill="#a1d13c" stroke="#1f78b5" stroke-width="0.0" fill-opacity="1.0" stroke-opacity="1.0"><rect x="-0.15161633969952099" width="1.0000000000000009e-2" y="-0.38323294494045956" height="1.0000000000000009e-2"/></g><g fill="#6cdb6d" stroke="#1f78b5" stroke-width="0.0" fill-opacity="1.0" stroke-opacity="1.0"><rect x="-0.2653480042095389" width="1.0000000000000009e-2" y="-0.31298129634860594" height="1.0000000000000009e-2"/></g><g fill="#f592fe" stroke="#1f78b5" stroke-width="0.0" fill-opacity="1.0" stroke-opacity="1.0"><rect x="0.5664571293671178" width="1.0000000000000009e-2" y="6.031850776477638e-2" height="1.0000000000000002e-2"/></g><g fill="#9fd322" stroke="#1f78b5" stroke-width="0.0" fill-opacity="1.0" stroke-opacity="1.0"><rect x="-0.17679724822271364" width="1.0000000000000009e-2" y="-0.40464140749450506" height="1.0000000000000009e-2"/></g><g fill="#61dd65" stroke="#1f78b5" stroke-width="0.0" fill-opacity="1.0" stroke-opacity="1.0"><rect x="-0.3000065514418997" width="1.0000000000000009e-2" y="-0.32853545485333013" height="1.0000000000000009e-2"/></g><g fill="#55df5b" stroke="#1f78b5" stroke-width="0.0" fill-opacity="1.0" stroke-opacity="1.0"><rect x="-0.3346650986742603" width="1.0000000000000009e-2" y="-0.3440896133580543" height="1.0000000000000009e-2"/></g><g fill="#47e151" stroke="#1f78b5" stroke-width="0.0" fill-opacity="1.0" stroke-opacity="1.0"><rect x="-0.369323645906621" width="1.0000000000000009e-2" y="-0.3596437718627786" height="1.0000000000000009e-2"/></g><g fill="#35e345" stroke="#1f78b5" stroke-width="0.0" fill-opacity="1.0" stroke-opacity="1.0"><rect x="-0.40398219313898176" width="1.0000000000000009e-2" y="-0.3751979303675028" height="1.0000000000000009e-2"/></g><g fill="#16e437" stroke="#1f78b5" stroke-width="0.0" fill-opacity="1.0" stroke-opacity="1.0"><rect x="-0.4386407403713425" width="1.0000000000000009e-2" y="-0.390752088872227" height="1.0000000000000009e-2"/></g></g></g><g class="hud"><g class="frame"><g fill="#ffffff" stroke="#000000" stroke-width="0.0" fill-opacity="2.0e-2" stroke-opacity="0.0"><rect x="-0.5584507770976277" width="1.3084507770976275" y="-0.47416226109936654" height="0.7938694503167667"/></g></g><g class="axis"><g class="ticks"><g class="tickglyph"><g fill="#0d0d0d" stroke="#0d0d0d" stroke-width="4.0e-3" fill-opacity="0.4" stroke-opacity="0.4"><g transform="rotate(-90.0, -0.5841549693259788, 0.31970718921740016)"><polyline points="-0.5841549693259788,0.33470718921740017
-0.5841549693259788,0.30470718921740014"/></g><g transform="rotate(-90.0, -0.5841549693259788, 0.23149947251553718)"><polyline points="-0.5841549693259788,0.24649947251553717
-0.5841549693259788,0.2164994725155372"/></g><g transform="rotate(-90.0, -0.5841549693259788, 0.14329175581367426)"><polyline points="-0.5841549693259788,0.15829175581367427
-0.5841549693259788,0.12829175581367425"/></g><g transform="rotate(-90.0, -0.5841549693259788, 5.5084039111811256e-2)"><polyline points="-0.5841549693259788,7.008403911181126e-2
-0.5841549693259788,4.008403911181126e-2"/></g><g transform="rotate(-90.0, -0.5841549693259788, -3.312367759005175e-2)"><polyline points="-0.5841549693259788,-1.812367759005175e-2
-0.5841549693259788,-4.812367759005175e-2"/></g><g transform="rotate(-90.0, -0.5841549693259788, -0.12133139429191464)"><polyline points="-0.5841549693259788,-0.10633139429191464
-0.5841549693259788,-0.13633139429191465"/></g><g transform="rotate(-90.0, -0.5841549693259788, -0.20953911099377776)"><polyline points="-0.5841549693259788,-0.19453911099377774
-0.5841549693259788,-0.22453911099377777"/></g><g transform="rotate(-90.0, -0.5841549693259788, -0.29774682769564065)"><polyline points="-0.5841549693259788,-0.28274682769564063
-0.5841549693259788,-0.31274682769564066"/></g><g transform="rotate(-90.0, -0.5841549693259788, -0.38595454439750365)"><polyline points="-0.5841549693259788,-0.37095454439750364
-0.5841549693259788,-0.40095454439750366"/></g><g transform="rotate(-90.0, -0.5841549693259788, -0.47416226109936654)"><polyline points="-0.5841549693259788,-0.45916226109936653
-0.5841549693259788,-0.48916226109936656"/></g></g></g><g class="ticktext"><g fill="#0d0d0d" stroke="none" stroke-width="0.0" font-size="4.284032038058504e-2" fill-opacity="1.0" text-anchor="end"><text x="-0.615" y="0.3306228941592557">-0.25</text><text x="-0.615" y="0.24241517745739272">-0.20</text><text x="-0.615" y="0.15420746075552977">-0.15</text><text x="-0.615" y="6.599974405366676e-2">-0.10</text><text x="-0.615" y="-2.220797264819624e-2">-0.050</text><text x="-0.615" y="-0.11041568935005908">0.0</text><text x="-0.615" y="-0.1986234060519222">0.050</text><text x="-0.615" y="-0.2868311227537851">0.10</text><text x="-0.615" y="-0.3750388394556482">0.15</text><text x="-0.615" y="-0.463246556157511">0.20</text></g></g><g class="ticklines"><g fill="none" stroke="#0d0d0d" stroke-width="5.0e-3" stroke-opacity="5.0e-2"><polyline points="-0.5584507770976277,0.31970718921740016
0.7267588343199232,0.31970718921740016"/><polyline points="-0.5584507770976277,0.23149947251553718
0.7267588343199232,0.23149947251553718"/><polyline points="-0.5584507770976277,0.14329175581367426
0.7267588343199232,0.14329175581367426"/><polyline points="-0.5584507770976277,5.5084039111811256e-2
0.7267588343199232,5.5084039111811256e-2"/><polyline points="-0.5584507770976277,-3.312367759005175e-2
0.7267588343199232,-3.312367759005175e-2"/><polyline points="-0.5584507770976277,-0.12133139429191464
0.7267588343199232,-0.12133139429191464"/><polyline points="-0.5584507770976277,-0.20953911099377776
0.7267588343199232,-0.20953911099377776"/><polyline points="-0.5584507770976277,-0.29774682769564065
0.7267588343199232,-0.29774682769564065"/><polyline points="-0.5584507770976277,-0.38595454439750365
0.7267588343199232,-0.38595454439750365"/><polyline points="-0.5584507770976277,-0.47416226109936654
0.7267588343199232,-0.47416226109936654"/></g></g></g><g class="axisbar"><g fill="#0d0d0d" stroke="#000000" stroke-width="0.0" fill-opacity="0.4" stroke-opacity="0.0"><rect x="-0.5704460668041915" width="3.4272256304468396e-3" y="-0.47575" height="0.7970449281180336"/></g></g></g><g class="axis"><g class="ticks"><g class="tickglyph"><g fill="#0d0d0d" stroke="#0d0d0d" stroke-width="4.0e-3" fill-opacity="0.4" stroke-opacity="0.4"><polyline points="-0.5584507770976277,0.3585232727269032
-0.5584507770976277,0.3285232727269032"/><polyline points="-0.4156497091623443,0.3585232727269032
-0.4156497091623443,0.3285232727269032"/><polyline points="-0.2728486412270608,0.3585232727269032
-0.2728486412270608,0.3285232727269032"/><polyline points="-0.1300475732917774,0.3585232727269032
-0.1300475732917774,0.3285232727269032"/><polyline points="1.2753494643506169e-2,0.3585232727269032
1.2753494643506169e-2,0.3285232727269032"/><polyline points="0.1555545625787894,0.3585232727269032
0.1555545625787894,0.3285232727269032"/><polyline points="0.2983556305140729,0.3585232727269032
0.2983556305140729,0.3285232727269032"/><polyline points="0.4411566984493567,0.3585232727269032
0.4411566984493567,0.3285232727269032"/><polyline points="0.58395776638464,0.3585232727269032
0.58395776638464,0.3285232727269032"/><polyline points="0.7267588343199232,0.3585232727269032
0.7267588343199232,0.3285232727269032"/></g></g><g class="ticktext"><g fill="#0d0d0d" stroke="none" stroke-width="0.0" font-size="4.284032038058504e-2" fill-opacity="1.0" text-anchor="end"><text x="-0.5584507770976277" y="0.39393398282201786" transform="rotate(-45.0, -0.5584507770976277, 0.39393398282201786)">-0.25</text><text x="-0.4156497091623443" y="0.39393398282201786" transform="rotate(-45.0, -0.4156497091623443, 0.39393398282201786)">-0.20</text><text x="-0.2728486412270608" y="0.39393398282201786" transform="rotate(-45.0, -0.2728486412270608, 0.39393398282201786)">-0.15</text><text x="-0.1300475732917774" y="0.39393398282201786" transform="rotate(-45.0, -0.1300475732917774, 0.39393398282201786)">-0.10</text><text x="1.2753494643506169e-2" y="0.39393398282201786" transform="rotate(-45.0, 1.2753494643506169e-2, 0.39393398282201786)">-0.050</text><text x="0.1555545625787894" y="0.39393398282201786" transform="rotate(-45.0, 0.1555545625787894, 0.39393398282201786)">0.0</text><text x="0.2983556305140729" y="0.39393398282201786" transform="rotate(-45.0, 0.2983556305140729, 0.39393398282201786)">0.050</text><text x="0.4411566984493567" y="0.39393398282201786" transform="rotate(-45.0, 0.4411566984493567, 0.39393398282201786)">0.10</text><text x="0.58395776638464" y="0.39393398282201786" transform="rotate(-45.0, 0.58395776638464, 0.39393398282201786)">0.15</text><text x="0.7267588343199232" y="0.39393398282201786" transform="rotate(-45.0, 0.7267588343199232, 0.39393398282201786)">0.20</text></g></g><g class="ticklines"><g fill="none" stroke="#0d0d0d" stroke-width="5.0e-3" stroke-opacity="5.0e-2"><polyline points="-0.5584507770976277,0.31970718921740016
-0.5584507770976277,-0.47416226109936654"/><polyline points="-0.4156497091623443,0.31970718921740016
-0.4156497091623443,-0.47416226109936654"/><polyline points="-0.2728486412270608,0.31970718921740016
-0.2728486412270608,-0.47416226109936654"/><polyline points="-0.1300475732917774,0.31970718921740016
-0.1300475732917774,-0.47416226109936654"/><polyline points="1.2753494643506169e-2,0.31970718921740016
1.2753494643506169e-2,-0.47416226109936654"/><polyline points="0.1555545625787894,0.31970718921740016
0.1555545625787894,-0.47416226109936654"/><polyline points="0.2983556305140729,0.31970718921740016
0.2983556305140729,-0.47416226109936654"/><polyline points="0.4411566984493567,0.31970718921740016
0.4411566984493567,-0.47416226109936654"/><polyline points="0.58395776638464,0.31970718921740016
0.58395776638464,-0.47416226109936654"/><polyline points="0.7267588343199232,0.31970718921740016
0.7267588343199232,-0.47416226109936654"/></g></g></g><g class="axisbar"><g fill="#0d0d0d" stroke="#000000" stroke-width="0.0" fill-opacity="0.4" stroke-opacity="0.0"><rect x="-0.5601643899128511" width="1.2886368370479975" y="0.3276458837205678" height="3.1754778012670903e-3"/></g></g></g></g></svg>