<svg xmlns="http://www.w3.org/2000/svg" width="451.62214217250556" xmlns:xlink="http://www.w3.org/1999/xlink" viewBox="-0.731781319367409 -0.4978484285626692 1.4806198310116425 0.9835344812075835" height="300.0"><style>svg {
  color-scheme: light dark;
}
{
  .canvas g, .title g, .axisbar g, .ticktext g, .tickglyph g, .ticklines g, .legendContent g text {
    fill: #0d0d0d;
  }
  .ticklines g, .tickglyph g, .legendBorder g {
    stroke: #0d0d0d;
  }
}
@media (prefers-color-scheme:dark) {
  .canvas g, .title g, .axisbar g, .ticktext g, .tickglyph g, .ticklines g, .legendContent g text {
    fill: #f0f0f0;
  }
  .ticklines g, .tickglyph g, .legendBorder g {
    stroke: #f0f0f0;
  }
}</style><g class="chart"><g class="dots"><g fill="#02daef" stroke="#808080" stroke-width="3.0e-3" fill-opacity="1.0" stroke-opacity="1.0"><circle cy="0.12335881297088952" cx="-0.14885561732608948" r="4.0e-2"/></g><g fill="#024b78" stroke="#808080" stroke-width="3.0e-3" fill-opacity="1.0" stroke-opacity="1.0"><circle cy="0.180617399450911" cx="0.11673068675094966" r="4.0e-2"/></g><g fill="#feb45b" stroke="#808080" stroke-width="3.0e-3" fill-opacity="1.0" stroke-opacity="1.0"><circle cy="-0.30828147886385804" cx="0.40944725693880324" r="4.0e-2"/></g><g fill="#b95800" stroke="#808080" stroke-width="3.0e-3" fill-opacity="1.0" stroke-opacity="1.0"><circle cy="-0.28241382882569177" cx="0.5561479965412122" r="4.0e-2"/></g></g><g class="wheel"><g fill="#bebebd" stroke="#1f78b5" stroke-width="0.0" fill-opacity="1.0" stroke-opacity="1.0"><rect x="0.24807447396440652" width="1.0000000000000009e-2" y="-2.5522575204071304e-2" height="1.0000000000000002e-2"/></g><g fill="#bebebd" stroke="#1f78b5" stroke-width="0.0" fill-opacity="1.0" stroke-opacity="1.0"><rect x="0.24807447396440652" width="1.0000000000000009e-2" y="-2.5522575204071304e-2" height="1.0000000000000002e-2"/></g><g fill="#bebebd" stroke="#1f78b5" stroke-width="0.0" fill-opacity="1.0" stroke-opacity="1.0"><rect x="0.24807447396440652" width="1.0000000000000009e-2" y="-2.5522575204071304e-2" height="1.0000000000000002e-2"/></g><g fill="#bebebd" stroke="#1f78b5" stroke-width="0.0" fill-opacity="1.0" stroke-opacity="1.0"><rect x="0.24807447396440652" width="1.0000000000000009e-2" y="-2.5522575204071304e-2" height="1.0000000000000002e-2"/></g><g fill="#bebebd" stroke="#1f78b5" stroke-width="0.0" fill-opacity="1.0" stroke-opacity="1.0"><rect x="0.24807447396440652" width="1.0000000000000009e-2" y="-2.5522575204071304e-2" height="1.0000000000000002e-2"/></g><g fill="#bebebd" stroke="#1f78b5" stroke-width="0.0" fill-opacity="1.0" stroke-opacity="1.0"><rect x="0.24807447396440652" width="1.0000000000000009e-2" y="-2.5522575204071304e-2" height="1.0000000000000002e-2"/></g><g fill="#bebebd" stroke="#1f78b5" stroke-width="0.0" fill-opacity="1.0" stroke-opacity="1.0"><rect x="0.24807447396440652" width="1.0000000000000009e-2" y="-2.5522575204071304e-2" height="1.0000000000000002e-2"/></g><g fill="#bebebd" stroke="#1f78b5" stroke-width="0.0" fill-opacity="1.0" stroke-opacity="1.0"><rect x="0.24807447396440652" width="1.0000000000000009e-2" y="-2.5522575204071304e-2" height="1.0000000000000002e-2"/></g><g fill="#bebebd" stroke="#1f78b5" stroke-width="0.0" fill-opacity="1.0" stroke-opacity="1.0"><rect x="0.24807447396440652" width="1.0000000000000009e-2" y="-2.5522575204071304e-2" height="1.0000000000000002e-2"/></g><g fill="#bebebd" stroke="#1f78b5" stroke-width="0.0" fill-opacity="1.0" stroke-opacity="1.0"><rect x="0.24807447396440652" width="1.0000000000000009e-2" y="-2.5522575204071304e-2" height="1.0000000000000002e-2"/></g><g fill="#bebebd" stroke="#1f78b5" stroke-width="0.0" fill-opacity="1.0" stroke-opacity="1.0"><rect x="0.24807447396440652" width="1.0000000000000009e-2" y="-2.5522575204071304e-2" height="1.0000000000000002e-2"/></g><g fill="#bebebd" stroke="#1f78b5" stroke-width="0.0" fill-opacity="1.0" stroke-opacity="1.0"><rect x="0.24807447396440652" width="1.0000000000000009e-2" y="-2.5522575204071304e-2" height="1.0000000000000002e-2"/></g><g fill="#bebebd" stroke="#1f78b5" stroke-width="0.0" fill-opacity="1.0" stroke-opacity="1.0"><rect x="0.24807447396440652" width="1.0000000000000009e-2" y="-2.5522575204071304e-2" height="1.0000000000000002e-2"/></g><g fill="#bebebd" stroke="#1f78b5" stroke-width="0.0" fill-opacity="1.0" stroke-opacity="1.0"><rect x="0.24807447396440652" width="1.0000000000000009e-2" y="-2.5522575204071304e-2" height="1.0000000000000002e-2"/></g><g fill="#bebebd" stroke="#1f78b5" stroke-width="0.0" fill-opacity="1.0" stroke-opacity="1.0"><rect x="0.24807447396440652" width="1.0000000000000009e-2" y="-2.5522575204071304e-2" height="1.0000000000000002e-2"/></g><g fill="#bebebd" stroke="#1f78b5" stroke-width="0.0" fill-opacity="1.0" stroke-opacity="1.0"><rect x="0.24807447396440652" width="1.0000000000000009e-2" y="-2.5522575204071304e-2" height="1.0000000000000002e-2"/></g><g fill="#bebebd" stroke="#1f78b5" stroke-width="0.0" fill-opacity="1.0" stroke-opacity="1.0"><rect x="0.24807447396440652" width="1.0000000000000009e-2" y="-2.5522575204071304e-2" height="1.0000000000000002e-2"/></g><g fill="#bebebd" stroke="#1f78b5" stroke-width="0.0" fill-opacity="1.0" stroke-opacity="1.0"><rect x="0.24807447396440652" width="1.0000000000000009e-2" y="-2.5522575204071304e-2" height="1.0000000000000002e-2"/></g><g fill="#bebebd" stroke="#1f78b5" stroke-width="0.0" fill-opacity="1.0" stroke-opacity="1.0"><rect x="0.24807447396440652" width="1.0000000000000009e-2" y="-2.5522575204071304e-2" height="1.0000000000000002e-2"/></g><g fill="#bebebd" stroke="#1f78b5" stroke-width="0.0" fill-opacity="1.0" stroke-opacity="1.0"><rect x="0.24807447396440652" width="1.0000000000000009e-2" y="-2.5522575204071304e-2" height="1.0000000000000002e-2"/></g><g fill="#c7babd" stroke="#1f78b5" stroke-width="0.0" fill-opacity="1.0" stroke-opacity="1.0"><rect x="0.29673335703416026" width="1.0000000000000009e-2" y="-2.5522575204071304e-2" height="1.0000000000000002e-2"/></g><g fill="#c7baba" stroke="#1f78b5" stroke-width="0.0" fill-opacity="1.0" stroke-opacity="1.0"><rect x="0.2943518217835396" width="1.0000000000000009e-2" y="-3.6036253123913224e-2" height="9.999999999999998e-3"/></g><g fill="#c7bbb7" stroke="#1f78b5" stroke-width="0.0" fill-opacity="1.0" stroke-opacity="1.0"><rect x="0.28744033729514074" width="1.0000000000000009e-2" y="-4.5520778995859594e-2" height="9.999999999999995e-3"/></g><g fill="#c6bbb5" stroke="#1f78b5" stroke-width="0.0" fill-opacity="1.0" stroke-opacity="1.0"><rect x="0.27667544782583164" width="1.0000000000000009e-2" y="-5.304774134498679e-2" height="9.999999999999995e-3"/></g><g fill="#c4bcb3" stroke="#1f78b5" stroke-width="0.0" fill-opacity="1.0" stroke-opacity="1.0"><rect x="0.2631108957602638" width="1.0000000000000009e-2" y="-5.788034865313179e-2" height="9.999999999999995e-3"/></g><g fill="#c1bdb3" stroke="#1f78b5" stroke-width="0.0" fill-opacity="1.0" stroke-opacity="1.0"><rect x="0.24807447396440652" width="1.0000000000000009e-2" y="-5.9545551646218435e-2" height="9.999999999999995e-3"/></g><g fill="#bebfb4" stroke="#1f78b5" stroke-width="0.0" fill-opacity="1.0" stroke-opacity="1.0"><rect x="0.23303805216854911" width="1.0000000000000009e-2" y="-5.788034865313179e-2" height="9.999999999999995e-3"/></g><g fill="#bbc0b5" stroke="#1f78b5" stroke-width="0.0" fill-opacity="1.0" stroke-opacity="1.0"><rect x="0.21947350010298128" width="1.0000000000000009e-2" y="-5.304774134498679e-2" height="9.999999999999995e-3"/></g><g fill="#b8c0b8" stroke="#1f78b5" stroke-width="0.0" fill-opacity="1.0" stroke-opacity="1.0"><rect x="0.2087086106336723" width="1.0000000000000009e-2" y="-4.5520778995859594e-2" height="9.999999999999995e-3"/></g><g fill="#b6c1bb" stroke="#1f78b5" stroke-width="0.0" fill-opacity="1.0" stroke-opacity="1.0"><rect x="0.20179712614527345" width="1.0000000000000009e-2" y="-3.6036253123913224e-2" height="9.999999999999998e-3"/></g><g fill="#b4c1be" stroke="#1f78b5" stroke-width="0.0" fill-opacity="1.0" stroke-opacity="1.0"><rect x="0.19941559089465266" width="1.0000000000000009e-2" y="-2.5522575204071304e-2" height="1.0000000000000002e-2"/></g><g fill="#b3c1c1" stroke="#1f78b5" stroke-width="0.0" fill-opacity="1.0" stroke-opacity="1.0"><rect x="0.20179712614527345" width="1.0000000000000009e-2" y="-1.5008897284229269e-2" height="1.0000000000000002e-2"/></g><g fill="#b4c0c4" stroke="#1f78b5" stroke-width="0.0" fill-opacity="1.0" stroke-opacity="1.0"><rect x="0.2087086106336723" width="1.0000000000000009e-2" y="-5.524371412282954e-3" height="1.0e-2"/></g><g fill="#b5c0c6" stroke="#1f78b5" stroke-width="0.0" fill-opacity="1.0" stroke-opacity="1.0"><rect x="0.21947350010298128" width="1.0000000000000009e-2" y="2.0025909368441884e-3" height="1.0000000000000002e-2"/></g><g fill="#b7bfc7" stroke="#1f78b5" stroke-width="0.0" fill-opacity="1.0" stroke-opacity="1.0"><rect x="0.23303805216854911" width="1.0000000000000009e-2" y="6.835198244989242e-3" height="1.0000000000000002e-2"/></g><g fill="#babdc8" stroke="#1f78b5" stroke-width="0.0" fill-opacity="1.0" stroke-opacity="1.0"><rect x="0.24807447396440652" width="1.0000000000000009e-2" y="8.500401238075887e-3" height="1.0000000000000002e-2"/></g><g fill="#bdbcc7" stroke="#1f78b5" stroke-width="0.0" fill-opacity="1.0" stroke-opacity="1.0"><rect x="0.2631108957602638" width="1.0000000000000009e-2" y="6.835198244989242e-3" height="1.0000000000000002e-2"/></g><g fill="#c0bbc6" stroke="#1f78b5" stroke-width="0.0" fill-opacity="1.0" stroke-opacity="1.0"><rect x="0.27667544782583164" width="1.0000000000000009e-2" y="2.0025909368442995e-3" height="1.0000000000000002e-2"/></g><g fill="#c3bbc3" stroke="#1f78b5" stroke-width="0.0" fill-opacity="1.0" stroke-opacity="1.0"><rect x="0.28744033729514074" width="1.0000000000000009e-2" y="-5.524371412282954e-3" height="1.0e-2"/></g><g fill="#c5bac0" stroke="#1f78b5" stroke-width="0.0" fill-opacity="1.0" stroke-opacity="1.0"><rect x="0.2943518217835396" width="1.0000000000000009e-2" y="-1.5008897284229269e-2" height="1.0000000000000002e-2"/></g><g fill="#cfb6bd" stroke="#1f78b5" stroke-width="0.0" fill-opacity="1.0" stroke-opacity="1.0"><rect x="0.345392240103914" width="1.0000000000000009e-2" y="-2.5522575204071304e-2" height="1.0000000000000002e-2"/></g><g fill="#d1b6b6" stroke="#1f78b5" stroke-width="0.0" fill-opacity="1.0" stroke-opacity="1.0"><rect x="0.34062916960267287" width="1.0000000000000009e-2" y="-4.654993104375515e-2" height="9.999999999999995e-3"/></g><g fill="#d0b7b1" stroke="#1f78b5" stroke-width="0.0" fill-opacity="1.0" stroke-opacity="1.0"><rect x="0.32680620062587473" width="1.0000000000000009e-2" y="-6.551898278764795e-2" height="1.0000000000000002e-2"/></g><g fill="#ceb9ac" stroke="#1f78b5" stroke-width="0.0" fill-opacity="1.0" stroke-opacity="1.0"><rect x="0.3052764216872569" width="1.0000000000000009e-2" y="-8.057290748590229e-2" height="1.0000000000000009e-2"/></g><g fill="#cabba9" stroke="#1f78b5" stroke-width="0.0" fill-opacity="1.0" stroke-opacity="1.0"><rect x="0.2781473175561212" width="1.0000000000000009e-2" y="-9.023812210219229e-2" height="1.0000000000000009e-2"/></g><g fill="#c5bda8" stroke="#1f78b5" stroke-width="0.0" fill-opacity="1.0" stroke-opacity="1.0"><rect x="0.24807447396440652" width="1.0000000000000009e-2" y="-9.356852808836552e-2" height="1.0000000000000009e-2"/></g><g fill="#bfc0aa" stroke="#1f78b5" stroke-width="0.0" fill-opacity="1.0" stroke-opacity="1.0"><rect x="0.21800163037269193" width="1.0000000000000009e-2" y="-9.02381221021924e-2" height="1.0000000000000009e-2"/></g><g fill="#b9c2ad" stroke="#1f78b5" stroke-width="0.0" fill-opacity="1.0" stroke-opacity="1.0"><rect x="0.19087252624155626" width="1.0000000000000009e-2" y="-8.057290748590229e-2" height="1.0000000000000009e-2"/></g><g fill="#b3c3b2" stroke="#1f78b5" stroke-width="0.0" fill-opacity="1.0" stroke-opacity="1.0"><rect x="0.1693427473029382" width="1.0000000000000009e-2" y="-6.551898278764795e-2" height="1.0000000000000002e-2"/></g><g fill="#aec4b8" stroke="#1f78b5" stroke-width="0.0" fill-opacity="1.0" stroke-opacity="1.0"><rect x="0.15551977832614017" width="1.0000000000000009e-2" y="-4.654993104375515e-2" height="9.999999999999995e-3"/></g><g fill="#aac4be" stroke="#1f78b5" stroke-width="0.0" fill-opacity="1.0" stroke-opacity="1.0"><rect x="0.15075670782489903" width="1.0000000000000009e-2" y="-2.5522575204071304e-2" height="1.0000000000000002e-2"/></g><g fill="#a8c4c5" stroke="#1f78b5" stroke-width="0.0" fill-opacity="1.0" stroke-opacity="1.0"><rect x="0.15551977832614006" width="1.0000000000000009e-2" y="-4.4952193643873995e-3" height="1.0e-2"/></g><g fill="#a9c3ca" stroke="#1f78b5" stroke-width="0.0" fill-opacity="1.0" stroke-opacity="1.0"><rect x="0.1693427473029382" width="1.0000000000000009e-2" y="1.4473832379505284e-2" height="1.0000000000000002e-2"/></g><g fill="#acc1ce" stroke="#1f78b5" stroke-width="0.0" fill-opacity="1.0" stroke-opacity="1.0"><rect x="0.19087252624155626" width="1.0000000000000009e-2" y="2.9527757077759734e-2" height="9.999999999999998e-3"/></g><g fill="#b0bfd1" stroke="#1f78b5" stroke-width="0.0" fill-opacity="1.0" stroke-opacity="1.0"><rect x="0.21800163037269193" width="1.0000000000000009e-2" y="3.919297169404979e-2" height="9.999999999999995e-3"/></g><g fill="#b6bdd2" stroke="#1f78b5" stroke-width="0.0" fill-opacity="1.0" stroke-opacity="1.0"><rect x="0.24807447396440652" width="1.0000000000000009e-2" y="4.252337768022297e-2" height="9.999999999999995e-3"/></g><g fill="#bcbbd0" stroke="#1f78b5" stroke-width="0.0" fill-opacity="1.0" stroke-opacity="1.0"><rect x="0.2781473175561212" width="1.0000000000000009e-2" y="3.919297169404979e-2" height="9.999999999999995e-3"/></g><g fill="#c2b9cd" stroke="#1f78b5" stroke-width="0.0" fill-opacity="1.0" stroke-opacity="1.0"><rect x="0.3052764216872569" width="1.0000000000000009e-2" y="2.9527757077759734e-2" height="9.999999999999998e-3"/></g><g fill="#c8b8c9" stroke="#1f78b5" stroke-width="0.0" fill-opacity="1.0" stroke-opacity="1.0"><rect x="0.32680620062587473" width="1.0000000000000009e-2" y="1.4473832379505284e-2" height="1.0000000000000002e-2"/></g><g fill="#ccb7c3" stroke="#1f78b5" stroke-width="0.0" fill-opacity="1.0" stroke-opacity="1.0"><rect x="0.34062916960267287" width="1.0000000000000009e-2" y="-4.495219364387344e-3" height="1.0e-2"/></g><g fill="#d7b2bc" stroke="#1f78b5" stroke-width="0.0" fill-opacity="1.0" stroke-opacity="1.0"><rect x="0.39405112317366753" width="1.0000000000000009e-2" y="-2.5522575204071304e-2" height="1.0000000000000002e-2"/></g><g fill="#d9b3b3" stroke="#1f78b5" stroke-width="0.0" fill-opacity="1.0" stroke-opacity="1.0"><rect x="0.38690651742180615" width="1.0000000000000009e-2" y="-5.706360896359713e-2" height="9.999999999999995e-3"/></g><g fill="#d9b4aa" stroke="#1f78b5" stroke-width="0.0" fill-opacity="1.0" stroke-opacity="1.0"><rect x="0.36617206395660906" width="1.0000000000000009e-2" y="-8.55171865794363e-2" height="1.0000000000000009e-2"/></g><g fill="#d6b7a3" stroke="#1f78b5" stroke-width="0.0" fill-opacity="1.0" stroke-opacity="1.0"><rect x="0.333877395548682" width="1.0000000000000009e-2" y="-0.10809807362681789" height="1.0000000000000009e-2"/></g><g fill="#d0ba9f" stroke="#1f78b5" stroke-width="0.0" fill-opacity="1.0" stroke-opacity="1.0"><rect x="0.2931837393519785" width="1.0000000000000009e-2" y="-0.12259589555125294" height="1.0000000000000009e-2"/></g><g fill="#c9bd9d" stroke="#1f78b5" stroke-width="0.0" fill-opacity="1.0" stroke-opacity="1.0"><rect x="0.24807447396440652" width="1.0000000000000009e-2" y="-0.1275915045305127" height="1.0000000000000009e-2"/></g><g fill="#c0c09f" stroke="#1f78b5" stroke-width="0.0" fill-opacity="1.0" stroke-opacity="1.0"><rect x="0.20296520857683464" width="1.0000000000000009e-2" y="-0.12259589555125294" height="1.0000000000000009e-2"/></g><g fill="#b6c3a4" stroke="#1f78b5" stroke-width="0.0" fill-opacity="1.0" stroke-opacity="1.0"><rect x="0.1622715523801309" width="1.0000000000000009e-2" y="-0.10809807362681789" height="1.0000000000000009e-2"/></g><g fill="#adc6ac" stroke="#1f78b5" stroke-width="0.0" fill-opacity="1.0" stroke-opacity="1.0"><rect x="0.12997688397220397" width="1.0000000000000009e-2" y="-8.55171865794363e-2" height="1.0000000000000009e-2"/></g><g fill="#a5c7b5" stroke="#1f78b5" stroke-width="0.0" fill-opacity="1.0" stroke-opacity="1.0"><rect x="0.10924243050700677" width="1.0000000000000009e-2" y="-5.706360896359713e-2" height="9.999999999999995e-3"/></g><g fill="#9fc8bf" stroke="#1f78b5" stroke-width="0.0" fill-opacity="1.0" stroke-opacity="1.0"><rect x="0.1020978247551454" width="1.0000000000000009e-2" y="-2.5522575204071304e-2" height="1.0000000000000002e-2"/></g><g fill="#9dc7c8" stroke="#1f78b5" stroke-width="0.0" fill-opacity="1.0" stroke-opacity="1.0"><rect x="0.10924243050700677" width="1.0000000000000009e-2" y="6.01845855545458e-3" height="1.0000000000000002e-2"/></g><g fill="#9ec6d0" stroke="#1f78b5" stroke-width="0.0" fill-opacity="1.0" stroke-opacity="1.0"><rect x="0.12997688397220397" width="1.0000000000000009e-2" y="3.447203617129364e-2" height="9.999999999999995e-3"/></g><g fill="#a2c3d7" stroke="#1f78b5" stroke-width="0.0" fill-opacity="1.0" stroke-opacity="1.0"><rect x="0.1622715523801309" width="1.0000000000000009e-2" y="5.705292321867523e-2" height="1.0000000000000002e-2"/></g><g fill="#a9c0da" stroke="#1f78b5" stroke-width="0.0" fill-opacity="1.0" stroke-opacity="1.0"><rect x="0.20296520857683464" width="1.0000000000000009e-2" y="7.155074514311033e-2" height="1.0000000000000009e-2"/></g><g fill="#b2bddc" stroke="#1f78b5" stroke-width="0.0" fill-opacity="1.0" stroke-opacity="1.0"><rect x="0.24807447396440652" width="1.0000000000000009e-2" y="7.65463541223701e-2" height="1.0000000000000009e-2"/></g><g fill="#bcbada" stroke="#1f78b5" stroke-width="0.0" fill-opacity="1.0" stroke-opacity="1.0"><rect x="0.2931837393519783" width="1.0000000000000009e-2" y="7.155074514311033e-2" height="1.0000000000000009e-2"/></g><g fill="#c5b7d5" stroke="#1f78b5" stroke-width="0.0" fill-opacity="1.0" stroke-opacity="1.0"><rect x="0.333877395548682" width="1.0000000000000009e-2" y="5.7052923218675285e-2" height="1.0000000000000002e-2"/></g><g fill="#cdb4ce" stroke="#1f78b5" stroke-width="0.0" fill-opacity="1.0" stroke-opacity="1.0"><rect x="0.36617206395660906" width="1.0000000000000009e-2" y="3.447203617129369e-2" height="9.999999999999995e-3"/></g><g fill="#d3b3c6" stroke="#1f78b5" stroke-width="0.0" fill-opacity="1.0" stroke-opacity="1.0"><rect x="0.38690651742180615" width="1.0000000000000009e-2" y="6.01845855545458e-3" height="1.0000000000000002e-2"/></g><g fill="#dfaebc" stroke="#1f78b5" stroke-width="0.0" fill-opacity="1.0" stroke-opacity="1.0"><rect x="0.4427100062434214" width="1.0000000000000009e-2" y="-2.5522575204071304e-2" height="1.0000000000000002e-2"/></g><g fill="#e2afaf" stroke="#1f78b5" stroke-width="0.0" fill-opacity="1.0" stroke-opacity="1.0"><rect x="0.4331838652409391" width="1.0000000000000009e-2" y="-6.757728688343911e-2" height="1.0000000000000002e-2"/></g><g fill="#e1b1a3" stroke="#1f78b5" stroke-width="0.0" fill-opacity="1.0" stroke-opacity="1.0"><rect x="0.4055379272873433" width="1.0000000000000009e-2" y="-0.1055153903712246" height="1.0000000000000009e-2"/></g><g fill="#ddb49a" stroke="#1f78b5" stroke-width="0.0" fill-opacity="1.0" stroke-opacity="1.0"><rect x="0.3624783694101069" width="1.0000000000000009e-2" y="-0.13562323976773338" height="1.0000000000000009e-2"/></g><g fill="#d6b894" stroke="#1f78b5" stroke-width="0.0" fill-opacity="1.0" stroke-opacity="1.0"><rect x="0.3082201611478357" width="1.0000000000000009e-2" y="-0.15495366900031338" height="1.0000000000000009e-2"/></g><g fill="#cdbd92" stroke="#1f78b5" stroke-width="0.0" fill-opacity="1.0" stroke-opacity="1.0"><rect x="0.24807447396440652" width="1.0000000000000009e-2" y="-0.16161448097265985" height="1.0000000000000009e-2"/></g><g fill="#c1c195" stroke="#1f78b5" stroke-width="0.0" fill-opacity="1.0" stroke-opacity="1.0"><rect x="0.18792878678097724" width="1.0000000000000009e-2" y="-0.15495366900031338" height="1.0000000000000009e-2"/></g><g fill="#b4c59b" stroke="#1f78b5" stroke-width="0.0" fill-opacity="1.0" stroke-opacity="1.0"><rect x="0.1336705785187059" width="1.0000000000000009e-2" y="-0.13562323976773338" height="1.0000000000000009e-2"/></g><g fill="#a7c8a6" stroke="#1f78b5" stroke-width="0.0" fill-opacity="1.0" stroke-opacity="1.0"><rect x="9.061102064146964e-2" width="1.0000000000000009e-2" y="-0.1055153903712246" height="1.0000000000000009e-2"/></g><g fill="#9ccab2" stroke="#1f78b5" stroke-width="0.0" fill-opacity="1.0" stroke-opacity="1.0"><rect x="6.296508268787371e-2" width="1.0000000000000009e-2" y="-6.757728688343911e-2" height="1.0000000000000002e-2"/></g><g fill="#93cbbf" stroke="#1f78b5" stroke-width="0.0" fill-opacity="1.0" stroke-opacity="1.0"><rect x="5.3438941685391546e-2" width="1.0000000000000002e-2" y="-2.5522575204071304e-2" height="1.0000000000000002e-2"/></g><g fill="#90cacc" stroke="#1f78b5" stroke-width="0.0" fill-opacity="1.0" stroke-opacity="1.0"><rect x="6.296508268787371e-2" width="1.0000000000000009e-2" y="1.6532136475296447e-2" height="1.0000000000000002e-2"/></g><g fill="#91c8d6" stroke="#1f78b5" stroke-width="0.0" fill-opacity="1.0" stroke-opacity="1.0"><rect x="9.061102064146964e-2" width="1.0000000000000009e-2" y="5.4470239963081986e-2" height="1.0000000000000002e-2"/></g><g fill="#98c5df" stroke="#1f78b5" stroke-width="0.0" fill-opacity="1.0" stroke-opacity="1.0"><rect x="0.1336705785187059" width="1.0000000000000009e-2" y="8.457808935959077e-2" height="1.0000000000000009e-2"/></g><g fill="#a2c1e4" stroke="#1f78b5" stroke-width="0.0" fill-opacity="1.0" stroke-opacity="1.0"><rect x="0.18792878678097724" width="1.0000000000000009e-2" y="0.10390851859217082" height="1.0000000000000009e-2"/></g><g fill="#aebde5" stroke="#1f78b5" stroke-width="0.0" fill-opacity="1.0" stroke-opacity="1.0"><rect x="0.24807447396440652" width="1.0000000000000009e-2" y="0.11056933056451723" height="1.0000000000000009e-2"/></g><g fill="#bbb8e3" stroke="#1f78b5" stroke-width="0.0" fill-opacity="1.0" stroke-opacity="1.0"><rect x="0.3082201611478357" width="1.0000000000000009e-2" y="0.10390851859217082" height="1.0000000000000009e-2"/></g><g fill="#c7b4dd" stroke="#1f78b5" stroke-width="0.0" fill-opacity="1.0" stroke-opacity="1.0"><rect x="0.3624783694101069" width="1.0000000000000009e-2" y="8.457808935959077e-2" height="1.0000000000000009e-2"/></g><g fill="#d2b1d4" stroke="#1f78b5" stroke-width="0.0" fill-opacity="1.0" stroke-opacity="1.0"><rect x="0.4055379272873433" width="1.0000000000000009e-2" y="5.447023996308204e-2" height="1.0000000000000002e-2"/></g><g fill="#daafc9" stroke="#1f78b5" stroke-width="0.0" fill-opacity="1.0" stroke-opacity="1.0"><rect x="0.4331838652409391" width="1.0000000000000009e-2" y="1.6532136475296503e-2" height="1.0000000000000002e-2"/></g><g fill="#e7aabc" stroke="#1f78b5" stroke-width="0.0" fill-opacity="1.0" stroke-opacity="1.0"><rect x="0.491368889313175" width="1.0000000000000009e-2" y="-2.5522575204071304e-2" height="1.0000000000000002e-2"/></g><g fill="#eaabab" stroke="#1f78b5" stroke-width="0.0" fill-opacity="1.0" stroke-opacity="1.0"><rect x="0.4794612130600723" width="1.0000000000000009e-2" y="-7.809096480328104e-2" height="1.0000000000000009e-2"/></g><g fill="#e9ad9d" stroke="#1f78b5" stroke-width="0.0" fill-opacity="1.0" stroke-opacity="1.0"><rect x="0.4449037906180774" width="1.0000000000000009e-2" y="-0.1255135941630129" height="1.0000000000000009e-2"/></g><g fill="#e5b190" stroke="#1f78b5" stroke-width="0.0" fill-opacity="1.0" stroke-opacity="1.0"><rect x="0.3910793432715324" width="1.0000000000000009e-2" y="-0.16314840590864887" height="1.0000000000000009e-2"/></g><g fill="#dcb688" stroke="#1f78b5" stroke-width="0.0" fill-opacity="1.0" stroke-opacity="1.0"><rect x="0.32325658294369297" width="1.0000000000000009e-2" y="-0.18731144244937403" height="1.0000000000000009e-2"/></g><g fill="#d0bc86" stroke="#1f78b5" stroke-width="0.0" fill-opacity="1.0" stroke-opacity="1.0"><rect x="0.24807447396440652" width="1.0000000000000009e-2" y="-0.1956374574148071" height="1.0000000000000009e-2"/></g><g fill="#c2c289" stroke="#1f78b5" stroke-width="0.0" fill-opacity="1.0" stroke-opacity="1.0"><rect x="0.17289236498512006" width="1.0000000000000009e-2" y="-0.18731144244937403" height="1.0000000000000009e-2"/></g><g fill="#b2c792" stroke="#1f78b5" stroke-width="0.0" fill-opacity="1.0" stroke-opacity="1.0"><rect x="0.10506960465728077" width="1.0000000000000009e-2" y="-0.16314840590864887" height="1.0000000000000009e-2"/></g><g fill="#a1cb9f" stroke="#1f78b5" stroke-width="0.0" fill-opacity="1.0" stroke-opacity="1.0"><rect x="5.124515731073565e-2" width="9.999999999999995e-3" y="-0.1255135941630129" height="1.0000000000000009e-2"/></g><g fill="#92cdaf" stroke="#1f78b5" stroke-width="0.0" fill-opacity="1.0" stroke-opacity="1.0"><rect x="1.6687734868740537e-2" width="1.0000000000000002e-2" y="-7.809096480328104e-2" height="1.0000000000000009e-2"/></g><g fill="#86cebf" stroke="#1f78b5" stroke-width="0.0" fill-opacity="1.0" stroke-opacity="1.0"><rect x="4.78005861563791e-3" width="1.0000000000000002e-2" y="-2.5522575204071304e-2" height="1.0000000000000002e-2"/></g><g fill="#81cdcf" stroke="#1f78b5" stroke-width="0.0" fill-opacity="1.0" stroke-opacity="1.0"><rect x="1.6687734868740537e-2" width="1.0000000000000002e-2" y="2.7045814395138427e-2" height="9.999999999999998e-3"/></g><g fill="#84cadd" stroke="#1f78b5" stroke-width="0.0" fill-opacity="1.0" stroke-opacity="1.0"><rect x="5.124515731073565e-2" width="9.999999999999995e-3" y="7.446844375487033e-2" height="1.0000000000000009e-2"/></g><g fill="#8dc6e7" stroke="#1f78b5" stroke-width="0.0" fill-opacity="1.0" stroke-opacity="1.0"><rect x="0.10506960465728077" width="1.0000000000000009e-2" y="0.11210325550050632" height="1.0000000000000009e-2"/></g><g fill="#9bc1ed" stroke="#1f78b5" stroke-width="0.0" fill-opacity="1.0" stroke-opacity="1.0"><rect x="0.17289236498511984" width="1.0000000000000009e-2" y="0.13626629204123136" height="1.0000000000000009e-2"/></g><g fill="#abbcef" stroke="#1f78b5" stroke-width="0.0" fill-opacity="1.0" stroke-opacity="1.0"><rect x="0.24807447396440652" width="1.0000000000000009e-2" y="0.14459230700666442" height="1.0000000000000009e-2"/></g><g fill="#bbb7ec" stroke="#1f78b5" stroke-width="0.0" fill-opacity="1.0" stroke-opacity="1.0"><rect x="0.32325658294369297" width="1.0000000000000009e-2" y="0.13626629204123142" height="1.0000000000000009e-2"/></g><g fill="#cab2e5" stroke="#1f78b5" stroke-width="0.0" fill-opacity="1.0" stroke-opacity="1.0"><rect x="0.39107934327153215" width="1.0000000000000009e-2" y="0.11210325550050637" height="1.0000000000000009e-2"/></g><g fill="#d6aed9" stroke="#1f78b5" stroke-width="0.0" fill-opacity="1.0" stroke-opacity="1.0"><rect x="0.4449037906180774" width="1.0000000000000009e-2" y="7.446844375487033e-2" height="1.0000000000000009e-2"/></g><g fill="#e0abcb" stroke="#1f78b5" stroke-width="0.0" fill-opacity="1.0" stroke-opacity="1.0"><rect x="0.4794612130600723" width="1.0000000000000009e-2" y="2.7045814395138538e-2" height="9.999999999999998e-3"/></g><g fill="#efa6bb" stroke="#1f78b5" stroke-width="0.0" fill-opacity="1.0" stroke-opacity="1.0"><rect x="0.5400277723829287" width="1.0000000000000009e-2" y="-2.5522575204071304e-2" height="1.0000000000000002e-2"/></g><g fill="#f2a6a8" stroke="#1f78b5" stroke-width="0.0" fill-opacity="1.0" stroke-opacity="1.0"><rect x="0.5257385608792057" width="1.0000000000000009e-2" y="-8.860464272312307e-2" height="1.0000000000000009e-2"/></g><g fill="#f1a996" stroke="#1f78b5" stroke-width="0.0" fill-opacity="1.0" stroke-opacity="1.0"><rect x="0.4842696539488113" width="1.0000000000000009e-2" y="-0.1455117979548013" height="1.0000000000000009e-2"/></g><g fill="#ecae86" stroke="#1f78b5" stroke-width="0.0" fill-opacity="1.0" stroke-opacity="1.0"><rect x="0.4196803171329574" width="1.0000000000000009e-2" y="-0.19067357204956448" height="1.0000000000000009e-2"/></g><g fill="#e2b57c" stroke="#1f78b5" stroke-width="0.0" fill-opacity="1.0" stroke-opacity="1.0"><rect x="0.33829300473955026" width="1.0000000000000009e-2" y="-0.21966921589843458" height="1.0000000000000009e-2"/></g><g fill="#d4bc79" stroke="#1f78b5" stroke-width="0.0" fill-opacity="1.0" stroke-opacity="1.0"><rect x="0.24807447396440652" width="1.0000000000000009e-2" y="-0.22966043385695412" height="1.0000000000000009e-2"/></g><g fill="#c3c37d" stroke="#1f78b5" stroke-width="0.0" fill-opacity="1.0" stroke-opacity="1.0"><rect x="0.15785594318926266" width="1.0000000000000009e-2" y="-0.21966921589843458" height="1.0000000000000009e-2"/></g><g fill="#afc989" stroke="#1f78b5" stroke-width="0.0" fill-opacity="1.0" stroke-opacity="1.0"><rect x="7.646863079585575e-2" width="1.0000000000000009e-2" y="-0.19067357204956448" height="1.0000000000000009e-2"/></g><g fill="#9bcd99" stroke="#1f78b5" stroke-width="0.0" fill-opacity="1.0" stroke-opacity="1.0"><rect x="1.187929398000154e-2" width="1.0000000000000002e-2" y="-0.1455117979548013" height="1.0000000000000009e-2"/></g><g fill="#87d0ac" stroke="#1f78b5" stroke-width="0.0" fill-opacity="1.0" stroke-opacity="1.0"><rect x="-2.9589612950392637e-2" width="1.0000000000000002e-2" y="-8.860464272312307e-2" height="1.0000000000000009e-2"/></g><g fill="#78d1c0" stroke="#1f78b5" stroke-width="0.0" fill-opacity="1.0" stroke-opacity="1.0"><rect x="-4.387882445411583e-2" width="9.999999999999995e-3" y="-2.5522575204071304e-2" height="1.0000000000000002e-2"/></g><g fill="#71d0d2" stroke="#1f78b5" stroke-width="0.0" fill-opacity="1.0" stroke-opacity="1.0"><rect x="-2.9589612950392637e-2" width="1.0000000000000002e-2" y="3.7559492314980354e-2" height="9.999999999999995e-3"/></g><g fill="#75cde3" stroke="#1f78b5" stroke-width="0.0" fill-opacity="1.0" stroke-opacity="1.0"><rect x="1.187929398000154e-2" width="1.0000000000000002e-2" y="9.446664754665857e-2" height="1.0000000000000009e-2"/></g><g fill="#82c8ef" stroke="#1f78b5" stroke-width="0.0" fill-opacity="1.0" stroke-opacity="1.0"><rect x="7.646863079585575e-2" width="1.0000000000000009e-2" y="0.1396284216414218" height="1.0000000000000009e-2"/></g><g fill="#93c2f6" stroke="#1f78b5" stroke-width="0.0" fill-opacity="1.0" stroke-opacity="1.0"><rect x="0.15785594318926266" width="1.0000000000000009e-2" y="0.16862406549029196" height="1.0000000000000009e-2"/></g><g fill="#a7bbf8" stroke="#1f78b5" stroke-width="0.0" fill-opacity="1.0" stroke-opacity="1.0"><rect x="0.2480744739644064" width="1.0000000000000009e-2" y="0.1786152834488115" height="1.0000000000000009e-2"/></g><g fill="#bab5f5" stroke="#1f78b5" stroke-width="0.0" fill-opacity="1.0" stroke-opacity="1.0"><rect x="0.33829300473955026" width="1.0000000000000009e-2" y="0.16862406549029196" height="1.0000000000000009e-2"/></g><g fill="#ccafec" stroke="#1f78b5" stroke-width="0.0" fill-opacity="1.0" stroke-opacity="1.0"><rect x="0.41968031713295717" width="1.0000000000000009e-2" y="0.13962842164142186" height="1.0000000000000009e-2"/></g><g fill="#dbaadf" stroke="#1f78b5" stroke-width="0.0" fill-opacity="1.0" stroke-opacity="1.0"><rect x="0.4842696539488113" width="1.0000000000000009e-2" y="9.446664754665868e-2" height="1.0000000000000009e-2"/></g><g fill="#e7a7ce" stroke="#1f78b5" stroke-width="0.0" fill-opacity="1.0" stroke-opacity="1.0"><rect x="0.5257385608792057" width="1.0000000000000009e-2" y="3.7559492314980465e-2" height="9.999999999999995e-3"/></g><g fill="#f6a1bb" stroke="#1f78b5" stroke-width="0.0" fill-opacity="1.0" stroke-opacity="1.0"><rect x="0.5886866554526823" width="1.0000000000000009e-2" y="-2.5522575204071304e-2" height="1.0000000000000002e-2"/></g><g fill="#faa2a4" stroke="#1f78b5" stroke-width="0.0" fill-opacity="1.0" stroke-opacity="1.0"><rect x="0.5720159086983388" width="1.0000000000000009e-2" y="-9.9118320642965e-2" height="1.0000000000000009e-2"/></g><g fill="#f9a58e" stroke="#1f78b5" stroke-width="0.0" fill-opacity="1.0" stroke-opacity="1.0"><rect x="0.5236355172795456" width="1.0000000000000009e-2" y="-0.16551000174658959" height="1.0000000000000009e-2"/></g><g fill="#f3ab7c" stroke="#1f78b5" stroke-width="0.0" fill-opacity="1.0" stroke-opacity="1.0"><rect x="0.4482812909943824" width="1.0000000000000009e-2" y="-0.21819873819047997" height="1.0000000000000009e-2"/></g><g fill="#e8b36f" stroke="#1f78b5" stroke-width="0.0" fill-opacity="1.0" stroke-opacity="1.0"><rect x="0.35332942653540755" width="1.0000000000000009e-2" y="-0.252026989347495" height="1.0000000000000009e-2"/></g><g fill="#d8bb6b" stroke="#1f78b5" stroke-width="0.0" fill-opacity="1.0" stroke-opacity="1.0"><rect x="0.24807447396440652" width="1.0000000000000009e-2" y="-0.26368341029910125" height="1.0000000000000009e-2"/></g><g fill="#c4c371" stroke="#1f78b5" stroke-width="0.0" fill-opacity="1.0" stroke-opacity="1.0"><rect x="0.14281952139340526" width="1.0000000000000009e-2" y="-0.252026989347495" height="1.0000000000000009e-2"/></g><g fill="#adca7f" stroke="#1f78b5" stroke-width="0.0" fill-opacity="1.0" stroke-opacity="1.0"><rect x="4.786765693443052e-2" width="9.999999999999995e-3" y="-0.21819873819047997" height="1.0000000000000009e-2"/></g><g fill="#94d092" stroke="#1f78b5" stroke-width="0.0" fill-opacity="1.0" stroke-opacity="1.0"><rect x="-2.7486569350732567e-2" width="1.0000000000000002e-2" y="-0.16551000174658959" height="1.0000000000000009e-2"/></g><g fill="#7bd3a9" stroke="#1f78b5" stroke-width="0.0" fill-opacity="1.0" stroke-opacity="1.0"><rect x="-7.586696076952593e-2" width="1.0000000000000009e-2" y="-9.9118320642965e-2" height="1.0000000000000009e-2"/></g><g fill="#67d4c0" stroke="#1f78b5" stroke-width="0.0" fill-opacity="1.0" stroke-opacity="1.0"><rect x="-9.253770752386947e-2" width="1.0000000000000009e-2" y="-2.5522575204071304e-2" height="1.0000000000000002e-2"/></g><g fill="#5ed2d6" stroke="#1f78b5" stroke-width="0.0" fill-opacity="1.0" stroke-opacity="1.0"><rect x="-7.586696076952593e-2" width="1.0000000000000009e-2" y="4.807317023482228e-2" height="9.999999999999995e-3"/></g><g fill="#63cfe9" stroke="#1f78b5" stroke-width="0.0" fill-opacity="1.0" stroke-opacity="1.0"><rect x="-2.7486569350732567e-2" width="1.0000000000000002e-2" y="0.11446485133844697" height="1.0000000000000009e-2"/></g><g fill="#75c9f7" stroke="#1f78b5" stroke-width="0.0" fill-opacity="1.0" stroke-opacity="1.0"><rect x="4.786765693443052e-2" width="9.999999999999995e-3" y="0.16715358778233733" height="1.0000000000000009e-2"/></g><g fill="#bab3fe" stroke="#1f78b5" stroke-width="0.0" fill-opacity="1.0" stroke-opacity="1.0"><rect x="0.35332942653540744" width="1.0000000000000009e-2" y="0.20098183893935245" height="1.0000000000000009e-2"/></g><g fill="#ceacf4" stroke="#1f78b5" stroke-width="0.0" fill-opacity="1.0" stroke-opacity="1.0"><rect x="0.4482812909943824" width="1.0000000000000009e-2" y="0.16715358778233738" height="1.0000000000000009e-2"/></g><g fill="#e0a7e4" stroke="#1f78b5" stroke-width="0.0" fill-opacity="1.0" stroke-opacity="1.0"><rect x="0.5236355172795456" width="1.0000000000000009e-2" y="0.11446485133844697" height="1.0000000000000009e-2"/></g><g fill="#eda3d1" stroke="#1f78b5" stroke-width="0.0" fill-opacity="1.0" stroke-opacity="1.0"><rect x="0.5720159086983388" width="1.0000000000000009e-2" y="4.8073170234822334e-2" height="9.999999999999995e-3"/></g><g fill="#fd9cba" stroke="#1f78b5" stroke-width="0.0" fill-opacity="1.0" stroke-opacity="1.0"><rect x="0.6373455385224366" width="1.0000000000000009e-2" y="-2.5522575204071304e-2" height="1.0000000000000002e-2"/></g><g fill="#faa871" stroke="#1f78b5" stroke-width="0.0" fill-opacity="1.0" stroke-opacity="1.0"><rect x="0.4768822648558074" width="1.0000000000000009e-2" y="-0.24572390433139546" height="1.0000000000000009e-2"/></g><g fill="#edb161" stroke="#1f78b5" stroke-width="0.0" fill-opacity="1.0" stroke-opacity="1.0"><rect x="0.36836584833126507" width="1.0000000000000009e-2" y="-0.28438476279655556" height="1.0000000000000009e-2"/></g><g fill="#dcba5b" stroke="#1f78b5" stroke-width="0.0" fill-opacity="1.0" stroke-opacity="1.0"><rect x="0.24807447396440652" width="1.0000000000000009e-2" y="-0.2977063867412484" height="1.0000000000000009e-2"/></g><g fill="#c5c463" stroke="#1f78b5" stroke-width="0.0" fill-opacity="1.0" stroke-opacity="1.0"><rect x="0.12778309959754808" width="1.0000000000000009e-2" y="-0.28438476279655556" height="1.0000000000000009e-2"/></g><g fill="#aacc74" stroke="#1f78b5" stroke-width="0.0" fill-opacity="1.0" stroke-opacity="1.0"><rect x="1.926668307300539e-2" width="1.0000000000000002e-2" y="-0.24572390433139557" height="1.0000000000000009e-2"/></g><g fill="#8dd28c" stroke="#1f78b5" stroke-width="0.0" fill-opacity="1.0" stroke-opacity="1.0"><rect x="-6.68524326814669e-2" width="1.0000000000000002e-2" y="-0.185508205538378" height="1.0000000000000009e-2"/></g><g fill="#6ed6a6" stroke="#1f78b5" stroke-width="0.0" fill-opacity="1.0" stroke-opacity="1.0"><rect x="-0.12214430858865916" width="1.0000000000000009e-2" y="-0.10963199856280703" height="1.0000000000000009e-2"/></g><g fill="#52d7c1" stroke="#1f78b5" stroke-width="0.0" fill-opacity="1.0" stroke-opacity="1.0"><rect x="-0.14119659059362327" width="1.0000000000000009e-2" y="-2.5522575204071415e-2" height="1.0000000000000002e-2"/></g><g fill="#44d5d9" stroke="#1f78b5" stroke-width="0.0" fill-opacity="1.0" stroke-opacity="1.0"><rect x="-0.12214430858865916" width="1.0000000000000009e-2" y="5.858684815466426e-2" height="1.0000000000000002e-2"/></g><g fill="#4dd1ef" stroke="#1f78b5" stroke-width="0.0" fill-opacity="1.0" stroke-opacity="1.0"><rect x="-6.68524326814669e-2" width="1.0000000000000002e-2" y="0.13446305513023527" height="1.0000000000000009e-2"/></g><g fill="#66caff" stroke="#1f78b5" stroke-width="0.0" fill-opacity="1.0" stroke-opacity="1.0"><rect x="1.926668307300528e-2" width="1.0000000000000002e-2" y="0.19467875392325285" height="1.0000000000000009e-2"/></g><g fill="#d1a9fb" stroke="#1f78b5" stroke-width="0.0" fill-opacity="1.0" stroke-opacity="1.0"><rect x="0.4768822648558074" width="1.0000000000000009e-2" y="0.1946787539232529" height="1.0000000000000009e-2"/></g><g fill="#e4a3e9" stroke="#1f78b5" stroke-width="0.0" fill-opacity="1.0" stroke-opacity="1.0"><rect x="0.5630013806102799" width="1.0000000000000009e-2" y="0.13446305513023538" height="1.0000000000000009e-2"/></g><g fill="#f39ed3" stroke="#1f78b5" stroke-width="0.0" fill-opacity="1.0" stroke-opacity="1.0"><rect x="0.618293256517472" width="1.0000000000000009e-2" y="5.858684815466437e-2" height="1.0000000000000002e-2"/></g><g fill="#f3ae51" stroke="#1f78b5" stroke-width="0.0" fill-opacity="1.0" stroke-opacity="1.0"><rect x="0.38340227012712236" width="1.0000000000000009e-2" y="-0.3167425362456163" height="1.0000000000000009e-2"/></g><g fill="#dfb949" stroke="#1f78b5" stroke-width="0.0" fill-opacity="1.0" stroke-opacity="1.0"><rect x="0.24807447396440652" width="1.0000000000000009e-2" y="-0.3317293631833955" height="1.0000000000000009e-2"/></g><g fill="#c6c453" stroke="#1f78b5" stroke-width="0.0" fill-opacity="1.0" stroke-opacity="1.0"><rect x="0.11274667780169056" width="1.0000000000000009e-2" y="-0.3167425362456163" height="1.0000000000000009e-2"/></g><g fill="#a8cd69" stroke="#1f78b5" stroke-width="0.0" fill-opacity="1.0" stroke-opacity="1.0"><rect x="-9.334290788419738e-3" width="1.0000000000000002e-2" y="-0.27324907047231095" height="1.0000000000000009e-2"/></g><g fill="#85d485" stroke="#1f78b5" stroke-width="0.0" fill-opacity="1.0" stroke-opacity="1.0"><rect x="-0.10621829601220101" width="1.0000000000000009e-2" y="-0.20550640933016628" height="1.0000000000000009e-2"/></g><g fill="#5fd9a3" stroke="#1f78b5" stroke-width="0.0" fill-opacity="1.0" stroke-opacity="1.0"><rect x="-0.16842165640779244" width="1.0000000000000009e-2" y="-0.12014567648264896" height="1.0000000000000009e-2"/></g><g fill="#34dac1" stroke="#1f78b5" stroke-width="0.0" fill-opacity="1.0" stroke-opacity="1.0"><rect x="-0.18985547366337707" width="1.0000000000000009e-2" y="-2.5522575204071415e-2" height="1.0000000000000002e-2"/></g><g fill="#0dd8dd" stroke="#1f78b5" stroke-width="0.0" fill-opacity="1.0" stroke-opacity="1.0"><rect x="-0.16842165640779244" width="1.0000000000000009e-2" y="6.910052607450623e-2" height="1.0000000000000009e-2"/></g><g fill="#2ad3f5" stroke="#1f78b5" stroke-width="0.0" fill-opacity="1.0" stroke-opacity="1.0"><rect x="-0.10621829601220101" width="1.0000000000000009e-2" y="0.15446125892202364" height="1.0000000000000009e-2"/></g><g fill="#e89fef" stroke="#1f78b5" stroke-width="0.0" fill-opacity="1.0" stroke-opacity="1.0"><rect x="0.6023672439410138" width="1.0000000000000009e-2" y="0.1544612589220237" height="1.0000000000000009e-2"/></g><g fill="#f99ad6" stroke="#1f78b5" stroke-width="0.0" fill-opacity="1.0" stroke-opacity="1.0"><rect x="0.6645706043366054" width="1.0000000000000009e-2" y="6.910052607450629e-2" height="1.0000000000000009e-2"/></g><g fill="#f9ac3d" stroke="#1f78b5" stroke-width="0.0" fill-opacity="1.0" stroke-opacity="1.0"><rect x="0.3984386919229793" width="1.0000000000000009e-2" y="-0.34910030969467665" height="1.0000000000000009e-2"/></g><g fill="#e3b831" stroke="#1f78b5" stroke-width="0.0" fill-opacity="1.0" stroke-opacity="1.0"><rect x="0.24807447396440652" width="1.0000000000000009e-2" y="-0.3657523396255429" height="1.0000000000000009e-2"/></g><g fill="#c7c43f" stroke="#1f78b5" stroke-width="0.0" fill-opacity="1.0" stroke-opacity="1.0"><rect x="9.77102560058335e-2" width="1.0000000000000009e-2" y="-0.34910030969467676" height="1.0000000000000009e-2"/></g><g fill="#a6cf5c" stroke="#1f78b5" stroke-width="0.0" fill-opacity="1.0" stroke-opacity="1.0"><rect x="-3.793526464984486e-2" width="9.999999999999998e-3" y="-0.30077423661322644" height="1.0000000000000009e-2"/></g><g fill="#7dd67d" stroke="#1f78b5" stroke-width="0.0" fill-opacity="1.0" stroke-opacity="1.0"><rect x="-0.14558415934293517" width="1.0000000000000009e-2" y="-0.22550461312195447" height="1.0000000000000009e-2"/></g><g fill="#4bdba0" stroke="#1f78b5" stroke-width="0.0" fill-opacity="1.0" stroke-opacity="1.0"><rect x="-0.21469900422692545" width="1.0000000000000009e-2" y="-0.13065935440249077" height="1.0000000000000009e-2"/></g><g fill="#ed9bf4" stroke="#1f78b5" stroke-width="0.0" fill-opacity="1.0" stroke-opacity="1.0"><rect x="0.6417331072717481" width="1.0000000000000009e-2" y="0.174459462713812" height="1.0000000000000009e-2"/></g><g fill="#ff95d9" stroke="#1f78b5" stroke-width="0.0" fill-opacity="1.0" stroke-opacity="1.0"><rect x="0.7108479521557384" width="1.0000000000000009e-2" y="7.961420399434826e-2" height="1.0000000000000009e-2"/></g><g fill="#fea91e" stroke="#1f78b5" stroke-width="0.0" fill-opacity="1.0" stroke-opacity="1.0"><rect x="0.41347511371883694" width="1.0000000000000009e-2" y="-0.3814580831437372" height="1.0000000000000009e-2"/></g><g fill="#c9c522" stroke="#1f78b5" stroke-width="0.0" fill-opacity="1.0" stroke-opacity="1.0"><rect x="8.26738342099761e-2" width="1.0000000000000009e-2" y="-0.3814580831437372" height="1.0000000000000009e-2"/></g><g fill="#a3d04d" stroke="#1f78b5" stroke-width="0.0" fill-opacity="1.0" stroke-opacity="1.0"><rect x="-6.653623851127e-2" width="1.0000000000000002e-2" y="-0.32829940275414216" height="1.0000000000000009e-2"/></g><g fill="#75d976" stroke="#1f78b5" stroke-width="0.0" fill-opacity="1.0" stroke-opacity="1.0"><rect x="-0.18495002267366933" width="1.0000000000000009e-2" y="-0.24550281691374287" height="1.0000000000000009e-2"/></g><g fill="#30de9c" stroke="#1f78b5" stroke-width="0.0" fill-opacity="1.0" stroke-opacity="1.0"><rect x="-0.2609763520460587" width="1.0000000000000009e-2" y="-0.1411730323223328" height="1.0000000000000009e-2"/></g><g fill="#f196f9" stroke="#1f78b5" stroke-width="0.0" fill-opacity="1.0" stroke-opacity="1.0"><rect x="0.6810989706024825" width="1.0000000000000009e-2" y="0.1944576665056003" height="1.0000000000000009e-2"/></g><g fill="#a1d13c" stroke="#1f78b5" stroke-width="0.0" fill-opacity="1.0" stroke-opacity="1.0"><rect x="-9.513721237269523e-2" width="1.0000000000000009e-2" y="-0.3558245688950574" height="1.0000000000000009e-2"/></g><g fill="#6cdb6d" stroke="#1f78b5" stroke-width="0.0" fill-opacity="1.0" stroke-opacity="1.0"><rect x="-0.22431588600440344" width="1.0000000000000009e-2" y="-0.2655010207055313" height="1.0000000000000009e-2"/></g><g fill="#f592fe" stroke="#1f78b5" stroke-width="0.0" fill-opacity="1.0" stroke-opacity="1.0"><rect x="0.7204648339332164" width="1.0000000000000009e-2" y="0.21445587029738866" height="1.0000000000000009e-2"/></g><g fill="#9fd322" stroke="#1f78b5" stroke-width="0.0" fill-opacity="1.0" stroke-opacity="1.0"><rect x="-0.12373818623412025" width="1.0000000000000009e-2" y="-0.38334973503597314" height="1.0000000000000009e-2"/></g><g fill="#61dd65" stroke="#1f78b5" stroke-width="0.0" fill-opacity="1.0" stroke-opacity="1.0"><rect x="-0.2636817493351377" width="1.0000000000000009e-2" y="-0.28549922449731957" height="1.0000000000000009e-2"/></g><g fill="#55df5b" stroke="#1f78b5" stroke-width="0.0" fill-opacity="1.0" stroke-opacity="1.0"><rect x="-0.3030476126658719" width="1.0000000000000009e-2" y="-0.30549742828910786" height="1.0000000000000009e-2"/></g><g fill="#47e151" stroke="#1f78b5" stroke-width="0.0" fill-opacity="1.0" stroke-opacity="1.0"><rect x="-0.342413475996606" width="1.0000000000000009e-2" y="-0.3254956320808964" height="1.0000000000000009e-2"/></g><g fill="#35e345" stroke="#1f78b5" stroke-width="0.0" fill-opacity="1.0" stroke-opacity="1.0"><rect x="-0.3817793393273401" width="1.0000000000000009e-2" y="-0.3454938358726847" height="1.0000000000000009e-2"/></g><g fill="#16e437" stroke="#1f78b5" stroke-width="0.0" fill-opacity="1.0" stroke-opacity="1.0"><rect x="-0.4211452026580744" width="1.0000000000000009e-2" y="-0.36549203966447286" height="1.0000000000000009e-2"/></g></g></g><g class="hud"><g class="frame"><g fill="#ffffff" stroke="#000000" stroke-width="0.0" fill-opacity="2.0e-2" stroke-opacity="0.0"><rect x="-0.5579069105314889" width="1.2975702151934327" y="-0.47416226109936654" height="0.7938694503167667"/></g></g><g class="axis"><g class="ticks"><g class="tickglyph"><g fill="#0d0d0d" stroke="#0d0d0d" stroke-width="4.0e-3" fill-opacity="0.4" stroke-opacity="0.4"><g transform="rotate(-90.0, -0.5838583148353576, 0.31970718921740016)"><polyline points="-0.5838583148353576,0.33470718921740017
-0.5838583148353576,0.30470718921740014"/></g><g transform="rotate(-90.0, -0.5838583148353576, 0.20629726774357635)"><polyline points="-0.5838583148353576,0.22129726774357633
-0.5838583148353576,0.19129726774357636"/></g><g transform="rotate(-90.0, -0.5838583148353576, 9.288734626975254e-2)"><polyline points="-0.5838583148353576,0.10788734626975253
-0.5838583148353576,7.788734626975254e-2"/></g><g transform="rotate(-90.0, -0.5838583148353576, -2.0522575204071303e-2)"><polyline points="-0.5838583148353576,-5.522575204071303e-3
-0.5838583148353576,-3.55225752040713e-2"/></g><g transform="rotate(-90.0, -0.5838583148353576, -0.13393249667789509)"><polyline points="-0.5838583148353576,-0.11893249667789509
-0.5838583148353576,-0.1489324966778951"/></g><g transform="rotate(-90.0, -0.5838583148353576, -0.24734241815171887)"><polyline points="-0.5838583148353576,-0.23234241815171885
-0.5838583148353576,-0.2623424181517189"/></g><g transform="rotate(-90.0, -0.5838583148353576, -0.3607523396255429)"><polyline points="-0.5838583148353576,-0.34575233962554286
-0.5838583148353576,-0.3757523396255429"/></g><g transform="rotate(-90.0, -0.5838583148353576, -0.47416226109936654)"><polyline points="-0.5838583148353576,-0.45916226109936653
-0.5838583148353576,-0.48916226109936656"/></g></g></g><g class="ticktext"><g fill="#0d0d0d" stroke="none" stroke-width="0.0" font-size="4.325234050644776e-2" fill-opacity="1.0" text-anchor="end"><text x="-0.615" y="0.3306228941592557">-0.15</text><text x="-0.615" y="0.21721297268543188">-0.10</text><text x="-0.615" y="0.1038030512116081">-0.050</text><text x="-0.615" y="-9.606870262215739e-3">0.0</text><text x="-0.615" y="-0.12301679173603952">0.050</text><text x="-0.615" y="-0.2364267132098633">0.10</text><text x="-0.615" y="-0.3498366346836872">0.15</text><text x="-0.615" y="-0.463246556157511">0.20</text></g></g><g class="ticklines"><g fill="none" stroke="#0d0d0d" stroke-width="5.0e-3" stroke-opacity="5.0e-2"><polyline points="-0.5579069105314889,0.31970718921740016
0.7396633046619439,0.31970718921740016"/><polyline points="-0.5579069105314889,0.20629726774357635
0.7396633046619439,0.20629726774357635"/><polyline points="-0.5579069105314889,9.288734626975254e-2
0.7396633046619439,9.288734626975254e-2"/><polyline points="-0.5579069105314889,-2.0522575204071303e-2
0.7396633046619439,-2.0522575204071303e-2"/><polyline points="-0.5579069105314889,-0.13393249667789509
0.7396633046619439,-0.13393249667789509"/><polyline points="-0.5579069105314889,-0.24734241815171887
0.7396633046619439,-0.24734241815171887"/><polyline points="-0.5579069105314889,-0.3607523396255429
0.7396633046619439,-0.3607523396255429"/><polyline points="-0.5579069105314889,-0.47416226109936654
0.7396633046619439,-0.47416226109936654"/></g></g></g><g class="axisbar"><g fill="#0d0d0d" stroke="#000000" stroke-width="0.0" fill-opacity="0.4" stroke-opacity="0.0"><rect x="-0.5700175658732943" width="3.4601872405158884e-3" y="-0.47575" height="0.7970449281180336"/></g></g></g><g class="axis"><g class="ticks"><g class="tickglyph"><g fill="#0d0d0d" stroke="#0d0d0d" stroke-width="4.0e-3" fill-opacity="0.4" stroke-opacity="0.4"><polyline points="-0.5579069105314889,0.3585232727269032
-0.5579069105314889,0.3285232727269032"/><polyline points="-0.39571063363230985,0.3585232727269032
-0.39571063363230985,0.3285232727269032"/><polyline points="-0.2335143567331307,0.3585232727269032
-0.2335143567331307,0.3285232727269032"/><polyline points="-7.131807983395155e-2,0.3585232727269032
-7.131807983395155e-2,0.3285232727269032"/><polyline points="9.087819706522737e-2,0.3585232727269032
9.087819706522737e-2,0.3285232727269032"/><polyline points="0.2530744739644065,0.3585232727269032
0.2530744739644065,0.3285232727269032"/><polyline points="0.4152707508635858,0.3585232727269032
0.4152707508635858,0.3285232727269032"/><polyline points="0.5774670277627649,0.3585232727269032
0.5774670277627649,0.3285232727269032"/><polyline points="0.7396633046619439,0.3585232727269032
0.7396633046619439,0.3285232727269032"/></g></g><g class="ticktext"><g fill="#0d0d0d" stroke="none" stroke-width="0.0" font-size="4.325234050644776e-2" fill-opacity="1.0" text-anchor="end"><text x="-0.5579069105314889" y="0.39393398282201786" transform="rotate(-45.0, -0.5579069105314889, 0.39393398282201786)">-0.25</text><text x="-0.39571063363230985" y="0.39393398282201786" transform="rotate(-45.0, -0.39571063363230985, 0.39393398282201786)">-0.20</text><text x="-0.2335143567331307" y="0.39393398282201786" transform="rotate(-45.0, -0.2335143567331307, 0.39393398282201786)">-0.15</text><text x="-7.131807983395155e-2" y="0.39393398282201786" transform="rotate(-45.0, -7.131807983395155e-2, 0.39393398282201786)">-0.10</text><text x="9.087819706522737e-2" y="0.39393398282201786" transform="rotate(-45.0, 9.087819706522737e-2, 0.39393398282201786)">-0.050</text><text x="0.2530744739644065" y="0.39393398282201786" transform="rotate(-45.0, 0.2530744739644065, 0.39393398282201786)">0.0</text><text x="0.4152707508635858" y="0.39393398282201786" transform="rotate(-45.0, 0.4152707508635858, 0.39393398282201786)">0.050</text><text x="0.5774670277627649" y="0.39393398282201786" transform="rotate(-45.0, 0.5774670277627649, 0.39393398282201786)">0.10</text><text x="0.7396633046619439" y="0.39393398282201786" transform="rotate(-45.0, 0.7396633046619439, 0.39393398282201786)">0.15</text></g></g><g class="ticklines"><g fill="none" stroke="#0d0d0d" stroke-width="5.0e-3" stroke-opacity="5.0e-2"><polyline points="-0.5579069105314889,0.31970718921740016
-0.5579069105314889,-0.47416226109936654"/><polyline points="-0.39571063363230985,0.31970718921740016
-0.39571063363230985,-0.47416226109936654"/><polyline points="-0.2335143567331307,0.31970718921740016
-0.2335143567331307,-0.47416226109936654"/><polyline points="-7.131807983395155e-2,0.31970718921740016
-7.131807983395155e-2,-0.47416226109936654"/><polyline points="9.087819706522737e-2,0.31970718921740016
9.087819706522737e-2,-0.47416226109936654"/><polyline points="0.2530744739644065,0.31970718921740016
0.2530744739644065,-0.47416226109936654"/><polyline points="0.4152707508635858,0.31970718921740016
0.4152707508635858,-0.47416226109936654"/><polyline points="0.5774670277627649,0.31970718921740016
0.5774670277627649,-0.47416226109936654"/><polyline points="0.7396633046619439,0.31970718921740016
0.7396633046619439,-0.47416226109936654"/></g></g></g><g class="axisbar"><g fill="#0d0d0d" stroke="#000000" stroke-width="0.0" fill-opacity="0.4" stroke-opacity="0.0"><rect x="-0.5596370041517468" width="1.3010304024339483" y="0.3276458837205678" height="3.1754778012670903e-3"/></g></g></g></g></svg>