<svg xmlns="http://www.w3.org/2000/svg" width="1000.0" xmlns:xlink="http://www.w3.org/1999/xlink" viewBox="-5.0e-3 -5.0e-2 1.0 0.1" height="100.0"><style>svg {
  color-scheme: light dark;
}
{
  .canvas g, .title g, .axisbar g, .ticktext g, .tickglyph g, .ticklines g, .legendContent g text {
    fill: #0d0d0d;
  }
  .ticklines g, .tickglyph g, .legendBorder g {
    stroke: #0d0d0d;
  }
}
@media (prefers-color-scheme:dark) {
  .canvas g, .title g, .axisbar g, .ticktext g, .tickglyph g, .ticklines g, .legendContent g text {
    fill: #f0f0f0;
  }
  .ticklines g, .tickglyph g, .legendBorder g {
    stroke: #f0f0f0;
  }
}</style><g class="chart"><g class="gradient"><g fill="#b95800" stroke="#a6cfe3" stroke-width="0.0" fill-opacity="1.0" stroke-opacity="1.0"><rect x="-5.0e-3" width="1.0e-2" y="-5.0e-2" height="0.1"/></g><g fill="#b95700" stroke="#a6cfe3" stroke-width="0.0" fill-opacity="1.0" stroke-opacity="1.0"><rect x="5.0e-3" width="9.999999999999998e-3" y="-5.0e-2" height="0.1"/></g><g fill="#b95700" stroke="#a6cfe3" stroke-width="0.0" fill-opacity="1.0" stroke-opacity="1.0"><rect x="1.5e-2" width="1.0000000000000002e-2" y="-5.0e-2" height="0.1"/></g><g fill="#b95700" stroke="#a6cfe3" stroke-width="0.0" fill-opacity="1.0" stroke-opacity="1.0"><rect x="2.4999999999999998e-2" width="9.999999999999998e-3" y="-5.0e-2" height="0.1"/></g><g fill="#b85700" stroke="#a6cfe3" stroke-width="0.0" fill-opacity="1.0" stroke-opacity="1.0"><rect x="3.5e-2" width="9.999999999999995e-3" y="-5.0e-2" height="0.1"/></g><g fill="#b85700" stroke="#a6cfe3" stroke-width="0.0" fill-opacity="1.0" stroke-opacity="1.0"><rect x="4.5000000000000005e-2" width="9.999999999999995e-3" y="-5.0e-2" height="0.1"/></g><g fill="#b85600" stroke="#a6cfe3" stroke-width="0.0" fill-opacity="1.0" stroke-opacity="1.0"><rect x="5.5e-2" width="1.0000000000000002e-2" y="-5.0e-2" height="0.1"/></g><g fill="#b85600" stroke="#a6cfe3" stroke-width="0.0" fill-opacity="1.0" stroke-opacity="1.0"><rect x="6.5e-2" width="1.0000000000000009e-2" y="-5.0e-2" height="0.1"/></g><g fill="#b75600" stroke="#a6cfe3" stroke-width="0.0" fill-opacity="1.0" stroke-opacity="1.0"><rect x="7.5e-2" width="1.0000000000000009e-2" y="-5.0e-2" height="0.1"/></g><g fill="#b75600" stroke="#a6cfe3" stroke-width="0.0" fill-opacity="1.0" stroke-opacity="1.0"><rect x="8.499999999999999e-2" width="1.0000000000000009e-2" y="-5.0e-2" height="0.1"/></g><g fill="#b75500" stroke="#a6cfe3" stroke-width="0.0" fill-opacity="1.0" stroke-opacity="1.0"><rect x="9.5e-2" width="1.0000000000000009e-2" y="-5.0e-2" height="0.1"/></g><g fill="#b75500" stroke="#a6cfe3" stroke-width="0.0" fill-opacity="1.0" stroke-opacity="1.0"><rect x="0.105" width="1.0000000000000009e-2" y="-5.0e-2" height="0.1"/></g><g fill="#b65500" stroke="#a6cfe3" stroke-width="0.0" fill-opacity="1.0" stroke-opacity="1.0"><rect x="0.11499999999999999" width="1.0000000000000009e-2" y="-5.0e-2" height="0.1"/></g><g fill="#b65500" stroke="#a6cfe3" stroke-width="0.0" fill-opacity="1.0" stroke-opacity="1.0"><rect x="0.125" width="1.0000000000000009e-2" y="-5.0e-2" height="0.1"/></g><g fill="#b65500" stroke="#a6cfe3" stroke-width="0.0" fill-opacity="1.0" stroke-opacity="1.0"><rect x="0.135" width="1.0000000000000009e-2" y="-5.0e-2" height="0.1"/></g><g fill="#b65400" stroke="#a6cfe3" stroke-width="0.0" fill-opacity="1.0" stroke-opacity="1.0"><rect x="0.145" width="1.0000000000000009e-2" y="-5.0e-2" height="0.1"/></g><g fill="#b55400" stroke="#a6cfe3" stroke-width="0.0" fill-opacity="1.0" stroke-opacity="1.0"><rect x="0.155" width="1.0000000000000009e-2" y="-5.0e-2" height="0.1"/></g><g fill="#b55400" stroke="#a6cfe3" stroke-width="0.0" fill-opacity="1.0" stroke-opacity="1.0"><rect x="0.165" width="1.0000000000000009e-2" y="-5.0e-2" height="0.1"/></g><g fill="#b55400" stroke="#a6cfe3" stroke-width="0.0" fill-opacity="1.0" stroke-opacity="1.0"><rect x="0.175" width="1.0000000000000009e-2" y="-5.0e-2" height="0.1"/></g><g fill="#b55300" stroke="#a6cfe3" stroke-width="0.0" fill-opacity="1.0" stroke-opacity="1.0"><rect x="0.185" width="1.0000000000000009e-2" y="-5.0e-2" height="0.1"/></g><g fill="#b55300" stroke="#a6cfe3" stroke-width="0.0" fill-opacity="1.0" stroke-opacity="1.0"><rect x="0.195" width="1.0000000000000009e-2" y="-5.0e-2" height="0.1"/></g><g fill="#b45300" stroke="#a6cfe3" stroke-width="0.0" fill-opacity="1.0" stroke-opacity="1.0"><rect x="0.205" width="1.0000000000000009e-2" y="-5.0e-2" height="0.1"/></g><g fill="#b45300" stroke="#a6cfe3" stroke-width="0.0" fill-opacity="1.0" stroke-opacity="1.0"><rect x="0.215" width="1.0000000000000009e-2" y="-5.0e-2" height="0.1"/></g><g fill="#b45300" stroke="#a6cfe3" stroke-width="0.0" fill-opacity="1.0" stroke-opacity="1.0"><rect x="0.225" width="1.0000000000000009e-2" y="-5.0e-2" height="0.1"/></g><g fill="#b45200" stroke="#a6cfe3" stroke-width="0.0" fill-opacity="1.0" stroke-opacity="1.0"><rect x="0.235" width="1.0000000000000009e-2" y="-5.0e-2" height="0.1"/></g><g fill="#b35200" stroke="#a6cfe3" stroke-width="0.0" fill-opacity="1.0" stroke-opacity="1.0"><rect x="0.245" width="1.0000000000000009e-2" y="-5.0e-2" height="0.1"/></g><g fill="#b35200" stroke="#a6cfe3" stroke-width="0.0" fill-opacity="1.0" stroke-opacity="1.0"><rect x="0.255" width="1.0000000000000009e-2" y="-5.0e-2" height="0.1"/></g><g fill="#b35200" stroke="#a6cfe3" stroke-width="0.0" fill-opacity="1.0" stroke-opacity="1.0"><rect x="0.265" width="1.0000000000000009e-2" y="-5.0e-2" height="0.1"/></g><g fill="#b35100" stroke="#a6cfe3" stroke-width="0.0" fill-opacity="1.0" stroke-opacity="1.0"><rect x="0.275" width="1.0000000000000009e-2" y="-5.0e-2" height="0.1"/></g><g fill="#b25100" stroke="#a6cfe3" stroke-width="0.0" fill-opacity="1.0" stroke-opacity="1.0"><rect x="0.285" width="1.0000000000000009e-2" y="-5.0e-2" height="0.1"/></g><g fill="#b25100" stroke="#a6cfe3" stroke-width="0.0" fill-opacity="1.0" stroke-opacity="1.0"><rect x="0.295" width="1.0000000000000009e-2" y="-5.0e-2" height="0.1"/></g><g fill="#b25100" stroke="#a6cfe3" stroke-width="0.0" fill-opacity="1.0" stroke-opacity="1.0"><rect x="0.305" width="1.0000000000000009e-2" y="-5.0e-2" height="0.1"/></g><g fill="#b25100" stroke="#a6cfe3" stroke-width="0.0" fill-opacity="1.0" stroke-opacity="1.0"><rect x="0.315" width="1.0000000000000009e-2" y="-5.0e-2" height="0.1"/></g><g fill="#b15000" stroke="#a6cfe3" stroke-width="0.0" fill-opacity="1.0" stroke-opacity="1.0"><rect x="0.325" width="1.0000000000000009e-2" y="-5.0e-2" height="0.1"/></g><g fill="#b15000" stroke="#a6cfe3" stroke-width="0.0" fill-opacity="1.0" stroke-opacity="1.0"><rect x="0.335" width="1.0000000000000009e-2" y="-5.0e-2" height="0.1"/></g><g fill="#b15000" stroke="#a6cfe3" stroke-width="0.0" fill-opacity="1.0" stroke-opacity="1.0"><rect x="0.34500000000000003" width="1.0000000000000009e-2" y="-5.0e-2" height="0.1"/></g><g fill="#b15000" stroke="#a6cfe3" stroke-width="0.0" fill-opacity="1.0" stroke-opacity="1.0"><rect x="0.355" width="1.0000000000000009e-2" y="-5.0e-2" height="0.1"/></g><g fill="#b04f00" stroke="#a6cfe3" stroke-width="0.0" fill-opacity="1.0" stroke-opacity="1.0"><rect x="0.365" width="1.0000000000000009e-2" y="-5.0e-2" height="0.1"/></g><g fill="#b04f00" stroke="#a6cfe3" stroke-width="0.0" fill-opacity="1.0" stroke-opacity="1.0"><rect x="0.375" width="1.0000000000000009e-2" y="-5.0e-2" height="0.1"/></g><g fill="#b04f00" stroke="#a6cfe3" stroke-width="0.0" fill-opacity="1.0" stroke-opacity="1.0"><rect x="0.385" width="1.0000000000000009e-2" y="-5.0e-2" height="0.1"/></g><g fill="#b04f00" stroke="#a6cfe3" stroke-width="0.0" fill-opacity="1.0" stroke-opacity="1.0"><rect x="0.395" width="1.0000000000000009e-2" y="-5.0e-2" height="0.1"/></g><g fill="#b04f00" stroke="#a6cfe3" stroke-width="0.0" fill-opacity="1.0" stroke-opacity="1.0"><rect x="0.405" width="1.0000000000000009e-2" y="-5.0e-2" height="0.1"/></g><g fill="#af4e00" stroke="#a6cfe3" stroke-width="0.0" fill-opacity="1.0" stroke-opacity="1.0"><rect x="0.415" width="1.0000000000000009e-2" y="-5.0e-2" height="0.1"/></g><g fill="#af4e00" stroke="#a6cfe3" stroke-width="0.0" fill-opacity="1.0" stroke-opacity="1.0"><rect x="0.425" width="1.0000000000000009e-2" y="-5.0e-2" height="0.1"/></g><g fill="#af4e00" stroke="#a6cfe3" stroke-width="0.0" fill-opacity="1.0" stroke-opacity="1.0"><rect x="0.435" width="1.0000000000000009e-2" y="-5.0e-2" height="0.1"/></g><g fill="#af4e00" stroke="#a6cfe3" stroke-width="0.0" fill-opacity="1.0" stroke-opacity="1.0"><rect x="0.445" width="1.0000000000000009e-2" y="-5.0e-2" height="0.1"/></g><g fill="#ae4d00" stroke="#a6cfe3" stroke-width="0.0" fill-opacity="1.0" stroke-opacity="1.0"><rect x="0.455" width="1.0000000000000009e-2" y="-5.0e-2" height="0.1"/></g><g fill="#ae4d00" stroke="#a6cfe3" stroke-width="0.0" fill-opacity="1.0" stroke-opacity="1.0"><rect x="0.465" width="1.0000000000000009e-2" y="-5.0e-2" height="0.1"/></g><g fill="#ae4d00" stroke="#a6cfe3" stroke-width="0.0" fill-opacity="1.0" stroke-opacity="1.0"><rect x="0.475" width="1.0000000000000009e-2" y="-5.0e-2" height="0.1"/></g><g fill="#ae4d00" stroke="#a6cfe3" stroke-width="0.0" fill-opacity="1.0" stroke-opacity="1.0"><rect x="0.485" width="1.0000000000000009e-2" y="-5.0e-2" height="0.1"/></g><g fill="#ad4d00" stroke="#a6cfe3" stroke-width="0.0" fill-opacity="1.0" stroke-opacity="1.0"><rect x="0.495" width="1.0000000000000009e-2" y="-5.0e-2" height="0.1"/></g><g fill="#ad4c00" stroke="#a6cfe3" stroke-width="0.0" fill-opacity="1.0" stroke-opacity="1.0"><rect x="0.505" width="1.0000000000000009e-2" y="-5.0e-2" height="0.1"/></g><g fill="#ad4c00" stroke="#a6cfe3" stroke-width="0.0" fill-opacity="1.0" stroke-opacity="1.0"><rect x="0.515" width="1.0000000000000009e-2" y="-5.0e-2" height="0.1"/></g><g fill="#ad4c00" stroke="#a6cfe3" stroke-width="0.0" fill-opacity="1.0" stroke-opacity="1.0"><rect x="0.525" width="1.0000000000000009e-2" y="-5.0e-2" height="0.1"/></g><g fill="#ac4c00" stroke="#a6cfe3" stroke-width="0.0" fill-opacity="1.0" stroke-opacity="1.0"><rect x="0.535" width="1.0000000000000009e-2" y="-5.0e-2" height="0.1"/></g><g fill="#ac4c00" stroke="#a6cfe3" stroke-width="0.0" fill-opacity="1.0" stroke-opacity="1.0"><rect x="0.545" width="1.0000000000000009e-2" y="-5.0e-2" height="0.1"/></g><g fill="#ac4b00" stroke="#a6cfe3" stroke-width="0.0" fill-opacity="1.0" stroke-opacity="1.0"><rect x="0.555" width="1.0000000000000009e-2" y="-5.0e-2" height="0.1"/></g><g fill="#ac4b00" stroke="#a6cfe3" stroke-width="0.0" fill-opacity="1.0" stroke-opacity="1.0"><rect x="0.5650000000000001" width="1.0000000000000009e-2" y="-5.0e-2" height="0.1"/></g><g fill="#ab4b00" stroke="#a6cfe3" stroke-width="0.0" fill-opacity="1.0" stroke-opacity="1.0"><rect x="0.575" width="1.0000000000000009e-2" y="-5.0e-2" height="0.1"/></g><g fill="#ab4b00" stroke="#a6cfe3" stroke-width="0.0" fill-opacity="1.0" stroke-opacity="1.0"><rect x="0.585" width="1.0000000000000009e-2" y="-5.0e-2" height="0.1"/></g><g fill="#ab4a00" stroke="#a6cfe3" stroke-width="0.0" fill-opacity="1.0" stroke-opacity="1.0"><rect x="0.595" width="1.0000000000000009e-2" y="-5.0e-2" height="0.1"/></g><g fill="#ab4a00" stroke="#a6cfe3" stroke-width="0.0" fill-opacity="1.0" stroke-opacity="1.0"><rect x="0.605" width="1.0000000000000009e-2" y="-5.0e-2" height="0.1"/></g><g fill="#aa4a00" stroke="#a6cfe3" stroke-width="0.0" fill-opacity="1.0" stroke-opacity="1.0"><rect x="0.615" width="1.0000000000000009e-2" y="-5.0e-2" height="0.1"/></g><g fill="#aa4a00" stroke="#a6cfe3" stroke-width="0.0" fill-opacity="1.0" stroke-opacity="1.0"><rect x="0.625" width="1.0000000000000009e-2" y="-5.0e-2" height="0.1"/></g><g fill="#aa4a00" stroke="#a6cfe3" stroke-width="0.0" fill-opacity="1.0" stroke-opacity="1.0"><rect x="0.635" width="1.0000000000000009e-2" y="-5.0e-2" height="0.1"/></g><g fill="#aa4900" stroke="#a6cfe3" stroke-width="0.0" fill-opacity="1.0" stroke-opacity="1.0"><rect x="0.645" width="1.0000000000000009e-2" y="-5.0e-2" height="0.1"/></g><g fill="#aa4900" stroke="#a6cfe3" stroke-width="0.0" fill-opacity="1.0" stroke-opacity="1.0"><rect x="0.655" width="1.0000000000000009e-2" y="-5.0e-2" height="0.1"/></g><g fill="#a94900" stroke="#a6cfe3" stroke-width="0.0" fill-opacity="1.0" stroke-opacity="1.0"><rect x="0.665" width="1.0000000000000009e-2" y="-5.0e-2" height="0.1"/></g><g fill="#a94900" stroke="#a6cfe3" stroke-width="0.0" fill-opacity="1.0" stroke-opacity="1.0"><rect x="0.675" width="1.0000000000000009e-2" y="-5.0e-2" height="0.1"/></g><g fill="#a94800" stroke="#a6cfe3" stroke-width="0.0" fill-opacity="1.0" stroke-opacity="1.0"><rect x="0.685" width="1.0000000000000009e-2" y="-5.0e-2" height="0.1"/></g><g fill="#a94800" stroke="#a6cfe3" stroke-width="0.0" fill-opacity="1.0" stroke-opacity="1.0"><rect x="0.6950000000000001" width="1.0000000000000009e-2" y="-5.0e-2" height="0.1"/></g><g fill="#a84800" stroke="#a6cfe3" stroke-width="0.0" fill-opacity="1.0" stroke-opacity="1.0"><rect x="0.705" width="1.0000000000000009e-2" y="-5.0e-2" height="0.1"/></g><g fill="#a84800" stroke="#a6cfe3" stroke-width="0.0" fill-opacity="1.0" stroke-opacity="1.0"><rect x="0.715" width="1.0000000000000009e-2" y="-5.0e-2" height="0.1"/></g><g fill="#a84800" stroke="#a6cfe3" stroke-width="0.0" fill-opacity="1.0" stroke-opacity="1.0"><rect x="0.725" width="1.0000000000000009e-2" y="-5.0e-2" height="0.1"/></g><g fill="#a84700" stroke="#a6cfe3" stroke-width="0.0" fill-opacity="1.0" stroke-opacity="1.0"><rect x="0.735" width="1.0000000000000009e-2" y="-5.0e-2" height="0.1"/></g><g fill="#a74700" stroke="#a6cfe3" stroke-width="0.0" fill-opacity="1.0" stroke-opacity="1.0"><rect x="0.745" width="1.0000000000000009e-2" y="-5.0e-2" height="0.1"/></g><g fill="#a74700" stroke="#a6cfe3" stroke-width="0.0" fill-opacity="1.0" stroke-opacity="1.0"><rect x="0.755" width="1.0000000000000009e-2" y="-5.0e-2" height="0.1"/></g><g fill="#a74700" stroke="#a6cfe3" stroke-width="0.0" fill-opacity="1.0" stroke-opacity="1.0"><rect x="0.765" width="1.0000000000000009e-2" y="-5.0e-2" height="0.1"/></g><g fill="#a74700" stroke="#a6cfe3" stroke-width="0.0" fill-opacity="1.0" stroke-opacity="1.0"><rect x="0.775" width="1.0000000000000009e-2" y="-5.0e-2" height="0.1"/></g><g fill="#a64600" stroke="#a6cfe3" stroke-width="0.0" fill-opacity="1.0" stroke-opacity="1.0"><rect x="0.785" width="1.0000000000000009e-2" y="-5.0e-2" height="0.1"/></g><g fill="#a64600" stroke="#a6cfe3" stroke-width="0.0" fill-opacity="1.0" stroke-opacity="1.0"><rect x="0.795" width="1.0000000000000009e-2" y="-5.0e-2" height="0.1"/></g><g fill="#a64600" stroke="#a6cfe3" stroke-width="0.0" fill-opacity="1.0" stroke-opacity="1.0"><rect x="0.805" width="1.0000000000000009e-2" y="-5.0e-2" height="0.1"/></g><g fill="#a64600" stroke="#a6cfe3" stroke-width="0.0" fill-opacity="1.0" stroke-opacity="1.0"><rect x="0.8150000000000001" width="1.0000000000000009e-2" y="-5.0e-2" height="0.1"/></g><g fill="#a54500" stroke="#a6cfe3" stroke-width="0.0" fill-opacity="1.0" stroke-opacity="1.0"><rect x="0.8250000000000001" width="1.0000000000000009e-2" y="-5.0e-2" height="0.1"/></g><g fill="#a54500" stroke="#a6cfe3" stroke-width="0.0" fill-opacity="1.0" stroke-opacity="1.0"><rect x="0.835" width="1.0000000000000009e-2" y="-5.0e-2" height="0.1"/></g><g fill="#a54500" stroke="#a6cfe3" stroke-width="0.0" fill-opacity="1.0" stroke-opacity="1.0"><rect x="0.845" width="1.0000000000000009e-2" y="-5.0e-2" height="0.1"/></g><g fill="#a54500" stroke="#a6cfe3" stroke-width="0.0" fill-opacity="1.0" stroke-opacity="1.0"><rect x="0.855" width="1.0000000000000009e-2" y="-5.0e-2" height="0.1"/></g><g fill="#a44500" stroke="#a6cfe3" stroke-width="0.0" fill-opacity="1.0" stroke-opacity="1.0"><rect x="0.865" width="1.0000000000000009e-2" y="-5.0e-2" height="0.1"/></g><g fill="#a44400" stroke="#a6cfe3" stroke-width="0.0" fill-opacity="1.0" stroke-opacity="1.0"><rect x="0.875" width="1.0000000000000009e-2" y="-5.0e-2" height="0.1"/></g><g fill="#a44400" stroke="#a6cfe3" stroke-width="0.0" fill-opacity="1.0" stroke-opacity="1.0"><rect x="0.885" width="1.0000000000000009e-2" y="-5.0e-2" height="0.1"/></g><g fill="#a44400" stroke="#a6cfe3" stroke-width="0.0" fill-opacity="1.0" stroke-opacity="1.0"><rect x="0.895" width="1.0000000000000009e-2" y="-5.0e-2" height="0.1"/></g><g fill="#a44400" stroke="#a6cfe3" stroke-width="0.0" fill-opacity="1.0" stroke-opacity="1.0"><rect x="0.905" width="1.0000000000000009e-2" y="-5.0e-2" height="0.1"/></g><g fill="#a34300" stroke="#a6cfe3" stroke-width="0.0" fill-opacity="1.0" stroke-opacity="1.0"><rect x="0.915" width="1.0000000000000009e-2" y="-5.0e-2" height="0.1"/></g><g fill="#a34300" stroke="#a6cfe3" stroke-width="0.0" fill-opacity="1.0" stroke-opacity="1.0"><rect x="0.925" width="1.0000000000000009e-2" y="-5.0e-2" height="0.1"/></g><g fill="#a34300" stroke="#a6cfe3" stroke-width="0.0" fill-opacity="1.0" stroke-opacity="1.0"><rect x="0.935" width="1.0000000000000009e-2" y="-5.0e-2" height="0.1"/></g><g fill="#a34300" stroke="#a6cfe3" stroke-width="0.0" fill-opacity="1.0" stroke-opacity="1.0"><rect x="0.9450000000000001" width="1.0000000000000009e-2" y="-5.0e-2" height="0.1"/></g><g fill="#a24300" stroke="#a6cfe3" stroke-width="0.0" fill-opacity="1.0" stroke-opacity="1.0"><rect x="0.955" width="1.0000000000000009e-2" y="-5.0e-2" height="0.1"/></g><g fill="#a24200" stroke="#a6cfe3" stroke-width="0.0" fill-opacity="1.0" stroke-opacity="1.0"><rect x="0.965" width="1.0000000000000009e-2" y="-5.0e-2" height="0.1"/></g><g fill="#a24200" stroke="#a6cfe3" stroke-width="0.0" fill-opacity="1.0" stroke-opacity="1.0"><rect x="0.975" width="1.0000000000000009e-2" y="-5.0e-2" height="0.1"/></g><g fill="#a24200" stroke="#a6cfe3" stroke-width="0.0" fill-opacity="1.0" stroke-opacity="1.0"><rect x="0.985" width="1.0000000000000009e-2" y="-5.0e-2" height="0.1"/></g></g></g><g class="hud"></g></svg>