<svg xmlns="http://www.w3.org/2000/svg" height="50.0" viewBox="-5.0e-3 -5.0e-2 1.0 0.1" width="500.0" xmlns:xlink="http://www.w3.org/1999/xlink"><style>svg {
  color-scheme: light dark;
}
{
  .canvas g, .title g, .axisbar g, .ticktext g, .tickglyph g, .ticklines g, .legendContent g text {
    fill: #0d0d0d;
  }
  .ticklines g, .tickglyph g, .legendBorder g {
    stroke: #0d0d0d;
  }
}
@media (prefers-color-scheme:dark) {
  .canvas g, .title g, .axisbar g, .ticktext g, .tickglyph g, .ticklines g, .legendContent g text {
    fill: #f0f0f0;
  }
  .ticklines g, .tickglyph g, .legendBorder g {
    stroke: #f0f0f0;
  }
}</style><g class="chart"><g class="gradient"><g stroke-opacity="1.0" fill-opacity="1.0" stroke="#a6cfe3" stroke-width="0.0" fill="#0566b3"><rect height="0.1" width="1.0e-2" x="-5.0e-3" y="-5.0e-2"/></g><g stroke-opacity="1.0" fill-opacity="1.0" stroke="#a6cfe3" stroke-width="0.0" fill="#0e67b3"><rect height="0.1" width="9.999999999999998e-3" x="5.0e-3" y="-5.0e-2"/></g><g stroke-opacity="1.0" fill-opacity="1.0" stroke="#a6cfe3" stroke-width="0.0" fill="#1469b4"><rect height="0.1" width="1.0000000000000002e-2" x="1.5e-2" y="-5.0e-2"/></g><g stroke-opacity="1.0" fill-opacity="1.0" stroke="#a6cfe3" stroke-width="0.0" fill="#196ab5"><rect height="0.1" width="9.999999999999998e-3" x="2.4999999999999998e-2" y="-5.0e-2"/></g><g stroke-opacity="1.0" fill-opacity="1.0" stroke="#a6cfe3" stroke-width="0.0" fill="#1e6cb6"><rect height="0.1" width="9.999999999999995e-3" x="3.5e-2" y="-5.0e-2"/></g><g stroke-opacity="1.0" fill-opacity="1.0" stroke="#a6cfe3" stroke-width="0.0" fill="#226db7"><rect height="0.1" width="9.999999999999995e-3" x="4.5000000000000005e-2" y="-5.0e-2"/></g><g stroke-opacity="1.0" fill-opacity="1.0" stroke="#a6cfe3" stroke-width="0.0" fill="#266fb8"><rect height="0.1" width="1.0000000000000002e-2" x="5.5e-2" y="-5.0e-2"/></g><g stroke-opacity="1.0" fill-opacity="1.0" stroke="#a6cfe3" stroke-width="0.0" fill="#2970b9"><rect height="0.1" width="1.0000000000000009e-2" x="6.5e-2" y="-5.0e-2"/></g><g stroke-opacity="1.0" fill-opacity="1.0" stroke="#a6cfe3" stroke-width="0.0" fill="#2d72ba"><rect height="0.1" width="1.0000000000000009e-2" x="7.5e-2" y="-5.0e-2"/></g><g stroke-opacity="1.0" fill-opacity="1.0" stroke="#a6cfe3" stroke-width="0.0" fill="#3073bb"><rect height="0.1" width="1.0000000000000009e-2" x="8.499999999999999e-2" y="-5.0e-2"/></g><g stroke-opacity="1.0" fill-opacity="1.0" stroke="#a6cfe3" stroke-width="0.0" fill="#3375bc"><rect height="0.1" width="1.0000000000000009e-2" x="9.5e-2" y="-5.0e-2"/></g><g stroke-opacity="1.0" fill-opacity="1.0" stroke="#a6cfe3" stroke-width="0.0" fill="#3676bd"><rect height="0.1" width="1.0000000000000009e-2" x="0.105" y="-5.0e-2"/></g><g stroke-opacity="1.0" fill-opacity="1.0" stroke="#a6cfe3" stroke-width="0.0" fill="#3977be"><rect height="0.1" width="1.0000000000000009e-2" x="0.11499999999999999" y="-5.0e-2"/></g><g stroke-opacity="1.0" fill-opacity="1.0" stroke="#a6cfe3" stroke-width="0.0" fill="#3c79be"><rect height="0.1" width="1.0000000000000009e-2" x="0.125" y="-5.0e-2"/></g><g stroke-opacity="1.0" fill-opacity="1.0" stroke="#a6cfe3" stroke-width="0.0" fill="#3f7abf"><rect height="0.1" width="1.0000000000000009e-2" x="0.135" y="-5.0e-2"/></g><g stroke-opacity="1.0" fill-opacity="1.0" stroke="#a6cfe3" stroke-width="0.0" fill="#427cc0"><rect height="0.1" width="1.0000000000000009e-2" x="0.145" y="-5.0e-2"/></g><g stroke-opacity="1.0" fill-opacity="1.0" stroke="#a6cfe3" stroke-width="0.0" fill="#457dc1"><rect height="0.1" width="1.0000000000000009e-2" x="0.155" y="-5.0e-2"/></g><g stroke-opacity="1.0" fill-opacity="1.0" stroke="#a6cfe3" stroke-width="0.0" fill="#477fc2"><rect height="0.1" width="1.0000000000000009e-2" x="0.165" y="-5.0e-2"/></g><g stroke-opacity="1.0" fill-opacity="1.0" stroke="#a6cfe3" stroke-width="0.0" fill="#4a80c3"><rect height="0.1" width="1.0000000000000009e-2" x="0.175" y="-5.0e-2"/></g><g stroke-opacity="1.0" fill-opacity="1.0" stroke="#a6cfe3" stroke-width="0.0" fill="#4c82c4"><rect height="0.1" width="1.0000000000000009e-2" x="0.185" y="-5.0e-2"/></g><g stroke-opacity="1.0" fill-opacity="1.0" stroke="#a6cfe3" stroke-width="0.0" fill="#4f83c5"><rect height="0.1" width="1.0000000000000009e-2" x="0.195" y="-5.0e-2"/></g><g stroke-opacity="1.0" fill-opacity="1.0" stroke="#a6cfe3" stroke-width="0.0" fill="#5285c5"><rect height="0.1" width="1.0000000000000009e-2" x="0.205" y="-5.0e-2"/></g><g stroke-opacity="1.0" fill-opacity="1.0" stroke="#a6cfe3" stroke-width="0.0" fill="#5486c6"><rect height="0.1" width="1.0000000000000009e-2" x="0.215" y="-5.0e-2"/></g><g stroke-opacity="1.0" fill-opacity="1.0" stroke="#a6cfe3" stroke-width="0.0" fill="#5788c7"><rect height="0.1" width="1.0000000000000009e-2" x="0.225" y="-5.0e-2"/></g><g stroke-opacity="1.0" fill-opacity="1.0" stroke="#a6cfe3" stroke-width="0.0" fill="#5989c8"><rect height="0.1" width="1.0000000000000009e-2" x="0.235" y="-5.0e-2"/></g><g stroke-opacity="1.0" fill-opacity="1.0" stroke="#a6cfe3" stroke-width="0.0" fill="#5b8ac9"><rect height="0.1" width="1.0000000000000009e-2" x="0.245" y="-5.0e-2"/></g><g stroke-opacity="1.0" fill-opacity="1.0" stroke="#a6cfe3" stroke-width="0.0" fill="#5e8cca"><rect height="0.1" width="1.0000000000000009e-2" x="0.255" y="-5.0e-2"/></g><g stroke-opacity="1.0" fill-opacity="1.0" stroke="#a6cfe3" stroke-width="0.0" fill="#608dcb"><rect height="0.1" width="1.0000000000000009e-2" x="0.265" y="-5.0e-2"/></g><g stroke-opacity="1.0" fill-opacity="1.0" stroke="#a6cfe3" stroke-width="0.0" fill="#638fcb"><rect height="0.1" width="1.0000000000000009e-2" x="0.275" y="-5.0e-2"/></g><g stroke-opacity="1.0" fill-opacity="1.0" stroke="#a6cfe3" stroke-width="0.0" fill="#6590cc"><rect height="0.1" width="1.0000000000000009e-2" x="0.285" y="-5.0e-2"/></g><g stroke-opacity="1.0" fill-opacity="1.0" stroke="#a6cfe3" stroke-width="0.0" fill="#6892cd"><rect height="0.1" width="1.0000000000000009e-2" x="0.295" y="-5.0e-2"/></g><g stroke-opacity="1.0" fill-opacity="1.0" stroke="#a6cfe3" stroke-width="0.0" fill="#6a93ce"><rect height="0.1" width="1.0000000000000009e-2" x="0.305" y="-5.0e-2"/></g><g stroke-opacity="1.0" fill-opacity="1.0" stroke="#a6cfe3" stroke-width="0.0" fill="#6c95cf"><rect height="0.1" width="1.0000000000000009e-2" x="0.315" y="-5.0e-2"/></g><g stroke-opacity="1.0" fill-opacity="1.0" stroke="#a6cfe3" stroke-width="0.0" fill="#6f96cf"><rect height="0.1" width="1.0000000000000009e-2" x="0.325" y="-5.0e-2"/></g><g stroke-opacity="1.0" fill-opacity="1.0" stroke="#a6cfe3" stroke-width="0.0" fill="#7198d0"><rect height="0.1" width="1.0000000000000009e-2" x="0.335" y="-5.0e-2"/></g><g stroke-opacity="1.0" fill-opacity="1.0" stroke="#a6cfe3" stroke-width="0.0" fill="#7399d1"><rect height="0.1" width="1.0000000000000009e-2" x="0.34500000000000003" y="-5.0e-2"/></g><g stroke-opacity="1.0" fill-opacity="1.0" stroke="#a6cfe3" stroke-width="0.0" fill="#769bd2"><rect height="0.1" width="1.0000000000000009e-2" x="0.355" y="-5.0e-2"/></g><g stroke-opacity="1.0" fill-opacity="1.0" stroke="#a6cfe3" stroke-width="0.0" fill="#789cd3"><rect height="0.1" width="1.0000000000000009e-2" x="0.365" y="-5.0e-2"/></g><g stroke-opacity="1.0" fill-opacity="1.0" stroke="#a6cfe3" stroke-width="0.0" fill="#7a9ed4"><rect height="0.1" width="1.0000000000000009e-2" x="0.375" y="-5.0e-2"/></g><g stroke-opacity="1.0" fill-opacity="1.0" stroke="#a6cfe3" stroke-width="0.0" fill="#7c9fd4"><rect height="0.1" width="1.0000000000000009e-2" x="0.385" y="-5.0e-2"/></g><g stroke-opacity="1.0" fill-opacity="1.0" stroke="#a6cfe3" stroke-width="0.0" fill="#7fa1d5"><rect height="0.1" width="1.0000000000000009e-2" x="0.395" y="-5.0e-2"/></g><g stroke-opacity="1.0" fill-opacity="1.0" stroke="#a6cfe3" stroke-width="0.0" fill="#81a2d6"><rect height="0.1" width="1.0000000000000009e-2" x="0.405" y="-5.0e-2"/></g><g stroke-opacity="1.0" fill-opacity="1.0" stroke="#a6cfe3" stroke-width="0.0" fill="#83a4d7"><rect height="0.1" width="1.0000000000000009e-2" x="0.415" y="-5.0e-2"/></g><g stroke-opacity="1.0" fill-opacity="1.0" stroke="#a6cfe3" stroke-width="0.0" fill="#85a5d7"><rect height="0.1" width="1.0000000000000009e-2" x="0.425" y="-5.0e-2"/></g><g stroke-opacity="1.0" fill-opacity="1.0" stroke="#a6cfe3" stroke-width="0.0" fill="#88a7d8"><rect height="0.1" width="1.0000000000000009e-2" x="0.435" y="-5.0e-2"/></g><g stroke-opacity="1.0" fill-opacity="1.0" stroke="#a6cfe3" stroke-width="0.0" fill="#8aa8d9"><rect height="0.1" width="1.0000000000000009e-2" x="0.445" y="-5.0e-2"/></g><g stroke-opacity="1.0" fill-opacity="1.0" stroke="#a6cfe3" stroke-width="0.0" fill="#8caada"><rect height="0.1" width="1.0000000000000009e-2" x="0.455" y="-5.0e-2"/></g><g stroke-opacity="1.0" fill-opacity="1.0" stroke="#a6cfe3" stroke-width="0.0" fill="#8eabdb"><rect height="0.1" width="1.0000000000000009e-2" x="0.465" y="-5.0e-2"/></g><g stroke-opacity="1.0" fill-opacity="1.0" stroke="#a6cfe3" stroke-width="0.0" fill="#91addb"><rect height="0.1" width="1.0000000000000009e-2" x="0.475" y="-5.0e-2"/></g><g stroke-opacity="1.0" fill-opacity="1.0" stroke="#a6cfe3" stroke-width="0.0" fill="#93aedc"><rect height="0.1" width="1.0000000000000009e-2" x="0.485" y="-5.0e-2"/></g><g stroke-opacity="1.0" fill-opacity="1.0" stroke="#a6cfe3" stroke-width="0.0" fill="#95b0dd"><rect height="0.1" width="1.0000000000000009e-2" x="0.495" y="-5.0e-2"/></g><g stroke-opacity="1.0" fill-opacity="1.0" stroke="#a6cfe3" stroke-width="0.0" fill="#97b1de"><rect height="0.1" width="1.0000000000000009e-2" x="0.505" y="-5.0e-2"/></g><g stroke-opacity="1.0" fill-opacity="1.0" stroke="#a6cfe3" stroke-width="0.0" fill="#99b3de"><rect height="0.1" width="1.0000000000000009e-2" x="0.515" y="-5.0e-2"/></g><g stroke-opacity="1.0" fill-opacity="1.0" stroke="#a6cfe3" stroke-width="0.0" fill="#9cb4df"><rect height="0.1" width="1.0000000000000009e-2" x="0.525" y="-5.0e-2"/></g><g stroke-opacity="1.0" fill-opacity="1.0" stroke="#a6cfe3" stroke-width="0.0" fill="#9eb6e0"><rect height="0.1" width="1.0000000000000009e-2" x="0.535" y="-5.0e-2"/></g><g stroke-opacity="1.0" fill-opacity="1.0" stroke="#a6cfe3" stroke-width="0.0" fill="#a0b7e1"><rect height="0.1" width="1.0000000000000009e-2" x="0.545" y="-5.0e-2"/></g><g stroke-opacity="1.0" fill-opacity="1.0" stroke="#a6cfe3" stroke-width="0.0" fill="#a2b9e1"><rect height="0.1" width="1.0000000000000009e-2" x="0.555" y="-5.0e-2"/></g><g stroke-opacity="1.0" fill-opacity="1.0" stroke="#a6cfe3" stroke-width="0.0" fill="#a4bae2"><rect height="0.1" width="1.0000000000000009e-2" x="0.5650000000000001" y="-5.0e-2"/></g><g stroke-opacity="1.0" fill-opacity="1.0" stroke="#a6cfe3" stroke-width="0.0" fill="#a7bce3"><rect height="0.1" width="1.0000000000000009e-2" x="0.575" y="-5.0e-2"/></g><g stroke-opacity="1.0" fill-opacity="1.0" stroke="#a6cfe3" stroke-width="0.0" fill="#a9bde4"><rect height="0.1" width="1.0000000000000009e-2" x="0.585" y="-5.0e-2"/></g><g stroke-opacity="1.0" fill-opacity="1.0" stroke="#a6cfe3" stroke-width="0.0" fill="#abbfe4"><rect height="0.1" width="1.0000000000000009e-2" x="0.595" y="-5.0e-2"/></g><g stroke-opacity="1.0" fill-opacity="1.0" stroke="#a6cfe3" stroke-width="0.0" fill="#adc0e5"><rect height="0.1" width="1.0000000000000009e-2" x="0.605" y="-5.0e-2"/></g><g stroke-opacity="1.0" fill-opacity="1.0" stroke="#a6cfe3" stroke-width="0.0" fill="#afc2e6"><rect height="0.1" width="1.0000000000000009e-2" x="0.615" y="-5.0e-2"/></g><g stroke-opacity="1.0" fill-opacity="1.0" stroke="#a6cfe3" stroke-width="0.0" fill="#b1c3e6"><rect height="0.1" width="1.0000000000000009e-2" x="0.625" y="-5.0e-2"/></g><g stroke-opacity="1.0" fill-opacity="1.0" stroke="#a6cfe3" stroke-width="0.0" fill="#b4c5e7"><rect height="0.1" width="1.0000000000000009e-2" x="0.635" y="-5.0e-2"/></g><g stroke-opacity="1.0" fill-opacity="1.0" stroke="#a6cfe3" stroke-width="0.0" fill="#b6c7e8"><rect height="0.1" width="1.0000000000000009e-2" x="0.645" y="-5.0e-2"/></g><g stroke-opacity="1.0" fill-opacity="1.0" stroke="#a6cfe3" stroke-width="0.0" fill="#b8c8e9"><rect height="0.1" width="1.0000000000000009e-2" x="0.655" y="-5.0e-2"/></g><g stroke-opacity="1.0" fill-opacity="1.0" stroke="#a6cfe3" stroke-width="0.0" fill="#bacae9"><rect height="0.1" width="1.0000000000000009e-2" x="0.665" y="-5.0e-2"/></g><g stroke-opacity="1.0" fill-opacity="1.0" stroke="#a6cfe3" stroke-width="0.0" fill="#bccbea"><rect height="0.1" width="1.0000000000000009e-2" x="0.675" y="-5.0e-2"/></g><g stroke-opacity="1.0" fill-opacity="1.0" stroke="#a6cfe3" stroke-width="0.0" fill="#becdeb"><rect height="0.1" width="1.0000000000000009e-2" x="0.685" y="-5.0e-2"/></g><g stroke-opacity="1.0" fill-opacity="1.0" stroke="#a6cfe3" stroke-width="0.0" fill="#c0ceeb"><rect height="0.1" width="1.0000000000000009e-2" x="0.6950000000000001" y="-5.0e-2"/></g><g stroke-opacity="1.0" fill-opacity="1.0" stroke="#a6cfe3" stroke-width="0.0" fill="#c3d0ec"><rect height="0.1" width="1.0000000000000009e-2" x="0.705" y="-5.0e-2"/></g><g stroke-opacity="1.0" fill-opacity="1.0" stroke="#a6cfe3" stroke-width="0.0" fill="#c5d2ed"><rect height="0.1" width="1.0000000000000009e-2" x="0.715" y="-5.0e-2"/></g><g stroke-opacity="1.0" fill-opacity="1.0" stroke="#a6cfe3" stroke-width="0.0" fill="#c7d3ed"><rect height="0.1" width="1.0000000000000009e-2" x="0.725" y="-5.0e-2"/></g><g stroke-opacity="1.0" fill-opacity="1.0" stroke="#a6cfe3" stroke-width="0.0" fill="#c9d5ee"><rect height="0.1" width="1.0000000000000009e-2" x="0.735" y="-5.0e-2"/></g><g stroke-opacity="1.0" fill-opacity="1.0" stroke="#a6cfe3" stroke-width="0.0" fill="#cbd6ef"><rect height="0.1" width="1.0000000000000009e-2" x="0.745" y="-5.0e-2"/></g><g stroke-opacity="1.0" fill-opacity="1.0" stroke="#a6cfe3" stroke-width="0.0" fill="#cdd8ef"><rect height="0.1" width="1.0000000000000009e-2" x="0.755" y="-5.0e-2"/></g><g stroke-opacity="1.0" fill-opacity="1.0" stroke="#a6cfe3" stroke-width="0.0" fill="#cfd9f0"><rect height="0.1" width="1.0000000000000009e-2" x="0.765" y="-5.0e-2"/></g><g stroke-opacity="1.0" fill-opacity="1.0" stroke="#a6cfe3" stroke-width="0.0" fill="#d1dbf1"><rect height="0.1" width="1.0000000000000009e-2" x="0.775" y="-5.0e-2"/></g><g stroke-opacity="1.0" fill-opacity="1.0" stroke="#a6cfe3" stroke-width="0.0" fill="#d4ddf1"><rect height="0.1" width="1.0000000000000009e-2" x="0.785" y="-5.0e-2"/></g><g stroke-opacity="1.0" fill-opacity="1.0" stroke="#a6cfe3" stroke-width="0.0" fill="#d6def2"><rect height="0.1" width="1.0000000000000009e-2" x="0.795" y="-5.0e-2"/></g><g stroke-opacity="1.0" fill-opacity="1.0" stroke="#a6cfe3" stroke-width="0.0" fill="#d8e0f3"><rect height="0.1" width="1.0000000000000009e-2" x="0.805" y="-5.0e-2"/></g><g stroke-opacity="1.0" fill-opacity="1.0" stroke="#a6cfe3" stroke-width="0.0" fill="#dae1f3"><rect height="0.1" width="1.0000000000000009e-2" x="0.8150000000000001" y="-5.0e-2"/></g><g stroke-opacity="1.0" fill-opacity="1.0" stroke="#a6cfe3" stroke-width="0.0" fill="#dce3f4"><rect height="0.1" width="1.0000000000000009e-2" x="0.8250000000000001" y="-5.0e-2"/></g><g stroke-opacity="1.0" fill-opacity="1.0" stroke="#a6cfe3" stroke-width="0.0" fill="#dee5f5"><rect height="0.1" width="1.0000000000000009e-2" x="0.835" y="-5.0e-2"/></g><g stroke-opacity="1.0" fill-opacity="1.0" stroke="#a6cfe3" stroke-width="0.0" fill="#e0e6f5"><rect height="0.1" width="1.0000000000000009e-2" x="0.845" y="-5.0e-2"/></g><g stroke-opacity="1.0" fill-opacity="1.0" stroke="#a6cfe3" stroke-width="0.0" fill="#e2e8f6"><rect height="0.1" width="1.0000000000000009e-2" x="0.855" y="-5.0e-2"/></g><g stroke-opacity="1.0" fill-opacity="1.0" stroke="#a6cfe3" stroke-width="0.0" fill="#e4eaf7"><rect height="0.1" width="1.0000000000000009e-2" x="0.865" y="-5.0e-2"/></g><g stroke-opacity="1.0" fill-opacity="1.0" stroke="#a6cfe3" stroke-width="0.0" fill="#e6ebf7"><rect height="0.1" width="1.0000000000000009e-2" x="0.875" y="-5.0e-2"/></g><g stroke-opacity="1.0" fill-opacity="1.0" stroke="#a6cfe3" stroke-width="0.0" fill="#e8edf8"><rect height="0.1" width="1.0000000000000009e-2" x="0.885" y="-5.0e-2"/></g><g stroke-opacity="1.0" fill-opacity="1.0" stroke="#a6cfe3" stroke-width="0.0" fill="#ebeef9"><rect height="0.1" width="1.0000000000000009e-2" x="0.895" y="-5.0e-2"/></g><g stroke-opacity="1.0" fill-opacity="1.0" stroke="#a6cfe3" stroke-width="0.0" fill="#edf0f9"><rect height="0.1" width="1.0000000000000009e-2" x="0.905" y="-5.0e-2"/></g><g stroke-opacity="1.0" fill-opacity="1.0" stroke="#a6cfe3" stroke-width="0.0" fill="#eff2fa"><rect height="0.1" width="1.0000000000000009e-2" x="0.915" y="-5.0e-2"/></g><g stroke-opacity="1.0" fill-opacity="1.0" stroke="#a6cfe3" stroke-width="0.0" fill="#f1f3fb"><rect height="0.1" width="1.0000000000000009e-2" x="0.925" y="-5.0e-2"/></g><g stroke-opacity="1.0" fill-opacity="1.0" stroke="#a6cfe3" stroke-width="0.0" fill="#f3f5fb"><rect height="0.1" width="1.0000000000000009e-2" x="0.935" y="-5.0e-2"/></g><g stroke-opacity="1.0" fill-opacity="1.0" stroke="#a6cfe3" stroke-width="0.0" fill="#f5f7fc"><rect height="0.1" width="1.0000000000000009e-2" x="0.9450000000000001" y="-5.0e-2"/></g><g stroke-opacity="1.0" fill-opacity="1.0" stroke="#a6cfe3" stroke-width="0.0" fill="#f7f8fc"><rect height="0.1" width="1.0000000000000009e-2" x="0.955" y="-5.0e-2"/></g><g stroke-opacity="1.0" fill-opacity="1.0" stroke="#a6cfe3" stroke-width="0.0" fill="#f9fafd"><rect height="0.1" width="1.0000000000000009e-2" x="0.965" y="-5.0e-2"/></g><g stroke-opacity="1.0" fill-opacity="1.0" stroke="#a6cfe3" stroke-width="0.0" fill="#fbfcfe"><rect height="0.1" width="1.0000000000000009e-2" x="0.975" y="-5.0e-2"/></g><g stroke-opacity="1.0" fill-opacity="1.0" stroke="#a6cfe3" stroke-width="0.0" fill="#fdfdfe"><rect height="0.1" width="1.0000000000000009e-2" x="0.985" y="-5.0e-2"/></g></g></g><g class="hud"></g></svg>