<svg xmlns="http://www.w3.org/2000/svg" width="500.0" xmlns:xlink="http://www.w3.org/1999/xlink" viewBox="-5.0e-3 -5.0e-2 1.0 0.1" height="50.0"><style>svg {
  color-scheme: light dark;
}
{
  .canvas g, .title g, .axisbar g, .ticktext g, .tickglyph g, .ticklines g, .legendContent g text {
    fill: #0d0d0d;
  }
  .ticklines g, .tickglyph g, .legendBorder g {
    stroke: #0d0d0d;
  }
}
@media (prefers-color-scheme:dark) {
  .canvas g, .title g, .axisbar g, .ticktext g, .tickglyph g, .ticklines g, .legendContent g text {
    fill: #f0f0f0;
  }
  .ticklines g, .tickglyph g, .legendBorder g {
    stroke: #f0f0f0;
  }
}</style><g class="chart"><g class="gradient"><g fill="#024b78" stroke="#a6cfe3" stroke-width="0.0" fill-opacity="1.0" stroke-opacity="1.0"><rect x="-5.0e-3" width="1.0e-2" y="-5.0e-2" height="0.1"/></g><g fill="#004c78" stroke="#a6cfe3" stroke-width="0.0" fill-opacity="1.0" stroke-opacity="1.0"><rect x="5.0e-3" width="9.999999999999998e-3" y="-5.0e-2" height="0.1"/></g><g fill="#004d78" stroke="#a6cfe3" stroke-width="0.0" fill-opacity="1.0" stroke-opacity="1.0"><rect x="1.5e-2" width="1.0000000000000002e-2" y="-5.0e-2" height="0.1"/></g><g fill="#004e78" stroke="#a6cfe3" stroke-width="0.0" fill-opacity="1.0" stroke-opacity="1.0"><rect x="2.4999999999999998e-2" width="9.999999999999998e-3" y="-5.0e-2" height="0.1"/></g><g fill="#004f77" stroke="#a6cfe3" stroke-width="0.0" fill-opacity="1.0" stroke-opacity="1.0"><rect x="3.5e-2" width="9.999999999999995e-3" y="-5.0e-2" height="0.1"/></g><g fill="#005077" stroke="#a6cfe3" stroke-width="0.0" fill-opacity="1.0" stroke-opacity="1.0"><rect x="4.5000000000000005e-2" width="9.999999999999995e-3" y="-5.0e-2" height="0.1"/></g><g fill="#005177" stroke="#a6cfe3" stroke-width="0.0" fill-opacity="1.0" stroke-opacity="1.0"><rect x="5.5e-2" width="1.0000000000000002e-2" y="-5.0e-2" height="0.1"/></g><g fill="#005277" stroke="#a6cfe3" stroke-width="0.0" fill-opacity="1.0" stroke-opacity="1.0"><rect x="6.5e-2" width="1.0000000000000009e-2" y="-5.0e-2" height="0.1"/></g><g fill="#005376" stroke="#a6cfe3" stroke-width="0.0" fill-opacity="1.0" stroke-opacity="1.0"><rect x="7.5e-2" width="1.0000000000000009e-2" y="-5.0e-2" height="0.1"/></g><g fill="#005476" stroke="#a6cfe3" stroke-width="0.0" fill-opacity="1.0" stroke-opacity="1.0"><rect x="8.499999999999999e-2" width="1.0000000000000009e-2" y="-5.0e-2" height="0.1"/></g><g fill="#005675" stroke="#a6cfe3" stroke-width="0.0" fill-opacity="1.0" stroke-opacity="1.0"><rect x="9.5e-2" width="1.0000000000000009e-2" y="-5.0e-2" height="0.1"/></g><g fill="#005775" stroke="#a6cfe3" stroke-width="0.0" fill-opacity="1.0" stroke-opacity="1.0"><rect x="0.105" width="1.0000000000000009e-2" y="-5.0e-2" height="0.1"/></g><g fill="#005874" stroke="#a6cfe3" stroke-width="0.0" fill-opacity="1.0" stroke-opacity="1.0"><rect x="0.11499999999999999" width="1.0000000000000009e-2" y="-5.0e-2" height="0.1"/></g><g fill="#005974" stroke="#a6cfe3" stroke-width="0.0" fill-opacity="1.0" stroke-opacity="1.0"><rect x="0.125" width="1.0000000000000009e-2" y="-5.0e-2" height="0.1"/></g><g fill="#005a73" stroke="#a6cfe3" stroke-width="0.0" fill-opacity="1.0" stroke-opacity="1.0"><rect x="0.135" width="1.0000000000000009e-2" y="-5.0e-2" height="0.1"/></g><g fill="#005b72" stroke="#a6cfe3" stroke-width="0.0" fill-opacity="1.0" stroke-opacity="1.0"><rect x="0.145" width="1.0000000000000009e-2" y="-5.0e-2" height="0.1"/></g><g fill="#005c71" stroke="#a6cfe3" stroke-width="0.0" fill-opacity="1.0" stroke-opacity="1.0"><rect x="0.155" width="1.0000000000000009e-2" y="-5.0e-2" height="0.1"/></g><g fill="#005d70" stroke="#a6cfe3" stroke-width="0.0" fill-opacity="1.0" stroke-opacity="1.0"><rect x="0.165" width="1.0000000000000009e-2" y="-5.0e-2" height="0.1"/></g><g fill="#005e6f" stroke="#a6cfe3" stroke-width="0.0" fill-opacity="1.0" stroke-opacity="1.0"><rect x="0.175" width="1.0000000000000009e-2" y="-5.0e-2" height="0.1"/></g><g fill="#005f6e" stroke="#a6cfe3" stroke-width="0.0" fill-opacity="1.0" stroke-opacity="1.0"><rect x="0.185" width="1.0000000000000009e-2" y="-5.0e-2" height="0.1"/></g><g fill="#00606d" stroke="#a6cfe3" stroke-width="0.0" fill-opacity="1.0" stroke-opacity="1.0"><rect x="0.195" width="1.0000000000000009e-2" y="-5.0e-2" height="0.1"/></g><g fill="#00606c" stroke="#a6cfe3" stroke-width="0.0" fill-opacity="1.0" stroke-opacity="1.0"><rect x="0.205" width="1.0000000000000009e-2" y="-5.0e-2" height="0.1"/></g><g fill="#00616b" stroke="#a6cfe3" stroke-width="0.0" fill-opacity="1.0" stroke-opacity="1.0"><rect x="0.215" width="1.0000000000000009e-2" y="-5.0e-2" height="0.1"/></g><g fill="#006269" stroke="#a6cfe3" stroke-width="0.0" fill-opacity="1.0" stroke-opacity="1.0"><rect x="0.225" width="1.0000000000000009e-2" y="-5.0e-2" height="0.1"/></g><g fill="#006368" stroke="#a6cfe3" stroke-width="0.0" fill-opacity="1.0" stroke-opacity="1.0"><rect x="0.235" width="1.0000000000000009e-2" y="-5.0e-2" height="0.1"/></g><g fill="#006467" stroke="#a6cfe3" stroke-width="0.0" fill-opacity="1.0" stroke-opacity="1.0"><rect x="0.245" width="1.0000000000000009e-2" y="-5.0e-2" height="0.1"/></g><g fill="#006565" stroke="#a6cfe3" stroke-width="0.0" fill-opacity="1.0" stroke-opacity="1.0"><rect x="0.255" width="1.0000000000000009e-2" y="-5.0e-2" height="0.1"/></g><g fill="#006664" stroke="#a6cfe3" stroke-width="0.0" fill-opacity="1.0" stroke-opacity="1.0"><rect x="0.265" width="1.0000000000000009e-2" y="-5.0e-2" height="0.1"/></g><g fill="#006662" stroke="#a6cfe3" stroke-width="0.0" fill-opacity="1.0" stroke-opacity="1.0"><rect x="0.275" width="1.0000000000000009e-2" y="-5.0e-2" height="0.1"/></g><g fill="#006761" stroke="#a6cfe3" stroke-width="0.0" fill-opacity="1.0" stroke-opacity="1.0"><rect x="0.285" width="1.0000000000000009e-2" y="-5.0e-2" height="0.1"/></g><g fill="#00685f" stroke="#a6cfe3" stroke-width="0.0" fill-opacity="1.0" stroke-opacity="1.0"><rect x="0.295" width="1.0000000000000009e-2" y="-5.0e-2" height="0.1"/></g><g fill="#00695d" stroke="#a6cfe3" stroke-width="0.0" fill-opacity="1.0" stroke-opacity="1.0"><rect x="0.305" width="1.0000000000000009e-2" y="-5.0e-2" height="0.1"/></g><g fill="#00695c" stroke="#a6cfe3" stroke-width="0.0" fill-opacity="1.0" stroke-opacity="1.0"><rect x="0.315" width="1.0000000000000009e-2" y="-5.0e-2" height="0.1"/></g><g fill="#006a5a" stroke="#a6cfe3" stroke-width="0.0" fill-opacity="1.0" stroke-opacity="1.0"><rect x="0.325" width="1.0000000000000009e-2" y="-5.0e-2" height="0.1"/></g><g fill="#006b58" stroke="#a6cfe3" stroke-width="0.0" fill-opacity="1.0" stroke-opacity="1.0"><rect x="0.335" width="1.0000000000000009e-2" y="-5.0e-2" height="0.1"/></g><g fill="#006b56" stroke="#a6cfe3" stroke-width="0.0" fill-opacity="1.0" stroke-opacity="1.0"><rect x="0.34500000000000003" width="1.0000000000000009e-2" y="-5.0e-2" height="0.1"/></g><g fill="#006c54" stroke="#a6cfe3" stroke-width="0.0" fill-opacity="1.0" stroke-opacity="1.0"><rect x="0.355" width="1.0000000000000009e-2" y="-5.0e-2" height="0.1"/></g><g fill="#006c52" stroke="#a6cfe3" stroke-width="0.0" fill-opacity="1.0" stroke-opacity="1.0"><rect x="0.365" width="1.0000000000000009e-2" y="-5.0e-2" height="0.1"/></g><g fill="#006d50" stroke="#a6cfe3" stroke-width="0.0" fill-opacity="1.0" stroke-opacity="1.0"><rect x="0.375" width="1.0000000000000009e-2" y="-5.0e-2" height="0.1"/></g><g fill="#006d4e" stroke="#a6cfe3" stroke-width="0.0" fill-opacity="1.0" stroke-opacity="1.0"><rect x="0.385" width="1.0000000000000009e-2" y="-5.0e-2" height="0.1"/></g><g fill="#006e4c" stroke="#a6cfe3" stroke-width="0.0" fill-opacity="1.0" stroke-opacity="1.0"><rect x="0.395" width="1.0000000000000009e-2" y="-5.0e-2" height="0.1"/></g><g fill="#006e49" stroke="#a6cfe3" stroke-width="0.0" fill-opacity="1.0" stroke-opacity="1.0"><rect x="0.405" width="1.0000000000000009e-2" y="-5.0e-2" height="0.1"/></g><g fill="#006f47" stroke="#a6cfe3" stroke-width="0.0" fill-opacity="1.0" stroke-opacity="1.0"><rect x="0.415" width="1.0000000000000009e-2" y="-5.0e-2" height="0.1"/></g><g fill="#006f45" stroke="#a6cfe3" stroke-width="0.0" fill-opacity="1.0" stroke-opacity="1.0"><rect x="0.425" width="1.0000000000000009e-2" y="-5.0e-2" height="0.1"/></g><g fill="#006f42" stroke="#a6cfe3" stroke-width="0.0" fill-opacity="1.0" stroke-opacity="1.0"><rect x="0.435" width="1.0000000000000009e-2" y="-5.0e-2" height="0.1"/></g><g fill="#007040" stroke="#a6cfe3" stroke-width="0.0" fill-opacity="1.0" stroke-opacity="1.0"><rect x="0.445" width="1.0000000000000009e-2" y="-5.0e-2" height="0.1"/></g><g fill="#00703e" stroke="#a6cfe3" stroke-width="0.0" fill-opacity="1.0" stroke-opacity="1.0"><rect x="0.455" width="1.0000000000000009e-2" y="-5.0e-2" height="0.1"/></g><g fill="#00703b" stroke="#a6cfe3" stroke-width="0.0" fill-opacity="1.0" stroke-opacity="1.0"><rect x="0.465" width="1.0000000000000009e-2" y="-5.0e-2" height="0.1"/></g><g fill="#0d7038" stroke="#a6cfe3" stroke-width="0.0" fill-opacity="1.0" stroke-opacity="1.0"><rect x="0.475" width="1.0000000000000009e-2" y="-5.0e-2" height="0.1"/></g><g fill="#177136" stroke="#a6cfe3" stroke-width="0.0" fill-opacity="1.0" stroke-opacity="1.0"><rect x="0.485" width="1.0000000000000009e-2" y="-5.0e-2" height="0.1"/></g><g fill="#1e7133" stroke="#a6cfe3" stroke-width="0.0" fill-opacity="1.0" stroke-opacity="1.0"><rect x="0.495" width="1.0000000000000009e-2" y="-5.0e-2" height="0.1"/></g><g fill="#257130" stroke="#a6cfe3" stroke-width="0.0" fill-opacity="1.0" stroke-opacity="1.0"><rect x="0.505" width="1.0000000000000009e-2" y="-5.0e-2" height="0.1"/></g><g fill="#2a712d" stroke="#a6cfe3" stroke-width="0.0" fill-opacity="1.0" stroke-opacity="1.0"><rect x="0.515" width="1.0000000000000009e-2" y="-5.0e-2" height="0.1"/></g><g fill="#2f7129" stroke="#a6cfe3" stroke-width="0.0" fill-opacity="1.0" stroke-opacity="1.0"><rect x="0.525" width="1.0000000000000009e-2" y="-5.0e-2" height="0.1"/></g><g fill="#347126" stroke="#a6cfe3" stroke-width="0.0" fill-opacity="1.0" stroke-opacity="1.0"><rect x="0.535" width="1.0000000000000009e-2" y="-5.0e-2" height="0.1"/></g><g fill="#397122" stroke="#a6cfe3" stroke-width="0.0" fill-opacity="1.0" stroke-opacity="1.0"><rect x="0.545" width="1.0000000000000009e-2" y="-5.0e-2" height="0.1"/></g><g fill="#3d711e" stroke="#a6cfe3" stroke-width="0.0" fill-opacity="1.0" stroke-opacity="1.0"><rect x="0.555" width="1.0000000000000009e-2" y="-5.0e-2" height="0.1"/></g><g fill="#41711a" stroke="#a6cfe3" stroke-width="0.0" fill-opacity="1.0" stroke-opacity="1.0"><rect x="0.5650000000000001" width="1.0000000000000009e-2" y="-5.0e-2" height="0.1"/></g><g fill="#457115" stroke="#a6cfe3" stroke-width="0.0" fill-opacity="1.0" stroke-opacity="1.0"><rect x="0.575" width="1.0000000000000009e-2" y="-5.0e-2" height="0.1"/></g><g fill="#497110" stroke="#a6cfe3" stroke-width="0.0" fill-opacity="1.0" stroke-opacity="1.0"><rect x="0.585" width="1.0000000000000009e-2" y="-5.0e-2" height="0.1"/></g><g fill="#4d7008" stroke="#a6cfe3" stroke-width="0.0" fill-opacity="1.0" stroke-opacity="1.0"><rect x="0.595" width="1.0000000000000009e-2" y="-5.0e-2" height="0.1"/></g><g fill="#517000" stroke="#a6cfe3" stroke-width="0.0" fill-opacity="1.0" stroke-opacity="1.0"><rect x="0.605" width="1.0000000000000009e-2" y="-5.0e-2" height="0.1"/></g><g fill="#547000" stroke="#a6cfe3" stroke-width="0.0" fill-opacity="1.0" stroke-opacity="1.0"><rect x="0.615" width="1.0000000000000009e-2" y="-5.0e-2" height="0.1"/></g><g fill="#587000" stroke="#a6cfe3" stroke-width="0.0" fill-opacity="1.0" stroke-opacity="1.0"><rect x="0.625" width="1.0000000000000009e-2" y="-5.0e-2" height="0.1"/></g><g fill="#5c7000" stroke="#a6cfe3" stroke-width="0.0" fill-opacity="1.0" stroke-opacity="1.0"><rect x="0.635" width="1.0000000000000009e-2" y="-5.0e-2" height="0.1"/></g><g fill="#5f6f00" stroke="#a6cfe3" stroke-width="0.0" fill-opacity="1.0" stroke-opacity="1.0"><rect x="0.645" width="1.0000000000000009e-2" y="-5.0e-2" height="0.1"/></g><g fill="#626f00" stroke="#a6cfe3" stroke-width="0.0" fill-opacity="1.0" stroke-opacity="1.0"><rect x="0.655" width="1.0000000000000009e-2" y="-5.0e-2" height="0.1"/></g><g fill="#666e00" stroke="#a6cfe3" stroke-width="0.0" fill-opacity="1.0" stroke-opacity="1.0"><rect x="0.665" width="1.0000000000000009e-2" y="-5.0e-2" height="0.1"/></g><g fill="#696e00" stroke="#a6cfe3" stroke-width="0.0" fill-opacity="1.0" stroke-opacity="1.0"><rect x="0.675" width="1.0000000000000009e-2" y="-5.0e-2" height="0.1"/></g><g fill="#6c6e00" stroke="#a6cfe3" stroke-width="0.0" fill-opacity="1.0" stroke-opacity="1.0"><rect x="0.685" width="1.0000000000000009e-2" y="-5.0e-2" height="0.1"/></g><g fill="#6f6d00" stroke="#a6cfe3" stroke-width="0.0" fill-opacity="1.0" stroke-opacity="1.0"><rect x="0.6950000000000001" width="1.0000000000000009e-2" y="-5.0e-2" height="0.1"/></g><g fill="#736d00" stroke="#a6cfe3" stroke-width="0.0" fill-opacity="1.0" stroke-opacity="1.0"><rect x="0.705" width="1.0000000000000009e-2" y="-5.0e-2" height="0.1"/></g><g fill="#766c00" stroke="#a6cfe3" stroke-width="0.0" fill-opacity="1.0" stroke-opacity="1.0"><rect x="0.715" width="1.0000000000000009e-2" y="-5.0e-2" height="0.1"/></g><g fill="#796c00" stroke="#a6cfe3" stroke-width="0.0" fill-opacity="1.0" stroke-opacity="1.0"><rect x="0.725" width="1.0000000000000009e-2" y="-5.0e-2" height="0.1"/></g><g fill="#7c6b00" stroke="#a6cfe3" stroke-width="0.0" fill-opacity="1.0" stroke-opacity="1.0"><rect x="0.735" width="1.0000000000000009e-2" y="-5.0e-2" height="0.1"/></g><g fill="#7f6a00" stroke="#a6cfe3" stroke-width="0.0" fill-opacity="1.0" stroke-opacity="1.0"><rect x="0.745" width="1.0000000000000009e-2" y="-5.0e-2" height="0.1"/></g><g fill="#826a00" stroke="#a6cfe3" stroke-width="0.0" fill-opacity="1.0" stroke-opacity="1.0"><rect x="0.755" width="1.0000000000000009e-2" y="-5.0e-2" height="0.1"/></g><g fill="#846900" stroke="#a6cfe3" stroke-width="0.0" fill-opacity="1.0" stroke-opacity="1.0"><rect x="0.765" width="1.0000000000000009e-2" y="-5.0e-2" height="0.1"/></g><g fill="#876900" stroke="#a6cfe3" stroke-width="0.0" fill-opacity="1.0" stroke-opacity="1.0"><rect x="0.775" width="1.0000000000000009e-2" y="-5.0e-2" height="0.1"/></g><g fill="#8a6800" stroke="#a6cfe3" stroke-width="0.0" fill-opacity="1.0" stroke-opacity="1.0"><rect x="0.785" width="1.0000000000000009e-2" y="-5.0e-2" height="0.1"/></g><g fill="#8d6700" stroke="#a6cfe3" stroke-width="0.0" fill-opacity="1.0" stroke-opacity="1.0"><rect x="0.795" width="1.0000000000000009e-2" y="-5.0e-2" height="0.1"/></g><g fill="#8f6600" stroke="#a6cfe3" stroke-width="0.0" fill-opacity="1.0" stroke-opacity="1.0"><rect x="0.805" width="1.0000000000000009e-2" y="-5.0e-2" height="0.1"/></g><g fill="#926600" stroke="#a6cfe3" stroke-width="0.0" fill-opacity="1.0" stroke-opacity="1.0"><rect x="0.8150000000000001" width="1.0000000000000009e-2" y="-5.0e-2" height="0.1"/></g><g fill="#956500" stroke="#a6cfe3" stroke-width="0.0" fill-opacity="1.0" stroke-opacity="1.0"><rect x="0.8250000000000001" width="1.0000000000000009e-2" y="-5.0e-2" height="0.1"/></g><g fill="#976400" stroke="#a6cfe3" stroke-width="0.0" fill-opacity="1.0" stroke-opacity="1.0"><rect x="0.835" width="1.0000000000000009e-2" y="-5.0e-2" height="0.1"/></g><g fill="#9a6300" stroke="#a6cfe3" stroke-width="0.0" fill-opacity="1.0" stroke-opacity="1.0"><rect x="0.845" width="1.0000000000000009e-2" y="-5.0e-2" height="0.1"/></g><g fill="#9c6300" stroke="#a6cfe3" stroke-width="0.0" fill-opacity="1.0" stroke-opacity="1.0"><rect x="0.855" width="1.0000000000000009e-2" y="-5.0e-2" height="0.1"/></g><g fill="#9f6200" stroke="#a6cfe3" stroke-width="0.0" fill-opacity="1.0" stroke-opacity="1.0"><rect x="0.865" width="1.0000000000000009e-2" y="-5.0e-2" height="0.1"/></g><g fill="#a16100" stroke="#a6cfe3" stroke-width="0.0" fill-opacity="1.0" stroke-opacity="1.0"><rect x="0.875" width="1.0000000000000009e-2" y="-5.0e-2" height="0.1"/></g><g fill="#a36000" stroke="#a6cfe3" stroke-width="0.0" fill-opacity="1.0" stroke-opacity="1.0"><rect x="0.885" width="1.0000000000000009e-2" y="-5.0e-2" height="0.1"/></g><g fill="#a65f00" stroke="#a6cfe3" stroke-width="0.0" fill-opacity="1.0" stroke-opacity="1.0"><rect x="0.895" width="1.0000000000000009e-2" y="-5.0e-2" height="0.1"/></g><g fill="#a85f00" stroke="#a6cfe3" stroke-width="0.0" fill-opacity="1.0" stroke-opacity="1.0"><rect x="0.905" width="1.0000000000000009e-2" y="-5.0e-2" height="0.1"/></g><g fill="#aa5e00" stroke="#a6cfe3" stroke-width="0.0" fill-opacity="1.0" stroke-opacity="1.0"><rect x="0.915" width="1.0000000000000009e-2" y="-5.0e-2" height="0.1"/></g><g fill="#ac5d00" stroke="#a6cfe3" stroke-width="0.0" fill-opacity="1.0" stroke-opacity="1.0"><rect x="0.925" width="1.0000000000000009e-2" y="-5.0e-2" height="0.1"/></g><g fill="#ae5c00" stroke="#a6cfe3" stroke-width="0.0" fill-opacity="1.0" stroke-opacity="1.0"><rect x="0.935" width="1.0000000000000009e-2" y="-5.0e-2" height="0.1"/></g><g fill="#b05b00" stroke="#a6cfe3" stroke-width="0.0" fill-opacity="1.0" stroke-opacity="1.0"><rect x="0.9450000000000001" width="1.0000000000000009e-2" y="-5.0e-2" height="0.1"/></g><g fill="#b25b00" stroke="#a6cfe3" stroke-width="0.0" fill-opacity="1.0" stroke-opacity="1.0"><rect x="0.955" width="1.0000000000000009e-2" y="-5.0e-2" height="0.1"/></g><g fill="#b45a00" stroke="#a6cfe3" stroke-width="0.0" fill-opacity="1.0" stroke-opacity="1.0"><rect x="0.965" width="1.0000000000000009e-2" y="-5.0e-2" height="0.1"/></g><g fill="#b65900" stroke="#a6cfe3" stroke-width="0.0" fill-opacity="1.0" stroke-opacity="1.0"><rect x="0.975" width="1.0000000000000009e-2" y="-5.0e-2" height="0.1"/></g><g fill="#b85800" stroke="#a6cfe3" stroke-width="0.0" fill-opacity="1.0" stroke-opacity="1.0"><rect x="0.985" width="1.0000000000000009e-2" y="-5.0e-2" height="0.1"/></g></g></g><g class="hud"></g></svg>