<svg xmlns="http://www.w3.org/2000/svg" height="30.0" viewBox="-5.0e-3 -8.499999999999999e-2 1.0 0.16999999999999998" width="176.47058823529414" xmlns:xlink="http://www.w3.org/1999/xlink"><style>svg {
  color-scheme: light dark;
}
{
  .canvas g, .title g, .axisbar g, .ticktext g, .tickglyph g, .ticklines g, .legendContent g text {
    fill: #0d0d0d;
  }
  .ticklines g, .tickglyph g, .legendBorder g {
    stroke: #0d0d0d;
  }
}
@media (prefers-color-scheme:dark) {
  .canvas g, .title g, .axisbar g, .ticktext g, .tickglyph g, .ticklines g, .legendContent g text {
    fill: #f0f0f0;
  }
  .ticklines g, .tickglyph g, .legendBorder g {
    stroke: #f0f0f0;
  }
}</style><g class="chart"><g class="gradient"><g stroke-opacity="1.0" fill-opacity="0.0" stroke="#a6cfe3" stroke-width="0.0" fill="#000000"><rect height="0.1" width="1.0e-2" x="-5.0e-3" y="-5.0e-2"/></g><g stroke-opacity="1.0" fill-opacity="0.0" stroke="#a6cfe3" stroke-width="0.0" fill="#000000"><rect height="0.1" width="9.999999999999998e-3" x="5.0e-3" y="-5.0e-2"/></g><g stroke-opacity="1.0" fill-opacity="0.0" stroke="#a6cfe3" stroke-width="0.0" fill="#000000"><rect height="0.1" width="1.0000000000000002e-2" x="1.5e-2" y="-5.0e-2"/></g><g stroke-opacity="1.0" fill-opacity="0.0" stroke="#a6cfe3" stroke-width="0.0" fill="#000000"><rect height="0.1" width="9.999999999999998e-3" x="2.4999999999999998e-2" y="-5.0e-2"/></g><g stroke-opacity="1.0" fill-opacity="0.0" stroke="#a6cfe3" stroke-width="0.0" fill="#000000"><rect height="0.1" width="9.999999999999995e-3" x="3.5e-2" y="-5.0e-2"/></g><g stroke-opacity="1.0" fill-opacity="0.0" stroke="#a6cfe3" stroke-width="0.0" fill="#000000"><rect height="0.1" width="9.999999999999995e-3" x="4.5000000000000005e-2" y="-5.0e-2"/></g><g stroke-opacity="1.0" fill-opacity="0.0" stroke="#a6cfe3" stroke-width="0.0" fill="#000000"><rect height="0.1" width="1.0000000000000002e-2" x="5.5e-2" y="-5.0e-2"/></g><g stroke-opacity="1.0" fill-opacity="0.0" stroke="#a6cfe3" stroke-width="0.0" fill="#000000"><rect height="0.1" width="1.0000000000000009e-2" x="6.5e-2" y="-5.0e-2"/></g><g stroke-opacity="1.0" fill-opacity="0.0" stroke="#a6cfe3" stroke-width="0.0" fill="#000000"><rect height="0.1" width="1.0000000000000009e-2" x="7.5e-2" y="-5.0e-2"/></g><g stroke-opacity="1.0" fill-opacity="0.0" stroke="#a6cfe3" stroke-width="0.0" fill="#000000"><rect height="0.1" width="1.0000000000000009e-2" x="8.499999999999999e-2" y="-5.0e-2"/></g><g stroke-opacity="1.0" fill-opacity="0.0" stroke="#a6cfe3" stroke-width="0.0" fill="#000000"><rect height="0.1" width="1.0000000000000009e-2" x="9.5e-2" y="-5.0e-2"/></g><g stroke-opacity="1.0" fill-opacity="0.0" stroke="#a6cfe3" stroke-width="0.0" fill="#000000"><rect height="0.1" width="1.0000000000000009e-2" x="0.105" y="-5.0e-2"/></g><g stroke-opacity="1.0" fill-opacity="0.0" stroke="#a6cfe3" stroke-width="0.0" fill="#000000"><rect height="0.1" width="1.0000000000000009e-2" x="0.11499999999999999" y="-5.0e-2"/></g><g stroke-opacity="1.0" fill-opacity="0.0" stroke="#a6cfe3" stroke-width="0.0" fill="#000000"><rect height="0.1" width="1.0000000000000009e-2" x="0.125" y="-5.0e-2"/></g><g stroke-opacity="1.0" fill-opacity="0.0" stroke="#a6cfe3" stroke-width="0.0" fill="#000000"><rect height="0.1" width="1.0000000000000009e-2" x="0.135" y="-5.0e-2"/></g><g stroke-opacity="1.0" fill-opacity="0.0" stroke="#a6cfe3" stroke-width="0.0" fill="#000000"><rect height="0.1" width="1.0000000000000009e-2" x="0.145" y="-5.0e-2"/></g><g stroke-opacity="1.0" fill-opacity="0.0" stroke="#a6cfe3" stroke-width="0.0" fill="#000000"><rect height="0.1" width="1.0000000000000009e-2" x="0.155" y="-5.0e-2"/></g><g stroke-opacity="1.0" fill-opacity="0.0" stroke="#a6cfe3" stroke-width="0.0" fill="#000000"><rect height="0.1" width="1.0000000000000009e-2" x="0.165" y="-5.0e-2"/></g><g stroke-opacity="1.0" fill-opacity="0.0" stroke="#a6cfe3" stroke-width="0.0" fill="#000000"><rect height="0.1" width="1.0000000000000009e-2" x="0.175" y="-5.0e-2"/></g><g stroke-opacity="1.0" fill-opacity="0.0" stroke="#a6cfe3" stroke-width="0.0" fill="#000000"><rect height="0.1" width="1.0000000000000009e-2" x="0.185" y="-5.0e-2"/></g><g stroke-opacity="1.0" fill-opacity="0.0" stroke="#a6cfe3" stroke-width="0.0" fill="#000000"><rect height="0.1" width="1.0000000000000009e-2" x="0.195" y="-5.0e-2"/></g><g stroke-opacity="1.0" fill-opacity="0.0" stroke="#a6cfe3" stroke-width="0.0" fill="#000000"><rect height="0.1" width="1.0000000000000009e-2" x="0.205" y="-5.0e-2"/></g><g stroke-opacity="1.0" fill-opacity="0.0" stroke="#a6cfe3" stroke-width="0.0" fill="#000000"><rect height="0.1" width="1.0000000000000009e-2" x="0.215" y="-5.0e-2"/></g><g stroke-opacity="1.0" fill-opacity="0.0" stroke="#a6cfe3" stroke-width="0.0" fill="#000000"><rect height="0.1" width="1.0000000000000009e-2" x="0.225" y="-5.0e-2"/></g><g stroke-opacity="1.0" fill-opacity="0.0" stroke="#a6cfe3" stroke-width="0.0" fill="#000000"><rect height="0.1" width="1.0000000000000009e-2" x="0.235" y="-5.0e-2"/></g><g stroke-opacity="1.0" fill-opacity="0.0" stroke="#a6cfe3" stroke-width="0.0" fill="#000000"><rect height="0.1" width="1.0000000000000009e-2" x="0.245" y="-5.0e-2"/></g><g stroke-opacity="1.0" fill-opacity="0.0" stroke="#a6cfe3" stroke-width="0.0" fill="#000000"><rect height="0.1" width="1.0000000000000009e-2" x="0.255" y="-5.0e-2"/></g><g stroke-opacity="1.0" fill-opacity="0.0" stroke="#a6cfe3" stroke-width="0.0" fill="#000000"><rect height="0.1" width="1.0000000000000009e-2" x="0.265" y="-5.0e-2"/></g><g stroke-opacity="1.0" fill-opacity="0.0" stroke="#a6cfe3" stroke-width="0.0" fill="#000000"><rect height="0.1" width="1.0000000000000009e-2" x="0.275" y="-5.0e-2"/></g><g stroke-opacity="1.0" fill-opacity="0.0" stroke="#a6cfe3" stroke-width="0.0" fill="#000000"><rect height="0.1" width="1.0000000000000009e-2" x="0.285" y="-5.0e-2"/></g><g stroke-opacity="1.0" fill-opacity="0.0" stroke="#a6cfe3" stroke-width="0.0" fill="#000000"><rect height="0.1" width="1.0000000000000009e-2" x="0.295" y="-5.0e-2"/></g><g stroke-opacity="1.0" fill-opacity="0.0" stroke="#a6cfe3" stroke-width="0.0" fill="#000000"><rect height="0.1" width="1.0000000000000009e-2" x="0.305" y="-5.0e-2"/></g><g stroke-opacity="1.0" fill-opacity="0.0" stroke="#a6cfe3" stroke-width="0.0" fill="#000000"><rect height="0.1" width="1.0000000000000009e-2" x="0.315" y="-5.0e-2"/></g><g stroke-opacity="1.0" fill-opacity="0.0" stroke="#a6cfe3" stroke-width="0.0" fill="#000000"><rect height="0.1" width="1.0000000000000009e-2" x="0.325" y="-5.0e-2"/></g><g stroke-opacity="1.0" fill-opacity="0.0" stroke="#a6cfe3" stroke-width="0.0" fill="#000000"><rect height="0.1" width="1.0000000000000009e-2" x="0.335" y="-5.0e-2"/></g><g stroke-opacity="1.0" fill-opacity="0.0" stroke="#a6cfe3" stroke-width="0.0" fill="#000000"><rect height="0.1" width="1.0000000000000009e-2" x="0.34500000000000003" y="-5.0e-2"/></g><g stroke-opacity="1.0" fill-opacity="0.0" stroke="#a6cfe3" stroke-width="0.0" fill="#000000"><rect height="0.1" width="1.0000000000000009e-2" x="0.355" y="-5.0e-2"/></g><g stroke-opacity="1.0" fill-opacity="0.0" stroke="#a6cfe3" stroke-width="0.0" fill="#000000"><rect height="0.1" width="1.0000000000000009e-2" x="0.365" y="-5.0e-2"/></g><g stroke-opacity="1.0" fill-opacity="0.0" stroke="#a6cfe3" stroke-width="0.0" fill="#000000"><rect height="0.1" width="1.0000000000000009e-2" x="0.375" y="-5.0e-2"/></g><g stroke-opacity="1.0" fill-opacity="0.0" stroke="#a6cfe3" stroke-width="0.0" fill="#000000"><rect height="0.1" width="1.0000000000000009e-2" x="0.385" y="-5.0e-2"/></g><g stroke-opacity="1.0" fill-opacity="0.0" stroke="#a6cfe3" stroke-width="0.0" fill="#000000"><rect height="0.1" width="1.0000000000000009e-2" x="0.395" y="-5.0e-2"/></g><g stroke-opacity="1.0" fill-opacity="0.0" stroke="#a6cfe3" stroke-width="0.0" fill="#000000"><rect height="0.1" width="1.0000000000000009e-2" x="0.405" y="-5.0e-2"/></g><g stroke-opacity="1.0" fill-opacity="0.0" stroke="#a6cfe3" stroke-width="0.0" fill="#000000"><rect height="0.1" width="1.0000000000000009e-2" x="0.415" y="-5.0e-2"/></g><g stroke-opacity="1.0" fill-opacity="0.0" stroke="#a6cfe3" stroke-width="0.0" fill="#000000"><rect height="0.1" width="1.0000000000000009e-2" x="0.425" y="-5.0e-2"/></g><g stroke-opacity="1.0" fill-opacity="0.0" stroke="#a6cfe3" stroke-width="0.0" fill="#000000"><rect height="0.1" width="1.0000000000000009e-2" x="0.435" y="-5.0e-2"/></g><g stroke-opacity="1.0" fill-opacity="0.0" stroke="#a6cfe3" stroke-width="0.0" fill="#000000"><rect height="0.1" width="1.0000000000000009e-2" x="0.445" y="-5.0e-2"/></g><g stroke-opacity="1.0" fill-opacity="0.0" stroke="#a6cfe3" stroke-width="0.0" fill="#000000"><rect height="0.1" width="1.0000000000000009e-2" x="0.455" y="-5.0e-2"/></g><g stroke-opacity="1.0" fill-opacity="0.0" stroke="#a6cfe3" stroke-width="0.0" fill="#000000"><rect height="0.1" width="1.0000000000000009e-2" x="0.465" y="-5.0e-2"/></g><g stroke-opacity="1.0" fill-opacity="0.0" stroke="#a6cfe3" stroke-width="0.0" fill="#000000"><rect height="0.1" width="1.0000000000000009e-2" x="0.475" y="-5.0e-2"/></g><g stroke-opacity="1.0" fill-opacity="0.0" stroke="#a6cfe3" stroke-width="0.0" fill="#000000"><rect height="0.1" width="1.0000000000000009e-2" x="0.485" y="-5.0e-2"/></g><g stroke-opacity="1.0" fill-opacity="0.0" stroke="#a6cfe3" stroke-width="0.0" fill="#000000"><rect height="0.1" width="1.0000000000000009e-2" x="0.495" y="-5.0e-2"/></g><g stroke-opacity="1.0" fill-opacity="0.0" stroke="#a6cfe3" stroke-width="0.0" fill="#000000"><rect height="0.1" width="1.0000000000000009e-2" x="0.505" y="-5.0e-2"/></g><g stroke-opacity="1.0" fill-opacity="0.0" stroke="#a6cfe3" stroke-width="0.0" fill="#000000"><rect height="0.1" width="1.0000000000000009e-2" x="0.515" y="-5.0e-2"/></g><g stroke-opacity="1.0" fill-opacity="0.0" stroke="#a6cfe3" stroke-width="0.0" fill="#000000"><rect height="0.1" width="1.0000000000000009e-2" x="0.525" y="-5.0e-2"/></g><g stroke-opacity="1.0" fill-opacity="0.0" stroke="#a6cfe3" stroke-width="0.0" fill="#000000"><rect height="0.1" width="1.0000000000000009e-2" x="0.535" y="-5.0e-2"/></g><g stroke-opacity="1.0" fill-opacity="0.0" stroke="#a6cfe3" stroke-width="0.0" fill="#000000"><rect height="0.1" width="1.0000000000000009e-2" x="0.545" y="-5.0e-2"/></g><g stroke-opacity="1.0" fill-opacity="0.0" stroke="#a6cfe3" stroke-width="0.0" fill="#000000"><rect height="0.1" width="1.0000000000000009e-2" x="0.555" y="-5.0e-2"/></g><g stroke-opacity="1.0" fill-opacity="0.0" stroke="#a6cfe3" stroke-width="0.0" fill="#000000"><rect height="0.1" width="1.0000000000000009e-2" x="0.5650000000000001" y="-5.0e-2"/></g><g stroke-opacity="1.0" fill-opacity="0.0" stroke="#a6cfe3" stroke-width="0.0" fill="#000000"><rect height="0.1" width="1.0000000000000009e-2" x="0.575" y="-5.0e-2"/></g><g stroke-opacity="1.0" fill-opacity="0.0" stroke="#a6cfe3" stroke-width="0.0" fill="#000000"><rect height="0.1" width="1.0000000000000009e-2" x="0.585" y="-5.0e-2"/></g><g stroke-opacity="1.0" fill-opacity="0.0" stroke="#a6cfe3" stroke-width="0.0" fill="#000000"><rect height="0.1" width="1.0000000000000009e-2" x="0.595" y="-5.0e-2"/></g><g stroke-opacity="1.0" fill-opacity="0.0" stroke="#a6cfe3" stroke-width="0.0" fill="#000000"><rect height="0.1" width="1.0000000000000009e-2" x="0.605" y="-5.0e-2"/></g><g stroke-opacity="1.0" fill-opacity="0.0" stroke="#a6cfe3" stroke-width="0.0" fill="#000000"><rect height="0.1" width="1.0000000000000009e-2" x="0.615" y="-5.0e-2"/></g><g stroke-opacity="1.0" fill-opacity="0.0" stroke="#a6cfe3" stroke-width="0.0" fill="#000000"><rect height="0.1" width="1.0000000000000009e-2" x="0.625" y="-5.0e-2"/></g><g stroke-opacity="1.0" fill-opacity="0.0" stroke="#a6cfe3" stroke-width="0.0" fill="#000000"><rect height="0.1" width="1.0000000000000009e-2" x="0.635" y="-5.0e-2"/></g><g stroke-opacity="1.0" fill-opacity="0.0" stroke="#a6cfe3" stroke-width="0.0" fill="#000000"><rect height="0.1" width="1.0000000000000009e-2" x="0.645" y="-5.0e-2"/></g><g stroke-opacity="1.0" fill-opacity="0.0" stroke="#a6cfe3" stroke-width="0.0" fill="#000000"><rect height="0.1" width="1.0000000000000009e-2" x="0.655" y="-5.0e-2"/></g><g stroke-opacity="1.0" fill-opacity="0.0" stroke="#a6cfe3" stroke-width="0.0" fill="#000000"><rect height="0.1" width="1.0000000000000009e-2" x="0.665" y="-5.0e-2"/></g><g stroke-opacity="1.0" fill-opacity="0.0" stroke="#a6cfe3" stroke-width="0.0" fill="#000000"><rect height="0.1" width="1.0000000000000009e-2" x="0.675" y="-5.0e-2"/></g><g stroke-opacity="1.0" fill-opacity="0.0" stroke="#a6cfe3" stroke-width="0.0" fill="#000000"><rect height="0.1" width="1.0000000000000009e-2" x="0.685" y="-5.0e-2"/></g><g stroke-opacity="1.0" fill-opacity="0.0" stroke="#a6cfe3" stroke-width="0.0" fill="#000000"><rect height="0.1" width="1.0000000000000009e-2" x="0.6950000000000001" y="-5.0e-2"/></g><g stroke-opacity="1.0" fill-opacity="0.0" stroke="#a6cfe3" stroke-width="0.0" fill="#000000"><rect height="0.1" width="1.0000000000000009e-2" x="0.705" y="-5.0e-2"/></g><g stroke-opacity="1.0" fill-opacity="0.0" stroke="#a6cfe3" stroke-width="0.0" fill="#000000"><rect height="0.1" width="1.0000000000000009e-2" x="0.715" y="-5.0e-2"/></g><g stroke-opacity="1.0" fill-opacity="0.0" stroke="#a6cfe3" stroke-width="0.0" fill="#000000"><rect height="0.1" width="1.0000000000000009e-2" x="0.725" y="-5.0e-2"/></g><g stroke-opacity="1.0" fill-opacity="0.0" stroke="#a6cfe3" stroke-width="0.0" fill="#000000"><rect height="0.1" width="1.0000000000000009e-2" x="0.735" y="-5.0e-2"/></g><g stroke-opacity="1.0" fill-opacity="0.0" stroke="#a6cfe3" stroke-width="0.0" fill="#000000"><rect height="0.1" width="1.0000000000000009e-2" x="0.745" y="-5.0e-2"/></g><g stroke-opacity="1.0" fill-opacity="0.0" stroke="#a6cfe3" stroke-width="0.0" fill="#000000"><rect height="0.1" width="1.0000000000000009e-2" x="0.755" y="-5.0e-2"/></g><g stroke-opacity="1.0" fill-opacity="0.0" stroke="#a6cfe3" stroke-width="0.0" fill="#000000"><rect height="0.1" width="1.0000000000000009e-2" x="0.765" y="-5.0e-2"/></g><g stroke-opacity="1.0" fill-opacity="0.0" stroke="#a6cfe3" stroke-width="0.0" fill="#000000"><rect height="0.1" width="1.0000000000000009e-2" x="0.775" y="-5.0e-2"/></g><g stroke-opacity="1.0" fill-opacity="0.0" stroke="#a6cfe3" stroke-width="0.0" fill="#000000"><rect height="0.1" width="1.0000000000000009e-2" x="0.785" y="-5.0e-2"/></g><g stroke-opacity="1.0" fill-opacity="0.0" stroke="#a6cfe3" stroke-width="0.0" fill="#000000"><rect height="0.1" width="1.0000000000000009e-2" x="0.795" y="-5.0e-2"/></g><g stroke-opacity="1.0" fill-opacity="0.0" stroke="#a6cfe3" stroke-width="0.0" fill="#000000"><rect height="0.1" width="1.0000000000000009e-2" x="0.805" y="-5.0e-2"/></g><g stroke-opacity="1.0" fill-opacity="1.0" stroke="#a6cfe3" stroke-width="0.0" fill="#10ddf2"><rect height="0.1" width="1.0000000000000009e-2" x="0.8150000000000001" y="-5.0e-2"/></g><g stroke-opacity="1.0" fill-opacity="1.0" stroke="#a6cfe3" stroke-width="0.0" fill="#1ce0f5"><rect height="0.1" width="1.0000000000000009e-2" x="0.8250000000000001" y="-5.0e-2"/></g><g stroke-opacity="1.0" fill-opacity="1.0" stroke="#a6cfe3" stroke-width="0.0" fill="#25e3f8"><rect height="0.1" width="1.0000000000000009e-2" x="0.835" y="-5.0e-2"/></g><g stroke-opacity="1.0" fill-opacity="1.0" stroke="#a6cfe3" stroke-width="0.0" fill="#2de7fc"><rect height="0.1" width="1.0000000000000009e-2" x="0.845" y="-5.0e-2"/></g><g stroke-opacity="1.0" fill-opacity="0.0" stroke="#a6cfe3" stroke-width="0.0" fill="#000000"><rect height="0.1" width="1.0000000000000009e-2" x="0.855" y="-5.0e-2"/></g><g stroke-opacity="1.0" fill-opacity="0.0" stroke="#a6cfe3" stroke-width="0.0" fill="#000000"><rect height="0.1" width="1.0000000000000009e-2" x="0.865" y="-5.0e-2"/></g><g stroke-opacity="1.0" fill-opacity="0.0" stroke="#a6cfe3" stroke-width="0.0" fill="#000000"><rect height="0.1" width="1.0000000000000009e-2" x="0.875" y="-5.0e-2"/></g><g stroke-opacity="1.0" fill-opacity="0.0" stroke="#a6cfe3" stroke-width="0.0" fill="#000000"><rect height="0.1" width="1.0000000000000009e-2" x="0.885" y="-5.0e-2"/></g><g stroke-opacity="1.0" fill-opacity="0.0" stroke="#a6cfe3" stroke-width="0.0" fill="#000000"><rect height="0.1" width="1.0000000000000009e-2" x="0.895" y="-5.0e-2"/></g><g stroke-opacity="1.0" fill-opacity="0.0" stroke="#a6cfe3" stroke-width="0.0" fill="#000000"><rect height="0.1" width="1.0000000000000009e-2" x="0.905" y="-5.0e-2"/></g><g stroke-opacity="1.0" fill-opacity="0.0" stroke="#a6cfe3" stroke-width="0.0" fill="#000000"><rect height="0.1" width="1.0000000000000009e-2" x="0.915" y="-5.0e-2"/></g><g stroke-opacity="1.0" fill-opacity="0.0" stroke="#a6cfe3" stroke-width="0.0" fill="#000000"><rect height="0.1" width="1.0000000000000009e-2" x="0.925" y="-5.0e-2"/></g><g stroke-opacity="1.0" fill-opacity="0.0" stroke="#a6cfe3" stroke-width="0.0" fill="#000000"><rect height="0.1" width="1.0000000000000009e-2" x="0.935" y="-5.0e-2"/></g><g stroke-opacity="1.0" fill-opacity="0.0" stroke="#a6cfe3" stroke-width="0.0" fill="#000000"><rect height="0.1" width="1.0000000000000009e-2" x="0.9450000000000001" y="-5.0e-2"/></g><g stroke-opacity="1.0" fill-opacity="0.0" stroke="#a6cfe3" stroke-width="0.0" fill="#000000"><rect height="0.1" width="1.0000000000000009e-2" x="0.955" y="-5.0e-2"/></g><g stroke-opacity="1.0" fill-opacity="0.0" stroke="#a6cfe3" stroke-width="0.0" fill="#000000"><rect height="0.1" width="1.0000000000000009e-2" x="0.965" y="-5.0e-2"/></g><g stroke-opacity="1.0" fill-opacity="0.0" stroke="#a6cfe3" stroke-width="0.0" fill="#000000"><rect height="0.1" width="1.0000000000000009e-2" x="0.975" y="-5.0e-2"/></g><g stroke-opacity="1.0" fill-opacity="0.0" stroke="#a6cfe3" stroke-width="0.0" fill="#000000"><rect height="0.1" width="1.0000000000000009e-2" x="0.985" y="-5.0e-2"/></g></g><g class="original"><g stroke-opacity="1.0" fill-opacity="0.0" stroke="#000000" stroke-width="2.0e-2" fill="#000000"><rect height="0.15" width="1.0000000000000009e-2" x="0.807430601355832" y="-7.5e-2"/></g></g></g><g class="hud"></g></svg>