<svg xmlns="http://www.w3.org/2000/svg" width="657.8947368421053" xmlns:xlink="http://www.w3.org/1999/xlink" viewBox="-5.0e-3 -7.6e-2 1.0 0.152" height="100.0"><style>svg {
  color-scheme: light dark;
}
{
  .canvas g, .title g, .axisbar g, .ticktext g, .tickglyph g, .ticklines g, .legendContent g text {
    fill: #0d0d0d;
  }
  .ticklines g, .tickglyph g, .legendBorder g {
    stroke: #0d0d0d;
  }
}
@media (prefers-color-scheme:dark) {
  .canvas g, .title g, .axisbar g, .ticktext g, .tickglyph g, .ticklines g, .legendContent g text {
    fill: #f0f0f0;
  }
  .ticklines g, .tickglyph g, .legendBorder g {
    stroke: #f0f0f0;
  }
}</style><g class="chart"><g class="gradient"><g fill="#633846" stroke="#a6cfe3" stroke-width="0.0" fill-opacity="1.0" stroke-opacity="1.0"><rect x="-5.0e-3" width="1.0e-2" y="-5.0e-2" height="0.1"/></g><g fill="#643843" stroke="#a6cfe3" stroke-width="0.0" fill-opacity="1.0" stroke-opacity="1.0"><rect x="5.0e-3" width="9.999999999999998e-3" y="-5.0e-2" height="0.1"/></g><g fill="#653841" stroke="#a6cfe3" stroke-width="0.0" fill-opacity="1.0" stroke-opacity="1.0"><rect x="1.5e-2" width="1.0000000000000002e-2" y="-5.0e-2" height="0.1"/></g><g fill="#65383f" stroke="#a6cfe3" stroke-width="0.0" fill-opacity="1.0" stroke-opacity="1.0"><rect x="2.4999999999999998e-2" width="9.999999999999998e-3" y="-5.0e-2" height="0.1"/></g><g fill="#65383c" stroke="#a6cfe3" stroke-width="0.0" fill-opacity="1.0" stroke-opacity="1.0"><rect x="3.5e-2" width="9.999999999999995e-3" y="-5.0e-2" height="0.1"/></g><g fill="#66383a" stroke="#a6cfe3" stroke-width="0.0" fill-opacity="1.0" stroke-opacity="1.0"><rect x="4.5000000000000005e-2" width="9.999999999999995e-3" y="-5.0e-2" height="0.1"/></g><g fill="#663838" stroke="#a6cfe3" stroke-width="0.0" fill-opacity="1.0" stroke-opacity="1.0"><rect x="5.5e-2" width="1.0000000000000002e-2" y="-5.0e-2" height="0.1"/></g><g fill="#663935" stroke="#a6cfe3" stroke-width="0.0" fill-opacity="1.0" stroke-opacity="1.0"><rect x="6.5e-2" width="1.0000000000000009e-2" y="-5.0e-2" height="0.1"/></g><g fill="#663933" stroke="#a6cfe3" stroke-width="0.0" fill-opacity="1.0" stroke-opacity="1.0"><rect x="7.5e-2" width="1.0000000000000009e-2" y="-5.0e-2" height="0.1"/></g><g fill="#653a31" stroke="#a6cfe3" stroke-width="0.0" fill-opacity="1.0" stroke-opacity="1.0"><rect x="8.499999999999999e-2" width="1.0000000000000009e-2" y="-5.0e-2" height="0.1"/></g><g fill="#653a2e" stroke="#a6cfe3" stroke-width="0.0" fill-opacity="1.0" stroke-opacity="1.0"><rect x="9.5e-2" width="1.0000000000000009e-2" y="-5.0e-2" height="0.1"/></g><g fill="#653b2c" stroke="#a6cfe3" stroke-width="0.0" fill-opacity="1.0" stroke-opacity="1.0"><rect x="0.105" width="1.0000000000000009e-2" y="-5.0e-2" height="0.1"/></g><g fill="#643b2a" stroke="#a6cfe3" stroke-width="0.0" fill-opacity="1.0" stroke-opacity="1.0"><rect x="0.11499999999999999" width="1.0000000000000009e-2" y="-5.0e-2" height="0.1"/></g><g fill="#643c28" stroke="#a6cfe3" stroke-width="0.0" fill-opacity="1.0" stroke-opacity="1.0"><rect x="0.125" width="1.0000000000000009e-2" y="-5.0e-2" height="0.1"/></g><g fill="#633c26" stroke="#a6cfe3" stroke-width="0.0" fill-opacity="1.0" stroke-opacity="1.0"><rect x="0.135" width="1.0000000000000009e-2" y="-5.0e-2" height="0.1"/></g><g fill="#623d24" stroke="#a6cfe3" stroke-width="0.0" fill-opacity="1.0" stroke-opacity="1.0"><rect x="0.145" width="1.0000000000000009e-2" y="-5.0e-2" height="0.1"/></g><g fill="#613e22" stroke="#a6cfe3" stroke-width="0.0" fill-opacity="1.0" stroke-opacity="1.0"><rect x="0.155" width="1.0000000000000009e-2" y="-5.0e-2" height="0.1"/></g><g fill="#603f20" stroke="#a6cfe3" stroke-width="0.0" fill-opacity="1.0" stroke-opacity="1.0"><rect x="0.165" width="1.0000000000000009e-2" y="-5.0e-2" height="0.1"/></g><g fill="#5f3f1f" stroke="#a6cfe3" stroke-width="0.0" fill-opacity="1.0" stroke-opacity="1.0"><rect x="0.175" width="1.0000000000000009e-2" y="-5.0e-2" height="0.1"/></g><g fill="#5e401d" stroke="#a6cfe3" stroke-width="0.0" fill-opacity="1.0" stroke-opacity="1.0"><rect x="0.185" width="1.0000000000000009e-2" y="-5.0e-2" height="0.1"/></g><g fill="#5d411c" stroke="#a6cfe3" stroke-width="0.0" fill-opacity="1.0" stroke-opacity="1.0"><rect x="0.195" width="1.0000000000000009e-2" y="-5.0e-2" height="0.1"/></g><g fill="#5b421b" stroke="#a6cfe3" stroke-width="0.0" fill-opacity="1.0" stroke-opacity="1.0"><rect x="0.205" width="1.0000000000000009e-2" y="-5.0e-2" height="0.1"/></g><g fill="#5a431a" stroke="#a6cfe3" stroke-width="0.0" fill-opacity="1.0" stroke-opacity="1.0"><rect x="0.215" width="1.0000000000000009e-2" y="-5.0e-2" height="0.1"/></g><g fill="#58441a" stroke="#a6cfe3" stroke-width="0.0" fill-opacity="1.0" stroke-opacity="1.0"><rect x="0.225" width="1.0000000000000009e-2" y="-5.0e-2" height="0.1"/></g><g fill="#564519" stroke="#a6cfe3" stroke-width="0.0" fill-opacity="1.0" stroke-opacity="1.0"><rect x="0.235" width="1.0000000000000009e-2" y="-5.0e-2" height="0.1"/></g><g fill="#554519" stroke="#a6cfe3" stroke-width="0.0" fill-opacity="1.0" stroke-opacity="1.0"><rect x="0.245" width="1.0000000000000009e-2" y="-5.0e-2" height="0.1"/></g><g fill="#53461a" stroke="#a6cfe3" stroke-width="0.0" fill-opacity="1.0" stroke-opacity="1.0"><rect x="0.255" width="1.0000000000000009e-2" y="-5.0e-2" height="0.1"/></g><g fill="#51471a" stroke="#a6cfe3" stroke-width="0.0" fill-opacity="1.0" stroke-opacity="1.0"><rect x="0.265" width="1.0000000000000009e-2" y="-5.0e-2" height="0.1"/></g><g fill="#4f481b" stroke="#a6cfe3" stroke-width="0.0" fill-opacity="1.0" stroke-opacity="1.0"><rect x="0.275" width="1.0000000000000009e-2" y="-5.0e-2" height="0.1"/></g><g fill="#4d491c" stroke="#a6cfe3" stroke-width="0.0" fill-opacity="1.0" stroke-opacity="1.0"><rect x="0.285" width="1.0000000000000009e-2" y="-5.0e-2" height="0.1"/></g><g fill="#4b4a1d" stroke="#a6cfe3" stroke-width="0.0" fill-opacity="1.0" stroke-opacity="1.0"><rect x="0.295" width="1.0000000000000009e-2" y="-5.0e-2" height="0.1"/></g><g fill="#484b1e" stroke="#a6cfe3" stroke-width="0.0" fill-opacity="1.0" stroke-opacity="1.0"><rect x="0.305" width="1.0000000000000009e-2" y="-5.0e-2" height="0.1"/></g><g fill="#464b20" stroke="#a6cfe3" stroke-width="0.0" fill-opacity="1.0" stroke-opacity="1.0"><rect x="0.315" width="1.0000000000000009e-2" y="-5.0e-2" height="0.1"/></g><g fill="#444c22" stroke="#a6cfe3" stroke-width="0.0" fill-opacity="1.0" stroke-opacity="1.0"><rect x="0.325" width="1.0000000000000009e-2" y="-5.0e-2" height="0.1"/></g><g fill="#414d23" stroke="#a6cfe3" stroke-width="0.0" fill-opacity="1.0" stroke-opacity="1.0"><rect x="0.335" width="1.0000000000000009e-2" y="-5.0e-2" height="0.1"/></g><g fill="#3e4d25" stroke="#a6cfe3" stroke-width="0.0" fill-opacity="1.0" stroke-opacity="1.0"><rect x="0.34500000000000003" width="1.0000000000000009e-2" y="-5.0e-2" height="0.1"/></g><g fill="#3c4e27" stroke="#a6cfe3" stroke-width="0.0" fill-opacity="1.0" stroke-opacity="1.0"><rect x="0.355" width="1.0000000000000009e-2" y="-5.0e-2" height="0.1"/></g><g fill="#394f2a" stroke="#a6cfe3" stroke-width="0.0" fill-opacity="1.0" stroke-opacity="1.0"><rect x="0.365" width="1.0000000000000009e-2" y="-5.0e-2" height="0.1"/></g><g fill="#364f2c" stroke="#a6cfe3" stroke-width="0.0" fill-opacity="1.0" stroke-opacity="1.0"><rect x="0.375" width="1.0000000000000009e-2" y="-5.0e-2" height="0.1"/></g><g fill="#34502e" stroke="#a6cfe3" stroke-width="0.0" fill-opacity="1.0" stroke-opacity="1.0"><rect x="0.385" width="1.0000000000000009e-2" y="-5.0e-2" height="0.1"/></g><g fill="#315030" stroke="#a6cfe3" stroke-width="0.0" fill-opacity="1.0" stroke-opacity="1.0"><rect x="0.395" width="1.0000000000000009e-2" y="-5.0e-2" height="0.1"/></g><g fill="#2e5133" stroke="#a6cfe3" stroke-width="0.0" fill-opacity="1.0" stroke-opacity="1.0"><rect x="0.405" width="1.0000000000000009e-2" y="-5.0e-2" height="0.1"/></g><g fill="#2b5135" stroke="#a6cfe3" stroke-width="0.0" fill-opacity="1.0" stroke-opacity="1.0"><rect x="0.415" width="1.0000000000000009e-2" y="-5.0e-2" height="0.1"/></g><g fill="#285138" stroke="#a6cfe3" stroke-width="0.0" fill-opacity="1.0" stroke-opacity="1.0"><rect x="0.425" width="1.0000000000000009e-2" y="-5.0e-2" height="0.1"/></g><g fill="#25523a" stroke="#a6cfe3" stroke-width="0.0" fill-opacity="1.0" stroke-opacity="1.0"><rect x="0.435" width="1.0000000000000009e-2" y="-5.0e-2" height="0.1"/></g><g fill="#22523c" stroke="#a6cfe3" stroke-width="0.0" fill-opacity="1.0" stroke-opacity="1.0"><rect x="0.445" width="1.0000000000000009e-2" y="-5.0e-2" height="0.1"/></g><g fill="#1f523f" stroke="#a6cfe3" stroke-width="0.0" fill-opacity="1.0" stroke-opacity="1.0"><rect x="0.455" width="1.0000000000000009e-2" y="-5.0e-2" height="0.1"/></g><g fill="#1c5241" stroke="#a6cfe3" stroke-width="0.0" fill-opacity="1.0" stroke-opacity="1.0"><rect x="0.465" width="1.0000000000000009e-2" y="-5.0e-2" height="0.1"/></g><g fill="#195244" stroke="#a6cfe3" stroke-width="0.0" fill-opacity="1.0" stroke-opacity="1.0"><rect x="0.475" width="1.0000000000000009e-2" y="-5.0e-2" height="0.1"/></g><g fill="#165246" stroke="#a6cfe3" stroke-width="0.0" fill-opacity="1.0" stroke-opacity="1.0"><rect x="0.485" width="1.0000000000000009e-2" y="-5.0e-2" height="0.1"/></g><g fill="#135248" stroke="#a6cfe3" stroke-width="0.0" fill-opacity="1.0" stroke-opacity="1.0"><rect x="0.495" width="1.0000000000000009e-2" y="-5.0e-2" height="0.1"/></g><g fill="#10524b" stroke="#a6cfe3" stroke-width="0.0" fill-opacity="1.0" stroke-opacity="1.0"><rect x="0.505" width="1.0000000000000009e-2" y="-5.0e-2" height="0.1"/></g><g fill="#0e524d" stroke="#a6cfe3" stroke-width="0.0" fill-opacity="1.0" stroke-opacity="1.0"><rect x="0.515" width="1.0000000000000009e-2" y="-5.0e-2" height="0.1"/></g><g fill="#0c524f" stroke="#a6cfe3" stroke-width="0.0" fill-opacity="1.0" stroke-opacity="1.0"><rect x="0.525" width="1.0000000000000009e-2" y="-5.0e-2" height="0.1"/></g><g fill="#0a5252" stroke="#a6cfe3" stroke-width="0.0" fill-opacity="1.0" stroke-opacity="1.0"><rect x="0.535" width="1.0000000000000009e-2" y="-5.0e-2" height="0.1"/></g><g fill="#095254" stroke="#a6cfe3" stroke-width="0.0" fill-opacity="1.0" stroke-opacity="1.0"><rect x="0.545" width="1.0000000000000009e-2" y="-5.0e-2" height="0.1"/></g><g fill="#095156" stroke="#a6cfe3" stroke-width="0.0" fill-opacity="1.0" stroke-opacity="1.0"><rect x="0.555" width="1.0000000000000009e-2" y="-5.0e-2" height="0.1"/></g><g fill="#0a5158" stroke="#a6cfe3" stroke-width="0.0" fill-opacity="1.0" stroke-opacity="1.0"><rect x="0.5650000000000001" width="1.0000000000000009e-2" y="-5.0e-2" height="0.1"/></g><g fill="#0c515a" stroke="#a6cfe3" stroke-width="0.0" fill-opacity="1.0" stroke-opacity="1.0"><rect x="0.575" width="1.0000000000000009e-2" y="-5.0e-2" height="0.1"/></g><g fill="#0d505c" stroke="#a6cfe3" stroke-width="0.0" fill-opacity="1.0" stroke-opacity="1.0"><rect x="0.585" width="1.0000000000000009e-2" y="-5.0e-2" height="0.1"/></g><g fill="#10505d" stroke="#a6cfe3" stroke-width="0.0" fill-opacity="1.0" stroke-opacity="1.0"><rect x="0.595" width="1.0000000000000009e-2" y="-5.0e-2" height="0.1"/></g><g fill="#124f5f" stroke="#a6cfe3" stroke-width="0.0" fill-opacity="1.0" stroke-opacity="1.0"><rect x="0.605" width="1.0000000000000009e-2" y="-5.0e-2" height="0.1"/></g><g fill="#154f61" stroke="#a6cfe3" stroke-width="0.0" fill-opacity="1.0" stroke-opacity="1.0"><rect x="0.615" width="1.0000000000000009e-2" y="-5.0e-2" height="0.1"/></g><g fill="#184e62" stroke="#a6cfe3" stroke-width="0.0" fill-opacity="1.0" stroke-opacity="1.0"><rect x="0.625" width="1.0000000000000009e-2" y="-5.0e-2" height="0.1"/></g><g fill="#1b4d63" stroke="#a6cfe3" stroke-width="0.0" fill-opacity="1.0" stroke-opacity="1.0"><rect x="0.635" width="1.0000000000000009e-2" y="-5.0e-2" height="0.1"/></g><g fill="#1e4d65" stroke="#a6cfe3" stroke-width="0.0" fill-opacity="1.0" stroke-opacity="1.0"><rect x="0.645" width="1.0000000000000009e-2" y="-5.0e-2" height="0.1"/></g><g fill="#214c66" stroke="#a6cfe3" stroke-width="0.0" fill-opacity="1.0" stroke-opacity="1.0"><rect x="0.655" width="1.0000000000000009e-2" y="-5.0e-2" height="0.1"/></g><g fill="#244b67" stroke="#a6cfe3" stroke-width="0.0" fill-opacity="1.0" stroke-opacity="1.0"><rect x="0.665" width="1.0000000000000009e-2" y="-5.0e-2" height="0.1"/></g><g fill="#274b68" stroke="#a6cfe3" stroke-width="0.0" fill-opacity="1.0" stroke-opacity="1.0"><rect x="0.675" width="1.0000000000000009e-2" y="-5.0e-2" height="0.1"/></g><g fill="#2a4a68" stroke="#a6cfe3" stroke-width="0.0" fill-opacity="1.0" stroke-opacity="1.0"><rect x="0.685" width="1.0000000000000009e-2" y="-5.0e-2" height="0.1"/></g><g fill="#2c4969" stroke="#a6cfe3" stroke-width="0.0" fill-opacity="1.0" stroke-opacity="1.0"><rect x="0.6950000000000001" width="1.0000000000000009e-2" y="-5.0e-2" height="0.1"/></g><g fill="#2f4869" stroke="#a6cfe3" stroke-width="0.0" fill-opacity="1.0" stroke-opacity="1.0"><rect x="0.705" width="1.0000000000000009e-2" y="-5.0e-2" height="0.1"/></g><g fill="#32486a" stroke="#a6cfe3" stroke-width="0.0" fill-opacity="1.0" stroke-opacity="1.0"><rect x="0.715" width="1.0000000000000009e-2" y="-5.0e-2" height="0.1"/></g><g fill="#34476a" stroke="#a6cfe3" stroke-width="0.0" fill-opacity="1.0" stroke-opacity="1.0"><rect x="0.725" width="1.0000000000000009e-2" y="-5.0e-2" height="0.1"/></g><g fill="#37466a" stroke="#a6cfe3" stroke-width="0.0" fill-opacity="1.0" stroke-opacity="1.0"><rect x="0.735" width="1.0000000000000009e-2" y="-5.0e-2" height="0.1"/></g><g fill="#3a456a" stroke="#a6cfe3" stroke-width="0.0" fill-opacity="1.0" stroke-opacity="1.0"><rect x="0.745" width="1.0000000000000009e-2" y="-5.0e-2" height="0.1"/></g><g fill="#3c446a" stroke="#a6cfe3" stroke-width="0.0" fill-opacity="1.0" stroke-opacity="1.0"><rect x="0.755" width="1.0000000000000009e-2" y="-5.0e-2" height="0.1"/></g><g fill="#3f446a" stroke="#a6cfe3" stroke-width="0.0" fill-opacity="1.0" stroke-opacity="1.0"><rect x="0.765" width="1.0000000000000009e-2" y="-5.0e-2" height="0.1"/></g><g fill="#414369" stroke="#a6cfe3" stroke-width="0.0" fill-opacity="1.0" stroke-opacity="1.0"><rect x="0.775" width="1.0000000000000009e-2" y="-5.0e-2" height="0.1"/></g><g fill="#434269" stroke="#a6cfe3" stroke-width="0.0" fill-opacity="1.0" stroke-opacity="1.0"><rect x="0.785" width="1.0000000000000009e-2" y="-5.0e-2" height="0.1"/></g><g fill="#454168" stroke="#a6cfe3" stroke-width="0.0" fill-opacity="1.0" stroke-opacity="1.0"><rect x="0.795" width="1.0000000000000009e-2" y="-5.0e-2" height="0.1"/></g><g fill="#484167" stroke="#a6cfe3" stroke-width="0.0" fill-opacity="1.0" stroke-opacity="1.0"><rect x="0.805" width="1.0000000000000009e-2" y="-5.0e-2" height="0.1"/></g><g fill="#4a4066" stroke="#a6cfe3" stroke-width="0.0" fill-opacity="1.0" stroke-opacity="1.0"><rect x="0.8150000000000001" width="1.0000000000000009e-2" y="-5.0e-2" height="0.1"/></g><g fill="#4c3f65" stroke="#a6cfe3" stroke-width="0.0" fill-opacity="1.0" stroke-opacity="1.0"><rect x="0.8250000000000001" width="1.0000000000000009e-2" y="-5.0e-2" height="0.1"/></g><g fill="#4e3e64" stroke="#a6cfe3" stroke-width="0.0" fill-opacity="1.0" stroke-opacity="1.0"><rect x="0.835" width="1.0000000000000009e-2" y="-5.0e-2" height="0.1"/></g><g fill="#503e63" stroke="#a6cfe3" stroke-width="0.0" fill-opacity="1.0" stroke-opacity="1.0"><rect x="0.845" width="1.0000000000000009e-2" y="-5.0e-2" height="0.1"/></g><g fill="#523d61" stroke="#a6cfe3" stroke-width="0.0" fill-opacity="1.0" stroke-opacity="1.0"><rect x="0.855" width="1.0000000000000009e-2" y="-5.0e-2" height="0.1"/></g><g fill="#533d60" stroke="#a6cfe3" stroke-width="0.0" fill-opacity="1.0" stroke-opacity="1.0"><rect x="0.865" width="1.0000000000000009e-2" y="-5.0e-2" height="0.1"/></g><g fill="#553c5e" stroke="#a6cfe3" stroke-width="0.0" fill-opacity="1.0" stroke-opacity="1.0"><rect x="0.875" width="1.0000000000000009e-2" y="-5.0e-2" height="0.1"/></g><g fill="#573b5d" stroke="#a6cfe3" stroke-width="0.0" fill-opacity="1.0" stroke-opacity="1.0"><rect x="0.885" width="1.0000000000000009e-2" y="-5.0e-2" height="0.1"/></g><g fill="#583b5b" stroke="#a6cfe3" stroke-width="0.0" fill-opacity="1.0" stroke-opacity="1.0"><rect x="0.895" width="1.0000000000000009e-2" y="-5.0e-2" height="0.1"/></g><g fill="#5a3a59" stroke="#a6cfe3" stroke-width="0.0" fill-opacity="1.0" stroke-opacity="1.0"><rect x="0.905" width="1.0000000000000009e-2" y="-5.0e-2" height="0.1"/></g><g fill="#5b3a57" stroke="#a6cfe3" stroke-width="0.0" fill-opacity="1.0" stroke-opacity="1.0"><rect x="0.915" width="1.0000000000000009e-2" y="-5.0e-2" height="0.1"/></g><g fill="#5d3955" stroke="#a6cfe3" stroke-width="0.0" fill-opacity="1.0" stroke-opacity="1.0"><rect x="0.925" width="1.0000000000000009e-2" y="-5.0e-2" height="0.1"/></g><g fill="#5e3953" stroke="#a6cfe3" stroke-width="0.0" fill-opacity="1.0" stroke-opacity="1.0"><rect x="0.935" width="1.0000000000000009e-2" y="-5.0e-2" height="0.1"/></g><g fill="#5f3951" stroke="#a6cfe3" stroke-width="0.0" fill-opacity="1.0" stroke-opacity="1.0"><rect x="0.9450000000000001" width="1.0000000000000009e-2" y="-5.0e-2" height="0.1"/></g><g fill="#60384f" stroke="#a6cfe3" stroke-width="0.0" fill-opacity="1.0" stroke-opacity="1.0"><rect x="0.955" width="1.0000000000000009e-2" y="-5.0e-2" height="0.1"/></g><g fill="#61384d" stroke="#a6cfe3" stroke-width="0.0" fill-opacity="1.0" stroke-opacity="1.0"><rect x="0.965" width="1.0000000000000009e-2" y="-5.0e-2" height="0.1"/></g><g fill="#62384a" stroke="#a6cfe3" stroke-width="0.0" fill-opacity="1.0" stroke-opacity="1.0"><rect x="0.975" width="1.0000000000000009e-2" y="-5.0e-2" height="0.1"/></g><g fill="#633848" stroke="#a6cfe3" stroke-width="0.0" fill-opacity="1.0" stroke-opacity="1.0"><rect x="0.985" width="1.0000000000000009e-2" y="-5.0e-2" height="0.1"/></g></g><g class="original"><g fill="#000000" stroke="#fcfcfc" stroke-width="2.0e-3" fill-opacity="0.0" stroke-opacity="1.0"><rect x="4.451378969479e-2" width="4.000000000000001e-2" y="-7.5e-2" height="0.15"/></g></g></g><g class="hud"></g></svg>