<svg xmlns="http://www.w3.org/2000/svg" width="858.1673306772908" xmlns:xlink="http://www.w3.org/1999/xlink" viewBox="-3.8500000000000006e-2 -0.1435 1.077 0.251" height="200.0"><style>svg { shape-rendering: crispEdges; }svg {
  color-scheme: light dark;
}
{
  .canvas g, .title g, .axisbar g, .ticktext g, .tickglyph g, .ticklines g, .legendContent g text {
    fill: #0d0d0d;
  }
  .ticklines g, .tickglyph g, .legendBorder g {
    stroke: #0d0d0d;
  }
}
@media (prefers-color-scheme:dark) {
  .canvas g, .title g, .axisbar g, .ticktext g, .tickglyph g, .ticklines g, .legendContent g text {
    fill: #f0f0f0;
  }
  .ticklines g, .tickglyph g, .legendBorder g {
    stroke: #f0f0f0;
  }
}</style><g class="chart"><g class="gradient"><g fill="#b95800" stroke="#a6cfe3" stroke-width="0.0" fill-opacity="1.0" stroke-opacity="1.0"><rect x="0.0" width="5.0e-2" y="-5.0e-2" height="0.1"/></g><g fill="#b65a13" stroke="#a6cfe3" stroke-width="0.0" fill-opacity="1.0" stroke-opacity="1.0"><rect x="5.0e-2" width="5.0e-2" y="-5.0e-2" height="0.1"/></g><g fill="#b35c1e" stroke="#a6cfe3" stroke-width="0.0" fill-opacity="1.0" stroke-opacity="1.0"><rect x="0.1" width="5.000000000000002e-2" y="-5.0e-2" height="0.1"/></g><g fill="#b15e27" stroke="#a6cfe3" stroke-width="0.0" fill-opacity="1.0" stroke-opacity="1.0"><rect x="0.15000000000000002" width="4.999999999999999e-2" y="-5.0e-2" height="0.1"/></g><g fill="#ae602e" stroke="#a6cfe3" stroke-width="0.0" fill-opacity="1.0" stroke-opacity="1.0"><rect x="0.2" width="4.999999999999999e-2" y="-5.0e-2" height="0.1"/></g><g fill="#ab6235" stroke="#a6cfe3" stroke-width="0.0" fill-opacity="1.0" stroke-opacity="1.0"><rect x="0.25" width="4.999999999999999e-2" y="-5.0e-2" height="0.1"/></g><g fill="#a7643a" stroke="#a6cfe3" stroke-width="0.0" fill-opacity="1.0" stroke-opacity="1.0"><rect x="0.30000000000000004" width="4.999999999999999e-2" y="-5.0e-2" height="0.1"/></g><g fill="#a46640" stroke="#a6cfe3" stroke-width="0.0" fill-opacity="1.0" stroke-opacity="1.0"><rect x="0.35000000000000003" width="4.999999999999999e-2" y="-5.0e-2" height="0.1"/></g><g fill="#a16745" stroke="#a6cfe3" stroke-width="0.0" fill-opacity="1.0" stroke-opacity="1.0"><rect x="0.4" width="4.999999999999999e-2" y="-5.0e-2" height="0.1"/></g><g fill="#9e694a" stroke="#a6cfe3" stroke-width="0.0" fill-opacity="1.0" stroke-opacity="1.0"><rect x="0.45" width="4.999999999999999e-2" y="-5.0e-2" height="0.1"/></g><g fill="#9b6b4e" stroke="#a6cfe3" stroke-width="0.0" fill-opacity="1.0" stroke-opacity="1.0"><rect x="0.5" width="5.0000000000000044e-2" y="-5.0e-2" height="0.1"/></g><g fill="#986c53" stroke="#a6cfe3" stroke-width="0.0" fill-opacity="1.0" stroke-opacity="1.0"><rect x="0.55" width="5.0000000000000044e-2" y="-5.0e-2" height="0.1"/></g><g fill="#946e57" stroke="#a6cfe3" stroke-width="0.0" fill-opacity="1.0" stroke-opacity="1.0"><rect x="0.6000000000000001" width="5.0000000000000044e-2" y="-5.0e-2" height="0.1"/></g><g fill="#916f5c" stroke="#a6cfe3" stroke-width="0.0" fill-opacity="1.0" stroke-opacity="1.0"><rect x="0.65" width="5.0000000000000044e-2" y="-5.0e-2" height="0.1"/></g><g fill="#8e7060" stroke="#a6cfe3" stroke-width="0.0" fill-opacity="1.0" stroke-opacity="1.0"><rect x="0.7000000000000001" width="5.0000000000000044e-2" y="-5.0e-2" height="0.1"/></g><g fill="#8a7264" stroke="#a6cfe3" stroke-width="0.0" fill-opacity="1.0" stroke-opacity="1.0"><rect x="0.75" width="5.0000000000000044e-2" y="-5.0e-2" height="0.1"/></g><g fill="#867368" stroke="#a6cfe3" stroke-width="0.0" fill-opacity="1.0" stroke-opacity="1.0"><rect x="0.8" width="5.0000000000000044e-2" y="-5.0e-2" height="0.1"/></g><g fill="#83746c" stroke="#a6cfe3" stroke-width="0.0" fill-opacity="1.0" stroke-opacity="1.0"><rect x="0.8500000000000001" width="5.0000000000000044e-2" y="-5.0e-2" height="0.1"/></g><g fill="#7f7570" stroke="#a6cfe3" stroke-width="0.0" fill-opacity="1.0" stroke-opacity="1.0"><rect x="0.9" width="5.0000000000000044e-2" y="-5.0e-2" height="0.1"/></g><g fill="#7b7673" stroke="#a6cfe3" stroke-width="0.0" fill-opacity="1.0" stroke-opacity="1.0"><rect x="0.9500000000000001" width="4.999999999999993e-2" y="-5.0e-2" height="0.1"/></g></g></g><g class="hud"><g class="axis"><g class="ticks"><g class="tickglyph"><g fill="#fcfcfc" stroke="#0d0d0d" stroke-width="2.0e-3" fill-opacity="1.0" stroke-opacity="0.4"><polyline points="0.0,6.0000000000000005e-2
0.0,4.0e-2"/><polyline points="0.2,6.0000000000000005e-2
0.2,4.0e-2"/><polyline points="0.4,6.0000000000000005e-2
0.4,4.0e-2"/><polyline points="0.6000000000000001,6.0000000000000005e-2
0.6000000000000001,4.0e-2"/><polyline points="0.8,6.0000000000000005e-2
0.8,4.0e-2"/><polyline points="1.0,6.0000000000000005e-2
1.0,4.0e-2"/></g></g><g class="ticktext"><g fill="#fcfcfc" stroke="none" stroke-width="0.0" font-size="2.0e-2" fill-opacity="1.0" text-anchor="middle"><text x="0.0" y="8.1e-2">0.00</text><text x="0.2" y="8.1e-2">0.20</text><text x="0.4" y="8.1e-2">0.40</text><text x="0.6000000000000001" y="8.1e-2">0.60</text><text x="0.8" y="8.1e-2">0.80</text><text x="1.0" y="8.1e-2">1.00</text></g></g></g></g><g class="title"><g fill="#b95800" stroke="none" stroke-width="0.0" font-size="3.0e-2" fill-opacity="1.0" text-anchor="middle"><text x="0.5" y="-9.9e-2">fade to grey with constant luminance</text></g></g><g class="frame"><g fill="#000000" stroke="#fcfcfc" stroke-width="1.0e-3" fill-opacity="0.0" stroke-opacity="1.0"><rect x="-3.8000000000000006e-2" width="1.076" y="-0.143" height="0.25"/></g></g></g></svg>