<svg xmlns="http://www.w3.org/2000/svg" width="497.6266721568576" xmlns:xlink="http://www.w3.org/1999/xlink" viewBox="-0.22299948809288733 -0.1435 0.635 0.25521140064608144" height="200.0"><style>svg { shape-rendering: crispEdges; }svg {
  color-scheme: light dark;
}
{
  .canvas g, .title g, .axisbar g, .ticktext g, .tickglyph g, .ticklines g, .legendContent g text {
    fill: #0d0d0d;
  }
  .ticklines g, .tickglyph g, .legendBorder g {
    stroke: #0d0d0d;
  }
}
@media (prefers-color-scheme:dark) {
  .canvas g, .title g, .axisbar g, .ticktext g, .tickglyph g, .ticklines g, .legendContent g text {
    fill: #f0f0f0;
  }
  .ticklines g, .tickglyph g, .legendBorder g {
    stroke: #f0f0f0;
  }
}</style><g class="chart"><g class="gradient"><g fill="#b15e27" stroke="#a6cfe3" stroke-width="0.0" fill-opacity="1.0" stroke-opacity="1.0"><rect x="0.14934467634341606" width="4.777520346623809e-2" y="-5.0e-2" height="0.1"/></g><g fill="#b15e25" stroke="#a6cfe3" stroke-width="0.0" fill-opacity="1.0" stroke-opacity="1.0"><rect x="0.14224876045746881" width="4.777520346623812e-2" y="-5.0e-2" height="0.1"/></g><g fill="#b15e24" stroke="#a6cfe3" stroke-width="0.0" fill-opacity="1.0" stroke-opacity="1.0"><rect x="0.13515284457152157" width="4.7775203466238064e-2" y="-5.0e-2" height="0.1"/></g><g fill="#b25d23" stroke="#a6cfe3" stroke-width="0.0" fill-opacity="1.0" stroke-opacity="1.0"><rect x="0.12805692868557433" width="4.7775203466238064e-2" y="-5.0e-2" height="0.1"/></g><g fill="#b25d22" stroke="#a6cfe3" stroke-width="0.0" fill-opacity="1.0" stroke-opacity="1.0"><rect x="0.12096101279962708" width="4.777520346623808e-2" y="-5.0e-2" height="0.1"/></g><g fill="#b35d20" stroke="#a6cfe3" stroke-width="0.0" fill-opacity="1.0" stroke-opacity="1.0"><rect x="0.11386509691367983" width="4.777520346623809e-2" y="-5.0e-2" height="0.1"/></g><g fill="#b35c1f" stroke="#a6cfe3" stroke-width="0.0" fill-opacity="1.0" stroke-opacity="1.0"><rect x="0.10676918102773258" width="4.777520346623809e-2" y="-5.0e-2" height="0.1"/></g><g fill="#b45c1e" stroke="#a6cfe3" stroke-width="0.0" fill-opacity="1.0" stroke-opacity="1.0"><rect x="9.967326514178534e-2" width="4.777520346623809e-2" y="-5.0e-2" height="0.1"/></g><g fill="#b45c1c" stroke="#a6cfe3" stroke-width="0.0" fill-opacity="1.0" stroke-opacity="1.0"><rect x="9.257734925583809e-2" width="4.777520346623805e-2" y="-5.0e-2" height="0.1"/></g><g fill="#b55b1b" stroke="#a6cfe3" stroke-width="0.0" fill-opacity="1.0" stroke-opacity="1.0"><rect x="8.548143336989085e-2" width="4.777520346623808e-2" y="-5.0e-2" height="0.1"/></g><g fill="#b55b19" stroke="#a6cfe3" stroke-width="0.0" fill-opacity="1.0" stroke-opacity="1.0"><rect x="7.83855174839436e-2" width="4.7775203466238064e-2" y="-5.0e-2" height="0.1"/></g><g fill="#b55b17" stroke="#a6cfe3" stroke-width="0.0" fill-opacity="1.0" stroke-opacity="1.0"><rect x="7.128960159799637e-2" width="4.777520346623808e-2" y="-5.0e-2" height="0.1"/></g><g fill="#b65a15" stroke="#a6cfe3" stroke-width="0.0" fill-opacity="1.0" stroke-opacity="1.0"><rect x="6.419368571204911e-2" width="4.777520346623808e-2" y="-5.0e-2" height="0.1"/></g><g fill="#b65a13" stroke="#a6cfe3" stroke-width="0.0" fill-opacity="1.0" stroke-opacity="1.0"><rect x="5.709776982610186e-2" width="4.777520346623809e-2" y="-5.0e-2" height="0.1"/></g><g fill="#b75a11" stroke="#a6cfe3" stroke-width="0.0" fill-opacity="1.0" stroke-opacity="1.0"><rect x="5.000185394015463e-2" width="4.7775203466238085e-2" y="-5.0e-2" height="0.1"/></g><g fill="#b7590f" stroke="#a6cfe3" stroke-width="0.0" fill-opacity="1.0" stroke-opacity="1.0"><rect x="4.290593805420738e-2" width="4.777520346623808e-2" y="-5.0e-2" height="0.1"/></g><g fill="#b8590c" stroke="#a6cfe3" stroke-width="0.0" fill-opacity="1.0" stroke-opacity="1.0"><rect x="3.581002216826013e-2" width="4.7775203466238085e-2" y="-5.0e-2" height="0.1"/></g><g fill="#b85909" stroke="#a6cfe3" stroke-width="0.0" fill-opacity="1.0" stroke-opacity="1.0"><rect x="2.8714106282312895e-2" width="4.777520346623808e-2" y="-5.0e-2" height="0.1"/></g><g fill="#b85806" stroke="#a6cfe3" stroke-width="0.0" fill-opacity="1.0" stroke-opacity="1.0"><rect x="2.1618190396365634e-2" width="4.777520346623808e-2" y="-5.0e-2" height="0.1"/></g><g fill="#b95803" stroke="#a6cfe3" stroke-width="0.0" fill-opacity="1.0" stroke-opacity="1.0"><rect x="1.4522274510418398e-2" width="4.777520346623808e-2" y="-5.0e-2" height="0.1"/></g></g></g><g class="hud"><g class="axis"><g class="ticks"><g class="tickglyph"><g fill="#0d0d0d" stroke="#0d0d0d" stroke-width="2.0e-3" fill-opacity="1.0" stroke-opacity="0.4"><polyline points="7.426358624471163e-3,6.0000000000000005e-2
7.426358624471163e-3,4.0e-2"/><polyline points="5.520156209070924e-2,6.0000000000000005e-2
5.520156209070924e-2,4.0e-2"/><polyline points="0.10297676555694732,6.0000000000000005e-2
0.10297676555694732,4.0e-2"/><polyline points="0.1507519690231854,6.0000000000000005e-2
0.1507519690231854,4.0e-2"/><polyline points="0.19852717248942348,6.0000000000000005e-2
0.19852717248942348,4.0e-2"/></g></g><g class="ticktext"><g fill="#fcfcfc" stroke="none" stroke-width="0.0" font-size="1.0423680756270126e-2" fill-opacity="1.0" text-anchor="end"><text x="7.426358624471163e-3" y="7.573302441594858e-2" transform="rotate(-45.0, 7.426358624471163e-3, 7.573302441594858e-2)">0.00</text><text x="5.520156209070924e-2" y="7.573302441594858e-2" transform="rotate(-45.0, 5.520156209070924e-2, 7.573302441594858e-2)">0.05</text><text x="0.10297676555694732" y="7.573302441594858e-2" transform="rotate(-45.0, 0.10297676555694732, 7.573302441594858e-2)">0.10</text><text x="0.1507519690231854" y="7.573302441594858e-2" transform="rotate(-45.0, 0.1507519690231854, 7.573302441594858e-2)">0.15</text><text x="0.19852717248942348" y="7.573302441594858e-2" transform="rotate(-45.0, 0.19852717248942348, 7.573302441594858e-2)">0.20</text></g></g></g></g><g class="title"><g fill="#0d0d0d" stroke="none" stroke-width="0.0" font-size="3.0e-2" fill-opacity="1.0" text-anchor="middle"><text x="9.450051190711264e-2" y="-9.9e-2">fade to grey with constant lightness and hue</text></g></g><g class="frame"><g fill="#000000" stroke="#fcfcfc" stroke-width="1.0e-3" fill-opacity="0.0" stroke-opacity="1.0"><rect x="-0.22249948809288733" width="0.634" y="-0.143" height="0.25421140064608144"/></g></g></g></svg>